<svg width="1526" height="780" viewBox="0 0 1526 780" fill="none" xmlns="http://www.w3.org/2000/svg">
<g filter="url(#filter0_di)">
<path d="M-0.00215764 171.5L459.5 171.5L499.5 213L630 213L712 129.5L1019 129.5L1057 166.569L1137 166.569" stroke="#21DEA8" stroke-width="3"/>
</g>
<g filter="url(#filter1_dd)">
<path d="M1526.06 120.496L1506.5 120.496L1440.5 198.5L1295.5 198.5L1250.5 150.5L605.5 150.5" stroke="#21DEA8" stroke-width="3"/>
</g>
<g filter="url(#filter2_d)">
<path d="M1526 183.5L1506 183.5L1467 138.5L1291 138.5L1240.5 183.5L998.5 183.5" stroke="#21DEA8" stroke-width="3"/>
</g>
<path d="M0 187.5H249L278.5 216H400.5L428 187.5" stroke="#9158FD"/>
<path d="M0.055633 154.503L235.5 154.503L261.5 127.5L464 127.5L524 189L750 189L782.5 159L884.5 159L953 218.5L1063.5 218.5L1147.5 127.5" stroke="#9158FD"/>
<path d="M-0.0015867 112.5L131 111.51L155.5 139.5L209 139.5L236 112.5L306.998 111.51" stroke="#9158FD"/>
<path d="M1541.7 180.587L1385.7 180.587L1299.7 270.087L1179.2 270.087L1119.74 209.586" stroke="#9158FD"/>
<g filter="url(#filter3_di)">
<circle cx="590.5" cy="149.5" r="14" stroke="#21DEA8" stroke-width="3" shape-rendering="crispEdges"/>
</g>
<circle cx="313.5" cy="111.5" r="11.5" fill="#875FF4"/>
<path d="M5.73669 654H41.2367L102.237 716H242.737L287.237 674.5" stroke="#9158FD"/>
<path d="M5.19426 750.002L37.2367 750.002L106.237 680L248.737 680L282.237 720.002L357.194 720.002" stroke="#9158FD"/>
<path d="M5.23669 767H85.2367L106.237 746H175.237L193.237 767H556.238" stroke="#9158FD"/>
<circle cx="563.737" cy="768" r="11.5" fill="#875FF4"/>
<circle cx="292.737" cy="666" r="11.5" fill="#875FF4"/>
<circle cx="357.737" cy="717" r="11.5" fill="#875FF4"/>
<circle cx="428.5" cy="187.5" r="11.5" fill="#875FF4"/>
<circle cx="1150.5" cy="123.5" r="11.5" fill="#875FF4"/>
<circle cx="1114.5" cy="200.5" r="11.5" fill="#875FF4"/>
<g filter="url(#filter4_di)">
<circle cx="977.5" cy="227.5" r="14" stroke="#21DEA8" stroke-width="3" shape-rendering="crispEdges"/>
</g>
<g filter="url(#filter5_di)">
<circle cx="1152.5" cy="165.5" r="14" stroke="#21DEA8" stroke-width="3" shape-rendering="crispEdges"/>
</g>
<g filter="url(#filter6_di)">
<circle cx="983.5" cy="183.5" r="14" stroke="#21DEA8" stroke-width="3" shape-rendering="crispEdges"/>
</g>
<path d="M1527.19 84.1974L1332.66 84.1974L1252.16 138.197L840.194 138.197" stroke="#9158FD"/>
<path d="M1526.06 161.496L1282.5 161.496L1221 227.496L993.061 227.496" stroke="#21DEA8"/>
<g filter="url(#filter7_d)">
<path d="M1746.01 596.5L1511.5 596.5L1476.5 629.5L1284 629.5L1222 562L992 562L953 596.5L858 596.5L802 532L686.5 532L605.009 617.5" stroke="#21DEA8" stroke-width="3"/>
</g>
<path d="M1754.46 574.94L1654.46 574.94L1617.96 534.315L1489.46 534.315L1467.46 504.314L1226.96 504.314L1199.96 522.315L969.957 522.315L912.457 574.94" stroke="#9158FD"/>
<path d="M1746.04 498.498L1601 498.498L1520.5 588L1396 588L1333.04 530.498" stroke="#9158FD"/>
<g filter="url(#filter8_di)">
<circle cx="596.5" cy="629.5" r="14" stroke="#21DEA8" stroke-width="3" shape-rendering="crispEdges"/>
</g>
<g filter="url(#filter9_di)">
<circle cx="692.5" cy="625.5" r="14" stroke="#21DEA8" stroke-width="3" shape-rendering="crispEdges"/>
</g>
<circle cx="909.5" cy="575.5" r="11.5" fill="#875FF4"/>
<circle cx="1331.5" cy="530.5" r="11.5" fill="#875FF4"/>
<g filter="url(#filter10_d)">
<path d="M1745.68 572.935L1291.66 572.935L1256.66 539.935L1120.16 539.935L1044.66 623.588L704.5 623.588" stroke="#21DEA8" stroke-width="3"/>
</g>
<mask id="path-32-outside-1" maskUnits="userSpaceOnUse" x="245.397" y="223.376" width="1075" height="446" fill="black">
<rect fill="white" x="245.397" y="223.376" width="1075" height="446"/>
<path d="M481.1 248.482C453.575 231.288 425.241 223.645 392.852 225.704C360.463 227.763 329.532 239.916 304.405 260.458C279.279 280.999 261.219 308.896 252.762 340.229C244.305 371.563 245.877 404.758 257.257 435.152C268.636 465.547 289.251 491.612 316.206 509.687C343.162 527.763 375.102 536.94 407.541 535.929C439.98 534.918 471.287 523.77 497.064 504.051C522.841 484.332 541.794 457.034 551.259 425.99L526.126 418.327C518.262 444.119 502.516 466.799 481.1 483.182C459.684 499.565 433.673 508.827 406.722 509.666C379.772 510.506 353.235 502.882 330.84 487.865C308.445 472.847 291.318 451.192 281.863 425.94C272.409 400.688 271.103 373.108 278.129 347.076C285.155 321.043 300.16 297.866 321.036 280.8C341.911 263.734 367.609 253.636 394.518 251.926C421.428 250.216 458.232 255.552 481.1 269.838L481.1 248.482Z"/>
<path d="M339.741 365.159L365.43 390.848V628.468H339.741V365.159Z"/>
<path d="M339.712 345.91L339.733 304.132L480.07 449.808L480.051 487.242L339.712 345.91Z"/>
<path fill-rule="evenodd" clip-rule="evenodd" d="M352.586 667C366.773 667 378.274 655.499 378.274 641.311C378.274 627.124 366.773 615.623 352.586 615.623C338.398 615.623 326.897 627.124 326.897 641.311C326.897 655.499 338.398 667 352.586 667ZM352.586 652.321C358.666 652.321 363.595 647.392 363.595 641.312C363.595 635.231 358.666 630.302 352.586 630.302C346.505 630.302 341.576 635.231 341.576 641.312C341.576 647.392 346.505 652.321 352.586 652.321Z"/>
<path d="M455.34 255.982H481.029V487.18L455.34 454.152V255.982Z"/>
<path d="M518.154 326.447V350.265H618.53V326.447H518.154ZM541.972 390.755H608.493V366.937H541.972L518.154 366.767V438.732H618.53V414.914H541.972V390.755Z"/>
<path d="M684.112 326.787C653.149 326.787 628.14 351.966 628.14 382.759C628.14 413.723 653.149 438.732 684.112 438.732C714.905 438.732 740.084 413.723 740.084 382.759C740.084 351.966 714.905 326.787 684.112 326.787ZM716.607 382.759C716.607 400.793 701.975 415.424 684.112 415.424C666.078 415.424 651.447 400.793 651.447 382.759C651.447 364.896 666.078 350.265 684.112 350.265C701.975 350.265 716.607 364.896 716.607 382.759Z"/>
<path d="M840.176 393.988L838.985 396.54C833.541 407.768 822.142 414.914 809.723 414.914C794.411 414.914 780.971 404.025 777.909 389.054C777.398 387.013 777.228 384.631 777.228 382.419C777.228 380.208 777.398 378.166 777.909 375.954C780.801 360.813 794.241 349.925 809.723 349.925C822.823 349.925 834.561 357.751 839.665 369.66L840.856 372.382H865.525L863.823 366.767C860.591 355.199 853.446 344.821 843.918 337.505C834.051 330.02 822.142 326.107 809.723 326.107C796.112 326.107 782.842 331.04 772.635 340.057C762.427 348.904 755.792 361.153 753.92 374.423C753.58 377.145 753.41 379.697 753.41 382.419C753.41 385.141 753.58 388.033 753.92 390.755C755.792 404.025 762.597 416.105 772.635 424.951C783.012 433.968 796.112 438.732 809.723 438.732C821.802 438.732 833.37 434.989 843.238 427.843C852.765 420.698 859.74 411.171 863.313 399.942L865.184 393.988H840.176Z"/>
<path d="M948.4 326.107L947.039 327.978L921.86 362.344L896.681 327.978L895.32 326.107H865.888L870.991 333.252L907.909 383.61L908.93 385.141H909.1V385.311L909.951 386.502V438.732H933.769V386.332L934.619 385.311V385.141H934.79L935.81 383.61L972.728 333.252L977.832 326.107H948.4Z"/>
<path d="M1068.62 393.988L1067.43 396.54C1061.98 407.768 1050.59 414.914 1038.17 414.914C1022.85 414.914 1009.41 404.025 1006.35 389.054C1005.84 387.013 1005.67 384.631 1005.67 382.419C1005.67 380.208 1005.84 378.166 1006.35 375.954C1009.24 360.813 1022.68 349.925 1038.17 349.925C1051.27 349.925 1063.01 357.751 1068.11 369.66L1069.3 372.382H1093.97L1092.27 366.767C1089.03 355.199 1081.89 344.821 1072.36 337.505C1062.49 330.02 1050.59 326.107 1038.17 326.107C1024.56 326.107 1011.29 331.04 1001.08 340.057C990.871 348.904 984.236 361.153 982.364 374.423C982.024 377.145 981.854 379.697 981.854 382.419C981.854 385.141 982.024 388.033 982.364 390.755C984.236 404.025 991.041 416.105 1001.08 424.951C1011.46 433.968 1024.56 438.732 1038.17 438.732C1050.25 438.732 1061.81 434.989 1071.68 427.843C1081.21 420.698 1088.18 411.171 1091.76 399.942L1093.63 393.988H1068.62Z"/>
<path d="M1134.93 414.914V325.596H1111.11V438.732H1200.43V414.914H1134.93Z"/>
<path d="M1217.61 326.447V350.265H1317.98V326.447H1217.61ZM1241.43 390.755H1307.95V366.937H1241.43L1217.61 366.767V438.732H1317.98V414.914H1241.43V390.755Z"/>
</mask>
<path d="M481.1 248.482C453.575 231.288 425.241 223.645 392.852 225.704C360.463 227.763 329.532 239.916 304.405 260.458C279.279 280.999 261.219 308.896 252.762 340.229C244.305 371.563 245.877 404.758 257.257 435.152C268.636 465.547 289.251 491.612 316.206 509.687C343.162 527.763 375.102 536.94 407.541 535.929C439.98 534.918 471.287 523.77 497.064 504.051C522.841 484.332 541.794 457.034 551.259 425.99L526.126 418.327C518.262 444.119 502.516 466.799 481.1 483.182C459.684 499.565 433.673 508.827 406.722 509.666C379.772 510.506 353.235 502.882 330.84 487.865C308.445 472.847 291.318 451.192 281.863 425.94C272.409 400.688 271.103 373.108 278.129 347.076C285.155 321.043 300.16 297.866 321.036 280.8C341.911 263.734 367.609 253.636 394.518 251.926C421.428 250.216 458.232 255.552 481.1 269.838L481.1 248.482Z" stroke="#875FF4" stroke-width="4" mask="url(#path-32-outside-1)"/>
<path d="M339.741 365.159L365.43 390.848V628.468H339.741V365.159Z" stroke="#875FF4" stroke-width="4" mask="url(#path-32-outside-1)"/>
<path d="M339.712 345.91L339.733 304.132L480.07 449.808L480.051 487.242L339.712 345.91Z" stroke="#875FF4" stroke-width="4" mask="url(#path-32-outside-1)"/>
<path fill-rule="evenodd" clip-rule="evenodd" d="M352.586 667C366.773 667 378.274 655.499 378.274 641.311C378.274 627.124 366.773 615.623 352.586 615.623C338.398 615.623 326.897 627.124 326.897 641.311C326.897 655.499 338.398 667 352.586 667ZM352.586 652.321C358.666 652.321 363.595 647.392 363.595 641.312C363.595 635.231 358.666 630.302 352.586 630.302C346.505 630.302 341.576 635.231 341.576 641.312C341.576 647.392 346.505 652.321 352.586 652.321Z" stroke="#875FF4" stroke-width="4" mask="url(#path-32-outside-1)"/>
<path d="M455.34 255.982H481.029V487.18L455.34 454.152V255.982Z" stroke="#875FF4" stroke-width="4" mask="url(#path-32-outside-1)"/>
<path d="M518.154 326.447V350.265H618.53V326.447H518.154ZM541.972 390.755H608.493V366.937H541.972L518.154 366.767V438.732H618.53V414.914H541.972V390.755Z" stroke="#875FF4" stroke-width="4" mask="url(#path-32-outside-1)"/>
<path d="M684.112 326.787C653.149 326.787 628.14 351.966 628.14 382.759C628.14 413.723 653.149 438.732 684.112 438.732C714.905 438.732 740.084 413.723 740.084 382.759C740.084 351.966 714.905 326.787 684.112 326.787ZM716.607 382.759C716.607 400.793 701.975 415.424 684.112 415.424C666.078 415.424 651.447 400.793 651.447 382.759C651.447 364.896 666.078 350.265 684.112 350.265C701.975 350.265 716.607 364.896 716.607 382.759Z" stroke="#875FF4" stroke-width="4" mask="url(#path-32-outside-1)"/>
<path d="M840.176 393.988L838.985 396.54C833.541 407.768 822.142 414.914 809.723 414.914C794.411 414.914 780.971 404.025 777.909 389.054C777.398 387.013 777.228 384.631 777.228 382.419C777.228 380.208 777.398 378.166 777.909 375.954C780.801 360.813 794.241 349.925 809.723 349.925C822.823 349.925 834.561 357.751 839.665 369.66L840.856 372.382H865.525L863.823 366.767C860.591 355.199 853.446 344.821 843.918 337.505C834.051 330.02 822.142 326.107 809.723 326.107C796.112 326.107 782.842 331.04 772.635 340.057C762.427 348.904 755.792 361.153 753.92 374.423C753.58 377.145 753.41 379.697 753.41 382.419C753.41 385.141 753.58 388.033 753.92 390.755C755.792 404.025 762.597 416.105 772.635 424.951C783.012 433.968 796.112 438.732 809.723 438.732C821.802 438.732 833.37 434.989 843.238 427.843C852.765 420.698 859.74 411.171 863.313 399.942L865.184 393.988H840.176Z" stroke="#875FF4" stroke-width="4" mask="url(#path-32-outside-1)"/>
<path d="M948.4 326.107L947.039 327.978L921.86 362.344L896.681 327.978L895.32 326.107H865.888L870.991 333.252L907.909 383.61L908.93 385.141H909.1V385.311L909.951 386.502V438.732H933.769V386.332L934.619 385.311V385.141H934.79L935.81 383.61L972.728 333.252L977.832 326.107H948.4Z" stroke="#875FF4" stroke-width="4" mask="url(#path-32-outside-1)"/>
<path d="M1068.62 393.988L1067.43 396.54C1061.98 407.768 1050.59 414.914 1038.17 414.914C1022.85 414.914 1009.41 404.025 1006.35 389.054C1005.84 387.013 1005.67 384.631 1005.67 382.419C1005.67 380.208 1005.84 378.166 1006.35 375.954C1009.24 360.813 1022.68 349.925 1038.17 349.925C1051.27 349.925 1063.01 357.751 1068.11 369.66L1069.3 372.382H1093.97L1092.27 366.767C1089.03 355.199 1081.89 344.821 1072.36 337.505C1062.49 330.02 1050.59 326.107 1038.17 326.107C1024.56 326.107 1011.29 331.04 1001.08 340.057C990.871 348.904 984.236 361.153 982.364 374.423C982.024 377.145 981.854 379.697 981.854 382.419C981.854 385.141 982.024 388.033 982.364 390.755C984.236 404.025 991.041 416.105 1001.08 424.951C1011.46 433.968 1024.56 438.732 1038.17 438.732C1050.25 438.732 1061.81 434.989 1071.68 427.843C1081.21 420.698 1088.18 411.171 1091.76 399.942L1093.63 393.988H1068.62Z" stroke="#875FF4" stroke-width="4" mask="url(#path-32-outside-1)"/>
<path d="M1134.93 414.914V325.596H1111.11V438.732H1200.43V414.914H1134.93Z" stroke="#875FF4" stroke-width="4" mask="url(#path-32-outside-1)"/>
<path d="M1217.61 326.447V350.265H1317.98V326.447H1217.61ZM1241.43 390.755H1307.95V366.937H1241.43L1217.61 366.767V438.732H1317.98V414.914H1241.43V390.755Z" stroke="#875FF4" stroke-width="4" mask="url(#path-32-outside-1)"/>
<path d="M325.548 364.27L351.237 389.958V627.578H325.548V364.27Z" fill="#21DDA7"/>
<path d="M325.519 345.02L325.54 303.242L465.877 448.918L465.859 486.352L325.519 345.02Z" fill="#21DDA7"/>
<path fill-rule="evenodd" clip-rule="evenodd" d="M338.393 666.11C352.58 666.11 364.081 654.609 364.081 640.422C364.081 626.234 352.58 614.733 338.393 614.733C324.205 614.733 312.704 626.234 312.704 640.422C312.704 654.609 324.205 666.11 338.393 666.11ZM338.393 651.431C344.473 651.431 349.402 646.502 349.402 640.422C349.402 634.342 344.473 629.413 338.393 629.413C332.312 629.413 327.383 634.342 327.383 640.422C327.383 646.502 332.312 651.431 338.393 651.431Z" fill="#21DDA7"/>
<path fill-rule="evenodd" clip-rule="evenodd" d="M441.147 255.093H466.835V486.289L441.148 453.263V486.291H441.147V255.093Z" fill="#21DDA7"/>
<path d="M466.907 247.594C439.382 230.399 411.048 222.757 378.659 224.816C346.27 226.874 315.339 239.028 290.213 259.57C265.086 280.111 247.026 308.008 238.569 339.341C230.113 370.675 231.684 403.87 243.064 434.264C254.443 464.658 275.059 490.724 302.014 508.799C328.969 526.875 360.909 536.051 393.348 535.04C425.787 534.03 457.094 522.882 482.871 503.163C508.649 483.444 527.601 456.146 537.066 425.102L511.933 417.439C504.07 443.231 488.324 465.911 466.907 482.294C445.491 498.677 419.48 507.938 392.53 508.778C365.579 509.618 339.042 501.994 316.647 486.977C294.253 471.959 277.125 450.304 267.671 425.051C258.216 399.799 256.911 372.22 263.936 346.188C270.962 320.155 285.967 296.978 306.843 279.912C327.719 262.846 353.416 252.748 380.326 251.038C407.235 249.327 444.039 254.664 466.907 268.949L466.907 247.594Z" fill="#21DDA7"/>
<path d="M501.496 329.259V333.682V353.077H601.872V329.259H501.496ZM525.314 393.567H591.835V369.749H525.314L501.496 369.579V417.725V422.149V441.543H601.872V417.725H525.314V393.567ZM667.454 329.599C636.491 329.599 611.482 354.778 611.482 385.571C611.482 416.535 636.491 441.543 667.454 441.543C698.247 441.543 723.426 416.535 723.426 385.571C723.426 354.778 698.247 329.599 667.454 329.599ZM699.948 385.571C699.948 403.605 685.317 418.236 667.454 418.236C649.42 418.236 634.789 403.605 634.789 385.571C634.789 367.708 649.42 353.077 667.454 353.077C685.317 353.077 699.948 367.708 699.948 385.571ZM823.518 396.8L822.327 399.352C816.883 410.58 805.484 417.725 793.065 417.725C777.753 417.725 764.313 406.837 761.251 391.866C760.74 389.824 760.57 387.443 760.57 385.231C760.57 383.019 760.74 380.978 761.251 378.766C764.143 363.625 777.583 352.736 793.065 352.736C806.164 352.736 817.903 360.562 823.007 372.471L824.198 375.193H848.867L847.165 369.579C843.933 358.01 836.788 347.633 827.26 340.317C817.393 332.831 805.484 328.918 793.065 328.918C779.454 328.918 766.184 333.852 755.977 342.869C745.769 351.716 739.134 363.965 737.262 377.235C736.922 379.957 736.752 382.509 736.752 385.231C736.752 387.953 736.922 390.845 737.262 393.567C739.134 406.837 745.939 418.916 755.977 427.763C766.354 436.78 779.454 441.543 793.065 441.543C805.144 441.543 816.712 437.801 826.58 430.655C836.107 423.51 843.082 413.983 846.655 402.754L848.526 396.8H823.518ZM931.742 328.918L930.381 330.79L905.202 365.156L880.023 330.79L878.662 328.918H849.23L854.333 336.064L891.251 386.422L892.272 387.953H892.442V388.123L893.293 389.314V441.543H917.111V389.144L917.961 388.123V387.953H918.132L919.152 386.422L956.07 336.064L961.174 328.918H931.742ZM1051.96 396.8L1050.77 399.352C1045.33 410.58 1033.93 417.725 1021.51 417.725C1006.2 417.725 992.757 406.837 989.694 391.866C989.184 389.824 989.014 387.443 989.014 385.231C989.014 383.019 989.184 380.978 989.694 378.766C992.587 363.625 1006.03 352.736 1021.51 352.736C1034.61 352.736 1046.35 360.562 1051.45 372.471L1052.64 375.193H1077.31L1075.61 369.579C1072.38 358.01 1065.23 347.633 1055.7 340.317C1045.84 332.831 1033.93 328.918 1021.51 328.918C1007.9 328.918 994.628 333.852 984.421 342.869C974.213 351.716 967.578 363.965 965.706 377.235C965.366 379.957 965.196 382.509 965.196 385.231C965.196 387.953 965.366 390.845 965.706 393.567C967.578 406.837 974.383 418.916 984.421 427.763C994.798 436.78 1007.9 441.543 1021.51 441.543C1033.59 441.543 1045.16 437.801 1055.02 430.655C1064.55 423.51 1071.53 413.983 1075.1 402.754L1076.97 396.8H1051.96ZM1118.27 417.725V328.408H1094.45V441.543H1183.77V417.725H1118.27ZM1200.95 329.259V333.682V353.077H1301.33V329.259H1200.95ZM1224.77 393.567H1291.29V369.749H1224.77L1200.95 369.579V417.725V422.149V441.543H1301.33V417.725H1224.77V393.567Z" fill="#21DDA7"/>
<defs>
<filter id="filter0_di" x="-20.184" y="106.155" width="1177.39" height="131.079" filterUnits="userSpaceOnUse" color-interpolation-filters="sRGB">
<feFlood flood-opacity="0" result="BackgroundImageFix"/>
<feColorMatrix in="SourceAlpha" type="matrix" values="0 0 0 0 0 0 0 0 0 0 0 0 0 0 0 0 0 0 127 0" result="hardAlpha"/>
<feOffset/>
<feGaussianBlur stdDeviation="10"/>
<feComposite in2="hardAlpha" operator="out"/>
<feColorMatrix type="matrix" values="0 0 0 0 0.129412 0 0 0 0 0.870588 0 0 0 0 0.658824 0 0 0 1 0"/>
<feBlend mode="normal" in2="BackgroundImageFix" result="effect1_dropShadow"/>
<feBlend mode="normal" in="SourceGraphic" in2="effect1_dropShadow" result="shape"/>
<feColorMatrix in="SourceAlpha" type="matrix" values="0 0 0 0 0 0 0 0 0 0 0 0 0 0 0 0 0 0 127 0" result="hardAlpha"/>
<feOffset/>
<feGaussianBlur stdDeviation="10"/>
<feComposite in2="hardAlpha" operator="arithmetic" k2="-1" k3="1"/>
<feColorMatrix type="matrix" values="0 0 0 0 0.129412 0 0 0 0 0.870588 0 0 0 0 0.658824 0 0 0 1 0"/>
<feBlend mode="normal" in2="shape" result="effect2_innerShadow"/>
</filter>
<filter id="filter1_dd" x="585.123" y="12.7432" width="969.764" height="311.586" filterUnits="userSpaceOnUse" color-interpolation-filters="sRGB">
<feFlood flood-opacity="0" result="BackgroundImageFix"/>
<feColorMatrix in="SourceAlpha" type="matrix" values="0 0 0 0 0 0 0 0 0 0 0 0 0 0 0 0 0 0 127 0" result="hardAlpha"/>
<feOffset/>
<feGaussianBlur stdDeviation="10"/>
<feComposite in2="hardAlpha" operator="out"/>
<feColorMatrix type="matrix" values="0 0 0 0 0.129412 0 0 0 0 0.870588 0 0 0 0 0.658824 0 0 0 1 0"/>
<feBlend mode="normal" in2="BackgroundImageFix" result="effect1_dropShadow"/>
<feColorMatrix in="SourceAlpha" type="matrix" values="0 0 0 0 0 0 0 0 0 0 0 0 0 0 0 0 0 0 127 0" result="hardAlpha"/>
<feOffset/>
<feGaussianBlur stdDeviation="10"/>
<feComposite in2="hardAlpha" operator="out"/>
<feColorMatrix type="matrix" values="0 0 0 0 0.129412 0 0 0 0 0.870588 0 0 0 0 0.658824 0 0 0 1 0"/>
<feBlend mode="normal" in2="effect1_dropShadow" result="effect2_dropShadow"/>
<feBlend mode="normal" in="SourceGraphic" in2="effect2_dropShadow" result="shape"/>
</filter>
<filter id="filter2_d" x="978.494" y="116.11" width="567.595" height="89.8911" filterUnits="userSpaceOnUse" color-interpolation-filters="sRGB">
<feFlood flood-opacity="0" result="BackgroundImageFix"/>
<feColorMatrix in="SourceAlpha" type="matrix" values="0 0 0 0 0 0 0 0 0 0 0 0 0 0 0 0 0 0 127 0" result="hardAlpha"/>
<feOffset/>
<feGaussianBlur stdDeviation="10"/>
<feComposite in2="hardAlpha" operator="out"/>
<feColorMatrix type="matrix" values="0 0 0 0 0.129412 0 0 0 0 0.870588 0 0 0 0 0.658824 0 0 0 1 0"/>
<feBlend mode="normal" in2="BackgroundImageFix" result="effect1_dropShadow"/>
<feBlend mode="normal" in="SourceGraphic" in2="effect1_dropShadow" result="shape"/>
</filter>
<filter id="filter3_di" x="520" y="79" width="141" height="141" filterUnits="userSpaceOnUse" color-interpolation-filters="sRGB">
<feFlood flood-opacity="0" result="BackgroundImageFix"/>
<feColorMatrix in="SourceAlpha" type="matrix" values="0 0 0 0 0 0 0 0 0 0 0 0 0 0 0 0 0 0 127 0" result="hardAlpha"/>
<feMorphology radius="5" operator="dilate" in="SourceAlpha" result="effect1_dropShadow"/>
<feOffset/>
<feGaussianBlur stdDeviation="25"/>
<feComposite in2="hardAlpha" operator="out"/>
<feColorMatrix type="matrix" values="0 0 0 0 0.129412 0 0 0 0 0.870588 0 0 0 0 0.658824 0 0 0 1 0"/>
<feBlend mode="normal" in2="BackgroundImageFix" result="effect1_dropShadow"/>
<feBlend mode="normal" in="SourceGraphic" in2="effect1_dropShadow" result="shape"/>
<feColorMatrix in="SourceAlpha" type="matrix" values="0 0 0 0 0 0 0 0 0 0 0 0 0 0 0 0 0 0 127 0" result="hardAlpha"/>
<feOffset/>
<feGaussianBlur stdDeviation="10"/>
<feComposite in2="hardAlpha" operator="arithmetic" k2="-1" k3="1"/>
<feColorMatrix type="matrix" values="0 0 0 0 0.129412 0 0 0 0 0.870588 0 0 0 0 0.658824 0 0 0 1 0"/>
<feBlend mode="normal" in2="shape" result="effect2_innerShadow"/>
</filter>
<filter id="filter4_di" x="907" y="157" width="141" height="141" filterUnits="userSpaceOnUse" color-interpolation-filters="sRGB">
<feFlood flood-opacity="0" result="BackgroundImageFix"/>
<feColorMatrix in="SourceAlpha" type="matrix" values="0 0 0 0 0 0 0 0 0 0 0 0 0 0 0 0 0 0 127 0" result="hardAlpha"/>
<feMorphology radius="5" operator="dilate" in="SourceAlpha" result="effect1_dropShadow"/>
<feOffset/>
<feGaussianBlur stdDeviation="25"/>
<feComposite in2="hardAlpha" operator="out"/>
<feColorMatrix type="matrix" values="0 0 0 0 0.129412 0 0 0 0 0.870588 0 0 0 0 0.658824 0 0 0 1 0"/>
<feBlend mode="normal" in2="BackgroundImageFix" result="effect1_dropShadow"/>
<feBlend mode="normal" in="SourceGraphic" in2="effect1_dropShadow" result="shape"/>
<feColorMatrix in="SourceAlpha" type="matrix" values="0 0 0 0 0 0 0 0 0 0 0 0 0 0 0 0 0 0 127 0" result="hardAlpha"/>
<feOffset/>
<feGaussianBlur stdDeviation="10"/>
<feComposite in2="hardAlpha" operator="arithmetic" k2="-1" k3="1"/>
<feColorMatrix type="matrix" values="0 0 0 0 0.129412 0 0 0 0 0.870588 0 0 0 0 0.658824 0 0 0 1 0"/>
<feBlend mode="normal" in2="shape" result="effect2_innerShadow"/>
</filter>
<filter id="filter5_di" x="1082" y="95" width="141" height="141" filterUnits="userSpaceOnUse" color-interpolation-filters="sRGB">
<feFlood flood-opacity="0" result="BackgroundImageFix"/>
<feColorMatrix in="SourceAlpha" type="matrix" values="0 0 0 0 0 0 0 0 0 0 0 0 0 0 0 0 0 0 127 0" result="hardAlpha"/>
<feMorphology radius="5" operator="dilate" in="SourceAlpha" result="effect1_dropShadow"/>
<feOffset/>
<feGaussianBlur stdDeviation="25"/>
<feComposite in2="hardAlpha" operator="out"/>
<feColorMatrix type="matrix" values="0 0 0 0 0.129412 0 0 0 0 0.870588 0 0 0 0 0.658824 0 0 0 1 0"/>
<feBlend mode="normal" in2="BackgroundImageFix" result="effect1_dropShadow"/>
<feBlend mode="normal" in="SourceGraphic" in2="effect1_dropShadow" result="shape"/>
<feColorMatrix in="SourceAlpha" type="matrix" values="0 0 0 0 0 0 0 0 0 0 0 0 0 0 0 0 0 0 127 0" result="hardAlpha"/>
<feOffset/>
<feGaussianBlur stdDeviation="10"/>
<feComposite in2="hardAlpha" operator="arithmetic" k2="-1" k3="1"/>
<feColorMatrix type="matrix" values="0 0 0 0 0.129412 0 0 0 0 0.870588 0 0 0 0 0.658824 0 0 0 1 0"/>
<feBlend mode="normal" in2="shape" result="effect2_innerShadow"/>
</filter>
<filter id="filter6_di" x="913" y="113" width="141" height="141" filterUnits="userSpaceOnUse" color-interpolation-filters="sRGB">
<feFlood flood-opacity="0" result="BackgroundImageFix"/>
<feColorMatrix in="SourceAlpha" type="matrix" values="0 0 0 0 0 0 0 0 0 0 0 0 0 0 0 0 0 0 127 0" result="hardAlpha"/>
<feMorphology radius="5" operator="dilate" in="SourceAlpha" result="effect1_dropShadow"/>
<feOffset/>
<feGaussianBlur stdDeviation="25"/>
<feComposite in2="hardAlpha" operator="out"/>
<feColorMatrix type="matrix" values="0 0 0 0 0.129412 0 0 0 0 0.870588 0 0 0 0 0.658824 0 0 0 1 0"/>
<feBlend mode="normal" in2="BackgroundImageFix" result="effect1_dropShadow"/>
<feBlend mode="normal" in="SourceGraphic" in2="effect1_dropShadow" result="shape"/>
<feColorMatrix in="SourceAlpha" type="matrix" values="0 0 0 0 0 0 0 0 0 0 0 0 0 0 0 0 0 0 127 0" result="hardAlpha"/>
<feOffset/>
<feGaussianBlur stdDeviation="10"/>
<feComposite in2="hardAlpha" operator="arithmetic" k2="-1" k3="1"/>
<feColorMatrix type="matrix" values="0 0 0 0 0.129412 0 0 0 0 0.870588 0 0 0 0 0.658824 0 0 0 1 0"/>
<feBlend mode="normal" in2="shape" result="effect2_innerShadow"/>
</filter>
<filter id="filter7_d" x="582.369" y="495.016" width="1184.21" height="176.044" filterUnits="userSpaceOnUse" color-interpolation-filters="sRGB">
<feFlood flood-opacity="0" result="BackgroundImageFix"/>
<feColorMatrix in="SourceAlpha" type="matrix" values="0 0 0 0 0 0 0 0 0 0 0 0 0 0 0 0 0 0 127 0" result="hardAlpha"/>
<feOffset dy="4"/>
<feGaussianBlur stdDeviation="10"/>
<feComposite in2="hardAlpha" operator="out"/>
<feColorMatrix type="matrix" values="0 0 0 0 0.129412 0 0 0 0 0.870588 0 0 0 0 0.658824 0 0 0 1 0"/>
<feBlend mode="normal" in2="BackgroundImageFix" result="effect1_dropShadow"/>
<feBlend mode="normal" in="SourceGraphic" in2="effect1_dropShadow" result="shape"/>
</filter>
<filter id="filter8_di" x="526" y="559" width="141" height="141" filterUnits="userSpaceOnUse" color-interpolation-filters="sRGB">
<feFlood flood-opacity="0" result="BackgroundImageFix"/>
<feColorMatrix in="SourceAlpha" type="matrix" values="0 0 0 0 0 0 0 0 0 0 0 0 0 0 0 0 0 0 127 0" result="hardAlpha"/>
<feMorphology radius="5" operator="dilate" in="SourceAlpha" result="effect1_dropShadow"/>
<feOffset/>
<feGaussianBlur stdDeviation="25"/>
<feComposite in2="hardAlpha" operator="out"/>
<feColorMatrix type="matrix" values="0 0 0 0 0.129412 0 0 0 0 0.870588 0 0 0 0 0.658824 0 0 0 1 0"/>
<feBlend mode="normal" in2="BackgroundImageFix" result="effect1_dropShadow"/>
<feBlend mode="normal" in="SourceGraphic" in2="effect1_dropShadow" result="shape"/>
<feColorMatrix in="SourceAlpha" type="matrix" values="0 0 0 0 0 0 0 0 0 0 0 0 0 0 0 0 0 0 127 0" result="hardAlpha"/>
<feOffset/>
<feGaussianBlur stdDeviation="10"/>
<feComposite in2="hardAlpha" operator="arithmetic" k2="-1" k3="1"/>
<feColorMatrix type="matrix" values="0 0 0 0 0.129412 0 0 0 0 0.870588 0 0 0 0 0.658824 0 0 0 1 0"/>
<feBlend mode="normal" in2="shape" result="effect2_innerShadow"/>
</filter>
<filter id="filter9_di" x="622" y="555" width="141" height="141" filterUnits="userSpaceOnUse" color-interpolation-filters="sRGB">
<feFlood flood-opacity="0" result="BackgroundImageFix"/>
<feColorMatrix in="SourceAlpha" type="matrix" values="0 0 0 0 0 0 0 0 0 0 0 0 0 0 0 0 0 0 127 0" result="hardAlpha"/>
<feMorphology radius="5" operator="dilate" in="SourceAlpha" result="effect1_dropShadow"/>
<feOffset/>
<feGaussianBlur stdDeviation="25"/>
<feComposite in2="hardAlpha" operator="out"/>
<feColorMatrix type="matrix" values="0 0 0 0 0.129412 0 0 0 0 0.870588 0 0 0 0 0.658824 0 0 0 1 0"/>
<feBlend mode="normal" in2="BackgroundImageFix" result="effect1_dropShadow"/>
<feBlend mode="normal" in="SourceGraphic" in2="effect1_dropShadow" result="shape"/>
<feColorMatrix in="SourceAlpha" type="matrix" values="0 0 0 0 0 0 0 0 0 0 0 0 0 0 0 0 0 0 127 0" result="hardAlpha"/>
<feOffset/>
<feGaussianBlur stdDeviation="10"/>
<feComposite in2="hardAlpha" operator="arithmetic" k2="-1" k3="1"/>
<feColorMatrix type="matrix" values="0 0 0 0 0.129412 0 0 0 0 0.870588 0 0 0 0 0.658824 0 0 0 1 0"/>
<feBlend mode="normal" in2="shape" result="effect2_innerShadow"/>
</filter>
<filter id="filter10_d" x="681.226" y="487.467" width="1085.39" height="174.52" filterUnits="userSpaceOnUse" color-interpolation-filters="sRGB">
<feFlood flood-opacity="0" result="BackgroundImageFix"/>
<feColorMatrix in="SourceAlpha" type="matrix" values="0 0 0 0 0 0 0 0 0 0 0 0 0 0 0 0 0 0 127 0" result="hardAlpha"/>
<feOffset/>
<feGaussianBlur stdDeviation="10"/>
<feComposite in2="hardAlpha" operator="out"/>
<feColorMatrix type="matrix" values="0 0 0 0 0.129412 0 0 0 0 0.870588 0 0 0 0 0.658824 0 0 0 1 0"/>
<feBlend mode="normal" in2="BackgroundImageFix" result="effect1_dropShadow"/>
<feBlend mode="normal" in="SourceGraphic" in2="effect1_dropShadow" result="shape"/>
</filter>
</defs>
</svg>
