<svg width="1526" height="1929" viewBox="0 0 1526 1929" fill="none" xmlns="http://www.w3.org/2000/svg">
<path d="M-1 -145H1552.74C1552.74 -145 1664.23 1179.32 1529.24 1583.59C1519.14 1613.84 1569.14 1543.33 1450.26 1583.59C1436.09 1588.39 1413.17 1471.31 1399.76 1475.15C1375.75 1482.04 1386.1 1470.9 1363.77 1475.15C1312.28 1444.4 1289.27 1419.51 1278.78 1475.15C1208.92 1485.49 1259.63 1473.5 1247.79 1475.15C1231.65 1477.4 1121.31 1285.78 1090.32 1528.02C1038.82 1636.46 992.5 1528.02 992.5 1528.02C1035.99 1548.28 913.384 1462.96 943.341 1583.59C863.354 1803.71 781.821 1717.39 700.882 1717.39C649.39 1914.85 482.072 1864.45 419.429 1789.69C274.884 1963.59 184.605 1981.87 -1 1803.71V-145Z" fill="url(#paint0_linear)"/>
<defs>
<linearGradient id="paint0_linear" x1="775.869" y1="-145" x2="775.869" y2="1900.83" gradientUnits="userSpaceOnUse">
<stop offset="0.723958" stop-color="#191919" stop-opacity="0.911111"/>
<stop offset="0.765625" stop-color="#191919"/>
<stop offset="1" stop-color="#191919" stop-opacity="0"/>
</linearGradient>
</defs>
</svg>
