<svg width="975" height="293" viewBox="0 0 975 293" fill="none" xmlns="http://www.w3.org/2000/svg">
<g filter="url(#filter0_d)">
<path d="M22.0001 21.888L22.0003 141.279L45.0003 178.779L250.25 178.779L277.5 227.781L355 227.781L415.5 178.779L861 178.779L893.5 212.281" stroke="#21DEA8" stroke-width="3"/>
</g>
<g filter="url(#filter1_d)">
<path d="M388.074 271.777L386.13 275.388H402.427L403.075 274.184L416.317 250.201L408.168 235.571L388.074 271.777ZM454.93 271.777L429.003 225.014L423.632 215.384L423.077 214.088H419.928L419.28 215.384L414.002 225.014L413.354 226.218L421.502 240.941L421.688 241.312L427.707 252.146L439.93 274.184L440.578 275.388H456.875L454.93 271.777ZM519.539 240.664C518.52 233.441 515.001 226.774 509.538 221.959C504.538 217.514 498.149 214.829 491.574 214.366L464.35 214.273V227.237H490C490.926 227.329 491.852 227.422 492.685 227.607C495.278 228.163 497.686 229.274 499.815 230.848C503.334 233.441 505.649 237.237 506.575 241.497C506.76 242.608 506.853 243.812 506.853 244.923C506.853 246.219 506.76 247.423 506.482 248.627C505.001 255.757 499.167 261.313 491.944 262.424H477.314V236.311H464.35V275.388H492.778H492.963C506.575 273.721 517.594 263.072 519.539 249.46C519.724 247.979 519.909 246.497 519.909 244.923C519.909 243.534 519.817 242.053 519.539 240.664ZM536.721 215.106L536.259 214.273H520.054L521.813 217.421L541.814 253.627L549.963 238.997L536.721 215.106ZM574.039 214.273L573.576 215.106L559.408 240.756L556.723 245.571L555.149 248.349L547 262.98L553.574 275.388H557.001L588.577 217.421L590.336 214.273H574.039ZM599.721 214.18V275.388H612.685V214.18H599.721ZM658.08 238.349H640.486C637.43 238.349 634.93 235.848 634.93 232.793C634.93 229.737 637.43 227.237 640.486 227.237H660.765C662.802 227.885 664.191 229.737 664.191 231.959H676.877C676.877 230.293 676.692 228.718 676.229 227.237C674.192 219.736 667.339 214.273 659.191 214.273H640.486C633.819 214.273 627.615 217.792 624.374 223.625C622.8 226.403 621.966 229.552 621.966 232.793C621.966 236.034 622.8 239.182 624.374 241.96C625.115 243.256 625.948 244.368 626.874 245.386C630.393 249.09 635.3 251.312 640.486 251.312H658.08C661.135 251.312 663.543 253.813 663.543 256.868C663.543 259.924 661.135 262.424 658.08 262.424H637.986C636.041 261.776 634.652 259.924 634.652 257.702H621.966C621.966 259.368 622.151 260.943 622.522 262.424C624.652 269.925 631.504 275.388 639.652 275.388H658.08C664.654 275.388 670.858 271.869 674.099 266.128C675.766 263.258 676.599 260.109 676.599 256.868C676.599 253.627 675.766 250.479 674.099 247.701C670.858 241.96 664.654 238.349 658.08 238.349ZM711.661 214.458C694.808 214.458 681.197 228.163 681.197 244.923C681.197 261.776 694.808 275.388 711.661 275.388C728.422 275.388 742.126 261.776 742.126 244.923C742.126 228.163 728.422 214.458 711.661 214.458ZM729.348 244.923C729.348 254.739 721.384 262.702 711.661 262.702C701.846 262.702 693.883 254.739 693.883 244.923C693.883 235.2 701.846 227.237 711.661 227.237C721.384 227.237 729.348 235.2 729.348 244.923ZM806.235 271.684L788.734 242.979C788.826 242.979 788.919 242.886 789.011 242.793L789.104 242.701C789.197 242.701 789.289 242.608 789.289 242.516C789.474 242.423 789.567 242.33 789.752 242.238C789.845 242.145 790.03 241.96 790.215 241.867C790.215 241.775 790.308 241.775 790.308 241.775C790.4 241.682 790.586 241.497 790.678 241.404C791.049 241.034 791.419 240.756 791.882 240.293C796.049 236.126 799.012 230.941 800.216 225.2C800.771 222.977 800.957 220.755 800.957 218.533C800.957 217.792 800.957 217.051 800.864 216.403L800.771 214.088H749.379V227.052H777.159H785.77C784.937 228.533 783.918 229.922 782.715 231.033C781.14 232.608 779.381 233.811 777.344 234.737C777.251 234.737 777.251 234.737 777.159 234.83C775.029 235.663 772.714 236.126 770.399 236.126H749.379V275.388H762.343V249.183H770.399C770.584 249.183 770.769 249.09 770.955 249.09H771.047H771.14H771.325C771.51 249.09 771.603 249.09 771.788 249.09C771.881 249.09 771.973 249.09 771.973 249.09C772.158 249.09 772.344 249.09 772.529 249.09H772.714L772.807 248.997C772.992 248.997 773.177 248.997 773.455 248.997C773.64 248.997 773.825 248.905 774.103 248.905C774.196 248.905 774.288 248.905 774.381 248.905C774.566 248.812 774.751 248.812 774.936 248.812C775.029 248.812 775.122 248.812 775.214 248.72C775.307 248.72 775.492 248.72 775.677 248.72C776.048 248.627 776.418 248.534 776.788 248.442L792.53 274.277L793.271 275.388H808.457L806.235 271.684ZM844.813 238.349H827.22C824.164 238.349 821.664 235.848 821.664 232.793C821.664 229.737 824.164 227.237 827.22 227.237H847.499C849.536 227.885 850.925 229.737 850.925 231.959H863.611C863.611 230.293 863.426 228.718 862.963 227.237C860.925 219.736 854.073 214.273 845.925 214.273H827.22C820.553 214.273 814.349 217.792 811.108 223.625C809.533 226.403 808.7 229.552 808.7 232.793C808.7 236.034 809.533 239.182 811.108 241.96C811.848 243.256 812.682 244.368 813.608 245.386C817.126 249.09 822.034 251.312 827.22 251.312H844.813C847.869 251.312 850.277 253.813 850.277 256.868C850.277 259.924 847.869 262.424 844.813 262.424H824.72C822.775 261.776 821.386 259.924 821.386 257.702H808.7C808.7 259.368 808.885 260.943 809.256 262.424C811.385 269.925 818.238 275.388 826.386 275.388H844.813C851.388 275.388 857.592 271.869 860.833 266.128C862.5 263.258 863.333 260.109 863.333 256.868C863.333 253.627 862.5 250.479 860.833 247.701C857.592 241.96 851.388 238.349 844.813 238.349Z" fill="#21DEA8"/>
</g>
<g filter="url(#filter2_di)">
<circle cx="904.5" cy="221.888" r="14" stroke="#F7D662" stroke-width="3" shape-rendering="crispEdges"/>
</g>
<defs>
<filter id="filter0_d" x="0.276367" y="0.254883" width="914.333" height="249.652" filterUnits="userSpaceOnUse" color-interpolation-filters="sRGB">
<feFlood flood-opacity="0" result="BackgroundImageFix"/>
<feColorMatrix in="SourceAlpha" type="matrix" values="0 0 0 0 0 0 0 0 0 0 0 0 0 0 0 0 0 0 127 0" result="hardAlpha"/>
<feOffset/>
<feGaussianBlur stdDeviation="10"/>
<feComposite in2="hardAlpha" operator="out"/>
<feColorMatrix type="matrix" values="0 0 0 0 0.129412 0 0 0 0 0.870588 0 0 0 0 0.658824 0 0 0 1 0"/>
<feBlend mode="normal" in2="BackgroundImageFix" result="effect1_dropShadow"/>
<feBlend mode="normal" in="SourceGraphic" in2="effect1_dropShadow" result="shape"/>
</filter>
<filter id="filter1_d" x="381.448" y="214.088" width="486.844" height="70.663" filterUnits="userSpaceOnUse" color-interpolation-filters="sRGB">
<feFlood flood-opacity="0" result="BackgroundImageFix"/>
<feColorMatrix in="SourceAlpha" type="matrix" values="0 0 0 0 0 0 0 0 0 0 0 0 0 0 0 0 0 0 127 0" result="hardAlpha"/>
<feOffset dy="4.68148"/>
<feGaussianBlur stdDeviation="2.34074"/>
<feComposite in2="hardAlpha" operator="out"/>
<feColorMatrix type="matrix" values="0 0 0 0 0 0 0 0 0 0 0 0 0 0 0 0 0 0 0.25 0"/>
<feBlend mode="normal" in2="BackgroundImageFix" result="effect1_dropShadow"/>
<feBlend mode="normal" in="SourceGraphic" in2="effect1_dropShadow" result="shape"/>
</filter>
<filter id="filter2_di" x="834" y="151.388" width="141" height="141" filterUnits="userSpaceOnUse" color-interpolation-filters="sRGB">
<feFlood flood-opacity="0" result="BackgroundImageFix"/>
<feColorMatrix in="SourceAlpha" type="matrix" values="0 0 0 0 0 0 0 0 0 0 0 0 0 0 0 0 0 0 127 0" result="hardAlpha"/>
<feMorphology radius="5" operator="dilate" in="SourceAlpha" result="effect1_dropShadow"/>
<feOffset/>
<feGaussianBlur stdDeviation="25"/>
<feComposite in2="hardAlpha" operator="out"/>
<feColorMatrix type="matrix" values="0 0 0 0 0.129412 0 0 0 0 0.870588 0 0 0 0 0.658824 0 0 0 1 0"/>
<feBlend mode="normal" in2="BackgroundImageFix" result="effect1_dropShadow"/>
<feBlend mode="normal" in="SourceGraphic" in2="effect1_dropShadow" result="shape"/>
<feColorMatrix in="SourceAlpha" type="matrix" values="0 0 0 0 0 0 0 0 0 0 0 0 0 0 0 0 0 0 127 0" result="hardAlpha"/>
<feOffset/>
<feGaussianBlur stdDeviation="10"/>
<feComposite in2="hardAlpha" operator="arithmetic" k2="-1" k3="1"/>
<feColorMatrix type="matrix" values="0 0 0 0 0.129412 0 0 0 0 0.870588 0 0 0 0 0.658824 0 0 0 1 0"/>
<feBlend mode="normal" in2="shape" result="effect2_innerShadow"/>
</filter>
</defs>
</svg>
