<svg width="1526" height="1193" viewBox="0 0 1526 1193" fill="none" xmlns="http://www.w3.org/2000/svg">
<g filter="url(#filter0_d)">
<path d="M-49.0429 670.043L164.13 670.043L207.397 617.757L361.471 617.757L395.347 676.098L801.564 676.098" stroke="#21DEA8" stroke-width="3"/>
</g>
<mask id="path-2-inside-1" fill="white">
<path d="M800.704 248.887C761.546 290.907 733.155 342.008 718.045 397.664C702.934 453.32 701.571 511.813 714.076 567.961C726.581 624.109 752.568 676.18 789.736 719.561C826.903 762.942 874.103 796.294 927.155 816.663C980.207 837.032 1037.47 843.789 1093.88 836.336C1150.29 828.882 1204.1 807.448 1250.54 773.932C1296.99 740.417 1334.63 695.854 1360.14 644.191C1385.65 592.528 1398.24 535.36 1396.79 477.75L1358.86 478.962C1360.15 530.248 1348.94 581.14 1326.23 627.131C1303.52 673.123 1270.01 712.794 1228.67 742.63C1187.32 772.466 1139.42 791.547 1089.2 798.183C1038.99 804.818 988.007 798.803 940.779 780.67C893.551 762.537 851.532 732.846 818.445 694.228C785.358 655.609 762.224 609.254 751.091 559.27C739.959 509.285 741.173 457.214 754.624 407.668C768.076 358.122 793.35 312.63 828.209 275.223L800.704 248.887Z"/>
</mask>
<path d="M800.704 248.887C761.546 290.907 733.155 342.008 718.045 397.664C702.934 453.32 701.571 511.813 714.076 567.961C726.581 624.109 752.568 676.18 789.736 719.561C826.903 762.942 874.103 796.294 927.155 816.663C980.207 837.032 1037.47 843.789 1093.88 836.336C1150.29 828.882 1204.1 807.448 1250.54 773.932C1296.99 740.417 1334.63 695.854 1360.14 644.191C1385.65 592.528 1398.24 535.36 1396.79 477.75L1358.86 478.962C1360.15 530.248 1348.94 581.14 1326.23 627.131C1303.52 673.123 1270.01 712.794 1228.67 742.63C1187.32 772.466 1139.42 791.547 1089.2 798.183C1038.99 804.818 988.007 798.803 940.779 780.67C893.551 762.537 851.532 732.846 818.445 694.228C785.358 655.609 762.224 609.254 751.091 559.27C739.959 509.285 741.173 457.214 754.624 407.668C768.076 358.122 793.35 312.63 828.209 275.223L800.704 248.887Z" stroke="url(#paint0_linear)" stroke-opacity="0.3" stroke-width="58.4526" mask="url(#path-2-inside-1)"/>
<mask id="path-3-inside-2" fill="white">
<path d="M765.692 524.086C756.256 449.486 775.585 374.069 819.633 313.624C863.681 253.179 929.032 212.392 1002.01 199.803C1074.98 187.215 1149.91 203.8 1211.13 246.086C1272.34 288.373 1315.08 353.082 1330.4 426.667L1326.01 427.61C1310.93 355.176 1268.86 291.479 1208.61 249.854C1148.35 208.229 1074.59 191.903 1002.76 204.295C930.924 216.687 866.595 256.835 823.236 316.335C779.877 375.835 760.85 450.072 770.139 523.505L765.692 524.086Z"/>
</mask>
<path d="M765.692 524.086C756.256 449.486 775.585 374.069 819.633 313.624C863.681 253.179 929.032 212.392 1002.01 199.803C1074.98 187.215 1149.91 203.8 1211.13 246.086C1272.34 288.373 1315.08 353.082 1330.4 426.667L1326.01 427.61C1310.93 355.176 1268.86 291.479 1208.61 249.854C1148.35 208.229 1074.59 191.903 1002.76 204.295C930.924 216.687 866.595 256.835 823.236 316.335C779.877 375.835 760.85 450.072 770.139 523.505L765.692 524.086Z" stroke="#9058FD" stroke-width="4.49635" mask="url(#path-3-inside-2)"/>
<path d="M912.788 285.248C940.223 263.613 971.933 248.267 1005.74 240.255C1039.55 232.243 1074.66 231.756 1108.66 238.823C1142.66 245.89 1174.76 260.345 1202.75 281.196C1230.74 302.048 1253.97 328.806 1270.83 359.639" stroke="#21DEA8" stroke-width="11.2409" stroke-dasharray="2.25 11.24"/>
<ellipse cx="643.06" cy="648.769" rx="11.3217" ry="11.5048" fill="#875FF4"/>
<path d="M-39.1982 614.255H142.42L202.475 676.281H340.797L375.254 645.268H644.023" stroke="#9158FD"/>
<path d="M798.497 669.962C700.732 529.51 733.929 334.828 872.64 235.127C1011.35 135.426 1203.05 168.457 1300.82 308.909C1398.59 449.362 1365.39 644.043 1226.68 743.744C1087.97 843.445 896.263 810.414 798.497 669.962Z" stroke="#21DDA7" stroke-width="2.24818"/>
<path d="M957.837 861.08C1033.33 885.249 1114.71 882.241 1188.27 852.561C1261.83 822.881 1323.08 768.343 1361.7 698.136L1303.59 665.133C1272.44 721.761 1223.04 765.75 1163.71 789.689C1104.37 813.628 1038.73 816.055 977.842 796.56L957.837 861.08Z" fill="#9058FD" fill-opacity="0.44"/>
<g filter="url(#filter1_d)">
<path d="M198.35 282H216.13V253.679L198.35 235.899V282ZM269.978 197.545L236.323 231.2L219.686 214.563L202.668 197.545H198.35V218.373L216.13 236.153L224.385 244.408L236.323 256.346L238.736 254.06L241.911 250.758L242.927 249.742L246.61 246.186L256.008 236.661V282H273.788V197.545H269.978ZM286.779 198.18V201.482V215.96H361.709V198.18H286.779ZM304.559 246.186H354.216V228.406H304.559L286.779 228.279V264.22V267.522V282H361.709V264.22H304.559V246.186ZM374.463 198.18V201.482V215.96H449.393V198.18H374.463ZM392.243 246.186H441.9V228.406H392.243L374.463 228.279V264.22V267.522V282H449.393V264.22H392.243V246.186ZM508.122 282V228.406H490.342V282H508.122ZM462.148 198.18V215.96H490.342H508.122H537.713V198.18H462.148ZM244.324 407V353.406H226.544V407H244.324ZM198.35 323.18V340.96H226.544H244.324H273.915V323.18H198.35ZM343.043 323.307V353.533H304.435V323.307H286.655V407H304.435V371.44H343.043V407H360.823V323.307H343.043ZM373.719 323.18V326.482V340.96H448.649V323.18H373.719ZM391.499 371.186H441.156V353.406H391.499L373.719 353.279V389.22V392.522V407H448.649V389.22H391.499V371.186ZM244.324 532V478.406H226.544V532H244.324ZM198.35 448.18V465.96H226.544H244.324H273.915V448.18H198.35ZM286.655 448.18V451.482V465.96H361.585V448.18H286.655ZM304.435 496.186H354.092V478.406H304.435L286.655 478.279V514.22V517.522V532H361.585V514.22H304.435V496.186ZM374.154 527.047L371.487 532H393.839L394.728 530.349L412.889 497.456L401.713 477.39L374.154 527.047ZM465.848 527.047L430.288 462.912L422.922 449.704L422.16 447.926H417.842L416.953 449.704L409.714 462.912L408.825 464.563L420.001 484.756L420.255 485.264L428.51 500.123L445.274 530.349L446.163 532H468.515L465.848 527.047ZM478.767 532H496.547V503.679L478.767 485.899V532ZM550.395 447.545L516.74 481.2L500.103 464.563L483.085 447.545H478.767V468.373L496.547 486.153L504.802 494.408L516.74 506.346L519.153 504.06L522.328 500.758L523.344 499.742L527.027 496.186L536.425 486.661V532H554.205V447.545H550.395Z" fill="#21DEA8"/>
</g>
<g filter="url(#filter2_d)">
<path d="M9 695.5L41.0009 695.5L75.0009 738.5L148 738.5L148 1082.22L171 1119.72L581.5 1119.72" stroke="#21DEA8" stroke-width="3"/>
</g>
<g filter="url(#filter3_d)">
<path d="M243.111 1047.33C242.24 1041.16 239.234 1035.46 234.566 1031.35C230.294 1027.55 224.834 1025.26 219.217 1024.86L195.956 1024.78V1035.86H217.872C218.663 1035.94 219.454 1036.02 220.166 1036.17C222.382 1036.65 224.439 1037.6 226.258 1038.94C229.265 1041.16 231.243 1044.4 232.034 1048.04C232.192 1048.99 232.271 1050.02 232.271 1050.97C232.271 1052.08 232.192 1053.11 231.955 1054.13C230.689 1060.23 225.705 1064.97 219.533 1065.92H207.033V1043.61H195.956V1077H220.245H220.404C232.034 1075.58 241.449 1066.48 243.111 1054.85C243.269 1053.58 243.427 1052.31 243.427 1050.97C243.427 1049.78 243.348 1048.52 243.111 1047.33ZM299.933 1073.84L284.98 1049.31C285.059 1049.31 285.138 1049.23 285.217 1049.15L285.297 1049.07C285.376 1049.07 285.455 1048.99 285.455 1048.91C285.613 1048.83 285.692 1048.75 285.85 1048.68C285.929 1048.6 286.088 1048.44 286.246 1048.36C286.246 1048.28 286.325 1048.28 286.325 1048.28C286.404 1048.2 286.562 1048.04 286.642 1047.96C286.958 1047.65 287.274 1047.41 287.67 1047.01C291.23 1043.45 293.762 1039.02 294.791 1034.12C295.265 1032.22 295.424 1030.32 295.424 1028.42C295.424 1027.79 295.424 1027.16 295.345 1026.6L295.265 1024.62H251.355V1035.7H275.09H282.448C281.736 1036.97 280.866 1038.15 279.837 1039.1C278.492 1040.45 276.989 1041.48 275.248 1042.27C275.169 1042.27 275.169 1042.27 275.09 1042.35C273.27 1043.06 271.292 1043.45 269.315 1043.45H251.355V1077H262.431V1054.61H269.315C269.473 1054.61 269.631 1054.53 269.789 1054.53H269.868H269.947H270.106C270.264 1054.53 270.343 1054.53 270.501 1054.53C270.58 1054.53 270.66 1054.53 270.66 1054.53C270.818 1054.53 270.976 1054.53 271.134 1054.53H271.292L271.372 1054.45C271.53 1054.45 271.688 1054.45 271.925 1054.45C272.084 1054.45 272.242 1054.37 272.479 1054.37C272.558 1054.37 272.638 1054.37 272.717 1054.37C272.875 1054.29 273.033 1054.29 273.191 1054.29C273.27 1054.29 273.35 1054.29 273.429 1054.21C273.508 1054.21 273.666 1054.21 273.824 1054.21C274.141 1054.13 274.457 1054.06 274.774 1053.98L288.224 1076.05L288.857 1077H301.832L299.933 1073.84ZM341.263 1024.62L340.63 1025.49L328.92 1041.48L317.21 1025.49L316.577 1024.62H302.89L305.264 1027.95L322.432 1051.37L322.907 1052.08H322.986V1052.16L323.382 1052.71V1077H334.458V1052.63L334.854 1052.16V1052.08H334.933L335.408 1051.37L352.577 1027.95L354.95 1024.62H341.263ZM408.152 1065.92V1024.39H397.075V1077H438.613V1065.92H408.152ZM446.486 1073.91L444.825 1077H458.75L459.303 1075.97L470.617 1055.48L463.655 1042.98L446.486 1073.91ZM503.61 1073.91L481.457 1033.96L476.868 1025.73L476.393 1024.62H473.703L473.149 1025.73L468.639 1033.96L468.086 1034.99L475.048 1047.57L475.206 1047.88L480.349 1057.14L490.793 1075.97L491.347 1077H505.271L503.61 1073.91ZM524.512 1056.51H545.637C547.852 1056.98 549.355 1058.96 549.355 1061.18C549.355 1063.31 547.852 1065.21 545.795 1065.77H524.512V1056.51ZM558.454 1053.42C557.584 1051.84 556.476 1050.42 555.131 1049.23C554.973 1049.07 554.736 1048.91 554.577 1048.75C554.656 1048.68 554.736 1048.52 554.815 1048.36C554.815 1048.28 554.815 1048.28 554.894 1048.2C556.16 1045.91 556.872 1043.22 556.872 1040.45C556.872 1037.76 556.16 1035.15 554.894 1032.77C554.894 1032.69 554.815 1032.61 554.736 1032.54C551.966 1027.63 546.665 1024.62 540.969 1024.62H513.436V1035.86H524.512H542.235C544.292 1036.41 545.795 1038.31 545.795 1040.45C545.795 1042.74 544.134 1044.72 541.918 1045.19H513.436V1077H540.969C541.602 1077 542.156 1077 542.789 1076.92C543.422 1077 543.975 1077 544.608 1077C550.384 1077 555.685 1073.91 558.454 1068.85C559.799 1066.56 560.511 1063.87 560.511 1061.18C560.511 1058.41 559.799 1055.8 558.454 1053.42Z" fill="#21DEA8"/>
</g>
<g filter="url(#filter4_di)">
<circle cx="597.5" cy="1122.5" r="14" stroke="#F7D662" stroke-width="3" shape-rendering="crispEdges"/>
</g>
<defs>
<filter id="filter0_d" x="-69.0435" y="596.257" width="890.608" height="101.341" filterUnits="userSpaceOnUse" color-interpolation-filters="sRGB">
<feFlood flood-opacity="0" result="BackgroundImageFix"/>
<feColorMatrix in="SourceAlpha" type="matrix" values="0 0 0 0 0 0 0 0 0 0 0 0 0 0 0 0 0 0 127 0" result="hardAlpha"/>
<feOffset/>
<feGaussianBlur stdDeviation="10"/>
<feComposite in2="hardAlpha" operator="out"/>
<feColorMatrix type="matrix" values="0 0 0 0 0.129412 0 0 0 0 0.870588 0 0 0 0 0.658824 0 0 0 1 0"/>
<feBlend mode="normal" in2="BackgroundImageFix" result="effect1_dropShadow"/>
<feBlend mode="normal" in="SourceGraphic" in2="effect1_dropShadow" result="shape"/>
</filter>
<filter id="filter1_d" x="194.35" y="197.545" width="363.855" height="342.455" filterUnits="userSpaceOnUse" color-interpolation-filters="sRGB">
<feFlood flood-opacity="0" result="BackgroundImageFix"/>
<feColorMatrix in="SourceAlpha" type="matrix" values="0 0 0 0 0 0 0 0 0 0 0 0 0 0 0 0 0 0 127 0" result="hardAlpha"/>
<feOffset dy="4"/>
<feGaussianBlur stdDeviation="2"/>
<feComposite in2="hardAlpha" operator="out"/>
<feColorMatrix type="matrix" values="0 0 0 0 0 0 0 0 0 0 0 0 0 0 0 0 0 0 0.25 0"/>
<feBlend mode="normal" in2="BackgroundImageFix" result="effect1_dropShadow"/>
<feBlend mode="normal" in="SourceGraphic" in2="effect1_dropShadow" result="shape"/>
</filter>
<filter id="filter2_d" x="-11.0056" y="672.931" width="612.511" height="469.354" filterUnits="userSpaceOnUse" color-interpolation-filters="sRGB">
<feFlood flood-opacity="0" result="BackgroundImageFix"/>
<feColorMatrix in="SourceAlpha" type="matrix" values="0 0 0 0 0 0 0 0 0 0 0 0 0 0 0 0 0 0 127 0" result="hardAlpha"/>
<feOffset/>
<feGaussianBlur stdDeviation="10"/>
<feComposite in2="hardAlpha" operator="out"/>
<feColorMatrix type="matrix" values="0 0 0 0 0.129412 0 0 0 0 0.870588 0 0 0 0 0.658824 0 0 0 1 0"/>
<feBlend mode="normal" in2="BackgroundImageFix" result="effect1_dropShadow"/>
<feBlend mode="normal" in="SourceGraphic" in2="effect1_dropShadow" result="shape"/>
</filter>
<filter id="filter3_d" x="191.956" y="1024.39" width="372.555" height="60.614" filterUnits="userSpaceOnUse" color-interpolation-filters="sRGB">
<feFlood flood-opacity="0" result="BackgroundImageFix"/>
<feColorMatrix in="SourceAlpha" type="matrix" values="0 0 0 0 0 0 0 0 0 0 0 0 0 0 0 0 0 0 127 0" result="hardAlpha"/>
<feOffset dy="4"/>
<feGaussianBlur stdDeviation="2"/>
<feComposite in2="hardAlpha" operator="out"/>
<feColorMatrix type="matrix" values="0 0 0 0 0 0 0 0 0 0 0 0 0 0 0 0 0 0 0.25 0"/>
<feBlend mode="normal" in2="BackgroundImageFix" result="effect1_dropShadow"/>
<feBlend mode="normal" in="SourceGraphic" in2="effect1_dropShadow" result="shape"/>
</filter>
<filter id="filter4_di" x="527" y="1052" width="141" height="141" filterUnits="userSpaceOnUse" color-interpolation-filters="sRGB">
<feFlood flood-opacity="0" result="BackgroundImageFix"/>
<feColorMatrix in="SourceAlpha" type="matrix" values="0 0 0 0 0 0 0 0 0 0 0 0 0 0 0 0 0 0 127 0" result="hardAlpha"/>
<feMorphology radius="5" operator="dilate" in="SourceAlpha" result="effect1_dropShadow"/>
<feOffset/>
<feGaussianBlur stdDeviation="25"/>
<feComposite in2="hardAlpha" operator="out"/>
<feColorMatrix type="matrix" values="0 0 0 0 0.129412 0 0 0 0 0.870588 0 0 0 0 0.658824 0 0 0 1 0"/>
<feBlend mode="normal" in2="BackgroundImageFix" result="effect1_dropShadow"/>
<feBlend mode="normal" in="SourceGraphic" in2="effect1_dropShadow" result="shape"/>
<feColorMatrix in="SourceAlpha" type="matrix" values="0 0 0 0 0 0 0 0 0 0 0 0 0 0 0 0 0 0 127 0" result="hardAlpha"/>
<feOffset/>
<feGaussianBlur stdDeviation="10"/>
<feComposite in2="hardAlpha" operator="arithmetic" k2="-1" k3="1"/>
<feColorMatrix type="matrix" values="0 0 0 0 0.129412 0 0 0 0 0.870588 0 0 0 0 0.658824 0 0 0 1 0"/>
<feBlend mode="normal" in2="shape" result="effect2_innerShadow"/>
</filter>
<linearGradient id="paint0_linear" x1="1250.01" y1="774.319" x2="843.964" y2="209.402" gradientUnits="userSpaceOnUse">
<stop stop-color="#1EC8F1"/>
<stop offset="0.479167" stop-color="#21DDA7"/>
</linearGradient>
</defs>
</svg>
