<svg width="1526" height="3592" viewBox="0 0 1526 3592" fill="none" xmlns="http://www.w3.org/2000/svg">
<g filter="url(#filter0_d)">
<path d="M-13.5 670.001L44.9999 670.001L66.0001 734.5L244.5 734.5L292.5 700L531 701.001L642.5 758.5L1421 758.5L1479 801.5L1479 1452L1424.5 1517.5L818 1517.5L737.5 1602L737.5 2049L1437 2049L1497.5 2120L1497.5 2265L1437 2309.5L95.5 2309.5L45 2378.5L45 3571.5" stroke="#21DEA8" stroke-width="3"/>
</g>
<g filter="url(#filter1_di)">
<path d="M-0.00215764 171.5L459.5 171.5L499.5 213L630 213L712 129.5L1019 129.5L1057 166.569L1137 166.569" stroke="#21DEA8" stroke-width="3"/>
</g>
<g filter="url(#filter2_dd)">
<path d="M1526.06 120.496L1506.5 120.496L1440.5 198.5L1295.5 198.5L1250.5 150.5L605.5 150.5" stroke="#21DEA8" stroke-width="3"/>
</g>
<g filter="url(#filter3_d)">
<path d="M1526 183.5L1506 183.5L1467 138.5L1291 138.5L1240.5 183.5L998.5 183.5" stroke="#21DEA8" stroke-width="3"/>
</g>
<path d="M0 187.5H249L278.5 216H400.5L428 187.5" stroke="#9158FD"/>
<path d="M0.055633 154.503L235.5 154.503L261.5 127.5L464 127.5L524 189L750 189L782.5 159L884.5 159L953 218.5L1063.5 218.5L1147.5 127.5" stroke="#9158FD"/>
<path d="M-0.0015867 112.5L131 111.51L155.5 139.5L209 139.5L236 112.5L306.998 111.51" stroke="#9158FD"/>
<path d="M1541.7 180.587L1385.7 180.587L1299.7 270.087L1179.2 270.087L1119.74 209.586" stroke="#9158FD"/>
<g filter="url(#filter4_di)">
<circle cx="590.5" cy="149.5" r="14" stroke="#21DEA8" stroke-width="3" shape-rendering="crispEdges"/>
</g>
<circle cx="313.5" cy="111.5" r="11.5" fill="#875FF4"/>
<path d="M5.73669 654H41.2367L102.237 716H242.737L287.237 674.5" stroke="#9158FD"/>
<path d="M5.19426 750.002L37.2367 750.002L106.237 680L248.737 680L282.237 720.002L357.194 720.002" stroke="#9158FD"/>
<path d="M5.23669 767H85.2367L106.237 746H175.237L193.237 767H556.238" stroke="#9158FD"/>
<circle cx="563.737" cy="768" r="11.5" fill="#875FF4"/>
<circle cx="292.737" cy="666" r="11.5" fill="#875FF4"/>
<circle cx="357.737" cy="717" r="11.5" fill="#875FF4"/>
<circle cx="428.5" cy="187.5" r="11.5" fill="#875FF4"/>
<circle cx="1150.5" cy="123.5" r="11.5" fill="#875FF4"/>
<circle cx="1114.5" cy="200.5" r="11.5" fill="#875FF4"/>
<g filter="url(#filter5_di)">
<circle cx="977.5" cy="227.5" r="14" stroke="#21DEA8" stroke-width="3" shape-rendering="crispEdges"/>
</g>
<g filter="url(#filter6_di)">
<circle cx="1152.5" cy="165.5" r="14" stroke="#21DEA8" stroke-width="3" shape-rendering="crispEdges"/>
</g>
<g filter="url(#filter7_di)">
<circle cx="983.5" cy="183.5" r="14" stroke="#21DEA8" stroke-width="3" shape-rendering="crispEdges"/>
</g>
<path d="M1527.19 84.1974L1332.66 84.1974L1252.16 138.197L840.194 138.197" stroke="#9158FD"/>
<path d="M1526.06 161.496L1282.5 161.496L1221 227.496L993.061 227.496" stroke="#21DEA8"/>
<g filter="url(#filter8_d)">
<path d="M1746.01 596.5L1511.5 596.5L1476.5 629.5L1284 629.5L1222 562L992 562L953 596.5L858 596.5L802 532L686.5 532L605.009 617.5" stroke="#21DEA8" stroke-width="3"/>
</g>
<path d="M1754.46 574.94L1654.46 574.94L1617.96 534.315L1489.46 534.315L1467.46 504.314L1226.96 504.314L1199.96 522.315L969.957 522.315L912.457 574.94" stroke="#9158FD"/>
<path d="M1746.04 498.498L1601 498.498L1520.5 588L1396 588L1333.04 530.498" stroke="#9158FD"/>
<g filter="url(#filter9_di)">
<circle cx="596.5" cy="629.5" r="14" stroke="#21DEA8" stroke-width="3" shape-rendering="crispEdges"/>
</g>
<g filter="url(#filter10_di)">
<circle cx="692.5" cy="625.5" r="14" stroke="#21DEA8" stroke-width="3" shape-rendering="crispEdges"/>
</g>
<circle cx="909.5" cy="575.5" r="11.5" fill="#875FF4"/>
<circle cx="1331.5" cy="530.5" r="11.5" fill="#875FF4"/>
<g filter="url(#filter11_d)">
<path d="M1745.68 572.935L1291.66 572.935L1256.66 539.935L1120.16 539.935L1044.66 623.588L704.5 623.588" stroke="#21DEA8" stroke-width="3"/>
</g>
<rect x="126.506" y="2099.75" width="84.143" height="112.398" stroke="#9158FD" stroke-width="1.49864"/>
<path d="M158.678 2158.71C154.122 2158.71 151.445 2155.12 151.445 2149C151.445 2142.85 154.122 2139.29 158.678 2139.29C161.955 2139.29 163.554 2140.69 164.593 2143.41H169.908C169.149 2137.61 164.273 2134.66 158.558 2134.66C151.085 2134.66 145.85 2139.65 145.85 2149C145.85 2158.35 151.085 2163.35 158.558 2163.35C164.313 2163.35 169.229 2160.39 169.988 2154.52H164.673C163.634 2157.32 161.995 2158.71 158.678 2158.71ZM191.967 2153.2C191.967 2145.09 187.371 2142.01 182.256 2142.01C177.38 2142.01 172.145 2145.09 172.145 2152.68C172.145 2160.23 177.38 2163.27 182.216 2163.27C187.011 2163.27 190.049 2161.39 191.367 2157.4H186.851C186.092 2158.75 184.773 2159.43 182.495 2159.43C179.378 2159.43 177.46 2157.92 177.06 2154.24H191.927C191.967 2153.88 191.967 2153.56 191.967 2153.2ZM177.06 2151.04C177.5 2147.56 179.418 2145.85 182.256 2145.85C185.253 2145.85 187.011 2147.8 187.091 2151.04H177.06Z" fill="#9158FD"/>
<path d="M140.496 2109.66C139.522 2109.66 138.71 2110.06 138.273 2110.64L138.76 2107.41H142.594V2106.81H138.261L137.586 2111.27H138.298C138.835 2110.61 139.472 2110.26 140.384 2110.26C141.62 2110.26 142.607 2111.13 142.607 2112.66C142.607 2114.21 141.658 2115.06 140.321 2115.06C138.923 2115.06 138.048 2114.18 138.011 2112.96H137.337C137.374 2114.51 138.448 2115.68 140.321 2115.68C142.145 2115.68 143.331 2114.52 143.331 2112.66C143.331 2110.77 142.045 2109.66 140.496 2109.66ZM149.112 2106.81H143.955V2107.44H148.401C146.727 2110.02 145.641 2112.73 145.191 2115.56H145.94C146.352 2112.76 147.451 2110.02 149.112 2107.44V2106.81Z" fill="#9158FD"/>
<path d="M156.316 2184.55C154.938 2184.55 153.899 2183.57 153.899 2181.52C153.899 2179.45 154.938 2178.48 156.316 2178.48C157.365 2178.48 158.025 2178.94 158.295 2179.65H158.924C158.634 2178.56 157.635 2177.93 156.306 2177.93C154.578 2177.93 153.269 2179.1 153.269 2181.52C153.269 2183.93 154.578 2185.1 156.306 2185.1C157.645 2185.1 158.654 2184.47 158.954 2183.38H158.325C158.045 2184.09 157.375 2184.55 156.316 2184.55ZM164.176 2182.41C164.176 2180.63 163.157 2179.77 161.908 2179.77C160.679 2179.77 159.54 2180.63 159.54 2182.43C159.54 2184.2 160.609 2185.08 161.938 2185.08C162.907 2185.08 163.547 2184.76 163.996 2183.95H163.427C163.057 2184.45 162.638 2184.61 161.968 2184.61C160.949 2184.61 160.2 2184.02 160.13 2182.66H164.166C164.176 2182.57 164.176 2182.49 164.176 2182.41ZM160.13 2182.22C160.2 2180.87 160.989 2180.24 161.908 2180.24C162.887 2180.24 163.597 2180.91 163.617 2182.22H160.13ZM167.565 2179.77C166.516 2179.77 165.867 2180.43 165.707 2181.15V2179.82H165.117V2185.01H165.707V2181.89C165.897 2180.92 166.546 2180.31 167.605 2180.31C167.685 2180.31 167.775 2180.31 167.905 2180.32V2179.79C167.775 2179.77 167.675 2179.77 167.565 2179.77ZM168.786 2177.93V2178.56H169.375V2177.93H168.786ZM168.786 2179.82V2185.01H169.375V2179.82H168.786ZM174.268 2179.82V2183.1C174.148 2183.63 173.599 2184.57 172.53 2184.57C171.661 2184.57 171.101 2184.17 171.101 2182.97V2179.82H170.512V2182.98C170.512 2184.56 171.331 2185.08 172.36 2185.08C173.529 2185.08 174.168 2184.13 174.268 2183.75V2185.01H174.858V2179.82H174.268ZM182.04 2179.77C181.021 2179.77 180.351 2180.51 180.142 2181.08C179.912 2180.11 179.232 2179.77 178.453 2179.77C177.344 2179.77 176.725 2180.71 176.625 2181.09V2179.82H176.035V2185.01H176.625V2181.77C176.735 2181.23 177.274 2180.28 178.313 2180.28C179.093 2180.28 179.632 2180.69 179.632 2181.89V2185.01H180.222V2181.85C180.222 2181.23 180.851 2180.28 181.9 2180.28C182.699 2180.28 183.219 2180.69 183.219 2181.89V2185.01H183.808V2181.86C183.808 2180.3 183.019 2179.77 182.04 2179.77Z" fill="#9158FD"/>
<path d="M148.979 2192.62H148.39C148.27 2193.07 147.79 2193.5 147.181 2193.55V2194.05C147.761 2194.03 148.19 2193.72 148.39 2193.48V2199.61H148.979V2192.62ZM153.385 2195.81C154.184 2195.57 154.584 2195 154.584 2194.3C154.584 2193.33 153.795 2192.53 152.466 2192.53C151.167 2192.53 150.328 2193.3 150.328 2194.79H150.887C150.887 2193.58 151.567 2193.05 152.466 2193.05C153.395 2193.05 154.015 2193.57 154.015 2194.32C154.015 2194.97 153.595 2195.63 152.366 2195.63H152.146V2196.07H152.366C153.625 2196.07 154.394 2196.64 154.394 2197.63C154.394 2198.61 153.595 2199.2 152.496 2199.2C151.377 2199.2 150.658 2198.5 150.628 2197.4H150.068C150.078 2198.78 150.977 2199.73 152.506 2199.73C154.015 2199.73 154.984 2198.88 154.984 2197.64C154.984 2196.54 154.194 2195.96 153.385 2195.81ZM159.194 2195.7C159.783 2195.44 160.223 2194.92 160.223 2194.22C160.223 2193.31 159.503 2192.55 158.205 2192.55C156.906 2192.55 156.186 2193.31 156.186 2194.22C156.186 2194.92 156.626 2195.44 157.215 2195.7C156.376 2196 155.777 2196.63 155.777 2197.6C155.777 2198.92 156.826 2199.71 158.205 2199.71C159.573 2199.71 160.622 2198.92 160.622 2197.6C160.622 2196.63 160.033 2196 159.194 2195.7ZM158.205 2193C159.164 2193 159.693 2193.52 159.693 2194.25C159.693 2195.02 159.114 2195.52 158.205 2195.52C157.295 2195.52 156.716 2195.02 156.716 2194.25C156.716 2193.52 157.245 2193 158.205 2193ZM158.205 2199.21C157.106 2199.21 156.366 2198.59 156.366 2197.58C156.366 2196.6 157.086 2195.96 158.205 2195.96C159.324 2195.96 160.043 2196.6 160.043 2197.58C160.043 2198.59 159.294 2199.21 158.205 2199.21ZM161.429 2198.79V2199.61H162.188V2198.79H161.429ZM167.967 2197.28C168.976 2197.28 169.695 2196.82 169.975 2195.99C169.995 2197.69 169.595 2199.23 168.017 2199.23C167.057 2199.23 166.558 2198.62 166.468 2197.99H165.948C166.018 2198.84 166.688 2199.7 168.017 2199.7C170.025 2199.7 170.534 2197.86 170.534 2195.96C170.534 2193.72 169.665 2192.53 168.087 2192.53C166.678 2192.53 165.729 2193.49 165.729 2194.95C165.729 2196.37 166.688 2197.28 167.967 2197.28ZM168.087 2193.03C169.216 2193.03 169.865 2193.94 169.865 2195.13C169.865 2196.09 169.086 2196.84 168.077 2196.84C166.978 2196.84 166.298 2196.09 166.298 2194.95C166.298 2193.79 166.988 2193.03 168.087 2193.03ZM174.154 2192.53C172.606 2192.53 171.467 2193.81 171.467 2196.11C171.467 2198.43 172.606 2199.7 174.154 2199.7C175.703 2199.7 176.832 2198.43 176.832 2196.11C176.832 2193.81 175.703 2192.53 174.154 2192.53ZM176.243 2196.11C176.243 2198.05 175.423 2199.17 174.154 2199.17C172.886 2199.17 172.056 2198.05 172.056 2196.11C172.056 2194.18 172.886 2193.05 174.154 2193.05C175.423 2193.05 176.243 2194.18 176.243 2196.11ZM180.259 2194.9C179.479 2194.9 178.83 2195.22 178.48 2195.67L178.87 2193.1H181.937V2192.62H178.47L177.931 2196.18H178.5C178.93 2195.65 179.439 2195.38 180.169 2195.38C181.158 2195.38 181.947 2196.07 181.947 2197.29C181.947 2198.53 181.188 2199.21 180.119 2199.21C179 2199.21 178.3 2198.51 178.27 2197.53H177.731C177.761 2198.77 178.62 2199.71 180.119 2199.71C181.577 2199.71 182.527 2198.78 182.527 2197.29C182.527 2195.78 181.498 2194.9 180.259 2194.9ZM187.956 2197.68V2197.18H187.157V2192.62H186.567L183.27 2197.18V2197.68H186.567V2199.61H187.157V2197.68H187.956ZM186.567 2197.18H183.83L186.567 2193.39V2197.18ZM192.733 2192.62H188.606V2193.12H192.163C190.824 2195.19 189.955 2197.35 189.595 2199.61H190.195C190.525 2197.37 191.404 2195.19 192.733 2193.12V2192.62Z" fill="#9158FD"/>
<defs>
<filter id="filter0_d" x="-33.5056" y="645.679" width="1555.21" height="2945.92" filterUnits="userSpaceOnUse" color-interpolation-filters="sRGB">
<feFlood flood-opacity="0" result="BackgroundImageFix"/>
<feColorMatrix in="SourceAlpha" type="matrix" values="0 0 0 0 0 0 0 0 0 0 0 0 0 0 0 0 0 0 127 0" result="hardAlpha"/>
<feOffset/>
<feGaussianBlur stdDeviation="10"/>
<feComposite in2="hardAlpha" operator="out"/>
<feColorMatrix type="matrix" values="0 0 0 0 0.129412 0 0 0 0 0.870588 0 0 0 0 0.658824 0 0 0 1 0"/>
<feBlend mode="normal" in2="BackgroundImageFix" result="effect1_dropShadow"/>
<feBlend mode="normal" in="SourceGraphic" in2="effect1_dropShadow" result="shape"/>
</filter>
<filter id="filter1_di" x="-20.184" y="106.155" width="1177.39" height="131.079" filterUnits="userSpaceOnUse" color-interpolation-filters="sRGB">
<feFlood flood-opacity="0" result="BackgroundImageFix"/>
<feColorMatrix in="SourceAlpha" type="matrix" values="0 0 0 0 0 0 0 0 0 0 0 0 0 0 0 0 0 0 127 0" result="hardAlpha"/>
<feOffset/>
<feGaussianBlur stdDeviation="10"/>
<feComposite in2="hardAlpha" operator="out"/>
<feColorMatrix type="matrix" values="0 0 0 0 0.129412 0 0 0 0 0.870588 0 0 0 0 0.658824 0 0 0 1 0"/>
<feBlend mode="normal" in2="BackgroundImageFix" result="effect1_dropShadow"/>
<feBlend mode="normal" in="SourceGraphic" in2="effect1_dropShadow" result="shape"/>
<feColorMatrix in="SourceAlpha" type="matrix" values="0 0 0 0 0 0 0 0 0 0 0 0 0 0 0 0 0 0 127 0" result="hardAlpha"/>
<feOffset/>
<feGaussianBlur stdDeviation="10"/>
<feComposite in2="hardAlpha" operator="arithmetic" k2="-1" k3="1"/>
<feColorMatrix type="matrix" values="0 0 0 0 0.129412 0 0 0 0 0.870588 0 0 0 0 0.658824 0 0 0 1 0"/>
<feBlend mode="normal" in2="shape" result="effect2_innerShadow"/>
</filter>
<filter id="filter2_dd" x="585.123" y="12.7432" width="969.764" height="311.586" filterUnits="userSpaceOnUse" color-interpolation-filters="sRGB">
<feFlood flood-opacity="0" result="BackgroundImageFix"/>
<feColorMatrix in="SourceAlpha" type="matrix" values="0 0 0 0 0 0 0 0 0 0 0 0 0 0 0 0 0 0 127 0" result="hardAlpha"/>
<feOffset/>
<feGaussianBlur stdDeviation="10"/>
<feComposite in2="hardAlpha" operator="out"/>
<feColorMatrix type="matrix" values="0 0 0 0 0.129412 0 0 0 0 0.870588 0 0 0 0 0.658824 0 0 0 1 0"/>
<feBlend mode="normal" in2="BackgroundImageFix" result="effect1_dropShadow"/>
<feColorMatrix in="SourceAlpha" type="matrix" values="0 0 0 0 0 0 0 0 0 0 0 0 0 0 0 0 0 0 127 0" result="hardAlpha"/>
<feOffset/>
<feGaussianBlur stdDeviation="10"/>
<feComposite in2="hardAlpha" operator="out"/>
<feColorMatrix type="matrix" values="0 0 0 0 0.129412 0 0 0 0 0.870588 0 0 0 0 0.658824 0 0 0 1 0"/>
<feBlend mode="normal" in2="effect1_dropShadow" result="effect2_dropShadow"/>
<feBlend mode="normal" in="SourceGraphic" in2="effect2_dropShadow" result="shape"/>
</filter>
<filter id="filter3_d" x="978.494" y="116.11" width="567.595" height="89.8911" filterUnits="userSpaceOnUse" color-interpolation-filters="sRGB">
<feFlood flood-opacity="0" result="BackgroundImageFix"/>
<feColorMatrix in="SourceAlpha" type="matrix" values="0 0 0 0 0 0 0 0 0 0 0 0 0 0 0 0 0 0 127 0" result="hardAlpha"/>
<feOffset/>
<feGaussianBlur stdDeviation="10"/>
<feComposite in2="hardAlpha" operator="out"/>
<feColorMatrix type="matrix" values="0 0 0 0 0.129412 0 0 0 0 0.870588 0 0 0 0 0.658824 0 0 0 1 0"/>
<feBlend mode="normal" in2="BackgroundImageFix" result="effect1_dropShadow"/>
<feBlend mode="normal" in="SourceGraphic" in2="effect1_dropShadow" result="shape"/>
</filter>
<filter id="filter4_di" x="520" y="79" width="141" height="141" filterUnits="userSpaceOnUse" color-interpolation-filters="sRGB">
<feFlood flood-opacity="0" result="BackgroundImageFix"/>
<feColorMatrix in="SourceAlpha" type="matrix" values="0 0 0 0 0 0 0 0 0 0 0 0 0 0 0 0 0 0 127 0" result="hardAlpha"/>
<feMorphology radius="5" operator="dilate" in="SourceAlpha" result="effect1_dropShadow"/>
<feOffset/>
<feGaussianBlur stdDeviation="25"/>
<feComposite in2="hardAlpha" operator="out"/>
<feColorMatrix type="matrix" values="0 0 0 0 0.129412 0 0 0 0 0.870588 0 0 0 0 0.658824 0 0 0 1 0"/>
<feBlend mode="normal" in2="BackgroundImageFix" result="effect1_dropShadow"/>
<feBlend mode="normal" in="SourceGraphic" in2="effect1_dropShadow" result="shape"/>
<feColorMatrix in="SourceAlpha" type="matrix" values="0 0 0 0 0 0 0 0 0 0 0 0 0 0 0 0 0 0 127 0" result="hardAlpha"/>
<feOffset/>
<feGaussianBlur stdDeviation="10"/>
<feComposite in2="hardAlpha" operator="arithmetic" k2="-1" k3="1"/>
<feColorMatrix type="matrix" values="0 0 0 0 0.129412 0 0 0 0 0.870588 0 0 0 0 0.658824 0 0 0 1 0"/>
<feBlend mode="normal" in2="shape" result="effect2_innerShadow"/>
</filter>
<filter id="filter5_di" x="907" y="157" width="141" height="141" filterUnits="userSpaceOnUse" color-interpolation-filters="sRGB">
<feFlood flood-opacity="0" result="BackgroundImageFix"/>
<feColorMatrix in="SourceAlpha" type="matrix" values="0 0 0 0 0 0 0 0 0 0 0 0 0 0 0 0 0 0 127 0" result="hardAlpha"/>
<feMorphology radius="5" operator="dilate" in="SourceAlpha" result="effect1_dropShadow"/>
<feOffset/>
<feGaussianBlur stdDeviation="25"/>
<feComposite in2="hardAlpha" operator="out"/>
<feColorMatrix type="matrix" values="0 0 0 0 0.129412 0 0 0 0 0.870588 0 0 0 0 0.658824 0 0 0 1 0"/>
<feBlend mode="normal" in2="BackgroundImageFix" result="effect1_dropShadow"/>
<feBlend mode="normal" in="SourceGraphic" in2="effect1_dropShadow" result="shape"/>
<feColorMatrix in="SourceAlpha" type="matrix" values="0 0 0 0 0 0 0 0 0 0 0 0 0 0 0 0 0 0 127 0" result="hardAlpha"/>
<feOffset/>
<feGaussianBlur stdDeviation="10"/>
<feComposite in2="hardAlpha" operator="arithmetic" k2="-1" k3="1"/>
<feColorMatrix type="matrix" values="0 0 0 0 0.129412 0 0 0 0 0.870588 0 0 0 0 0.658824 0 0 0 1 0"/>
<feBlend mode="normal" in2="shape" result="effect2_innerShadow"/>
</filter>
<filter id="filter6_di" x="1082" y="95" width="141" height="141" filterUnits="userSpaceOnUse" color-interpolation-filters="sRGB">
<feFlood flood-opacity="0" result="BackgroundImageFix"/>
<feColorMatrix in="SourceAlpha" type="matrix" values="0 0 0 0 0 0 0 0 0 0 0 0 0 0 0 0 0 0 127 0" result="hardAlpha"/>
<feMorphology radius="5" operator="dilate" in="SourceAlpha" result="effect1_dropShadow"/>
<feOffset/>
<feGaussianBlur stdDeviation="25"/>
<feComposite in2="hardAlpha" operator="out"/>
<feColorMatrix type="matrix" values="0 0 0 0 0.129412 0 0 0 0 0.870588 0 0 0 0 0.658824 0 0 0 1 0"/>
<feBlend mode="normal" in2="BackgroundImageFix" result="effect1_dropShadow"/>
<feBlend mode="normal" in="SourceGraphic" in2="effect1_dropShadow" result="shape"/>
<feColorMatrix in="SourceAlpha" type="matrix" values="0 0 0 0 0 0 0 0 0 0 0 0 0 0 0 0 0 0 127 0" result="hardAlpha"/>
<feOffset/>
<feGaussianBlur stdDeviation="10"/>
<feComposite in2="hardAlpha" operator="arithmetic" k2="-1" k3="1"/>
<feColorMatrix type="matrix" values="0 0 0 0 0.129412 0 0 0 0 0.870588 0 0 0 0 0.658824 0 0 0 1 0"/>
<feBlend mode="normal" in2="shape" result="effect2_innerShadow"/>
</filter>
<filter id="filter7_di" x="913" y="113" width="141" height="141" filterUnits="userSpaceOnUse" color-interpolation-filters="sRGB">
<feFlood flood-opacity="0" result="BackgroundImageFix"/>
<feColorMatrix in="SourceAlpha" type="matrix" values="0 0 0 0 0 0 0 0 0 0 0 0 0 0 0 0 0 0 127 0" result="hardAlpha"/>
<feMorphology radius="5" operator="dilate" in="SourceAlpha" result="effect1_dropShadow"/>
<feOffset/>
<feGaussianBlur stdDeviation="25"/>
<feComposite in2="hardAlpha" operator="out"/>
<feColorMatrix type="matrix" values="0 0 0 0 0.129412 0 0 0 0 0.870588 0 0 0 0 0.658824 0 0 0 1 0"/>
<feBlend mode="normal" in2="BackgroundImageFix" result="effect1_dropShadow"/>
<feBlend mode="normal" in="SourceGraphic" in2="effect1_dropShadow" result="shape"/>
<feColorMatrix in="SourceAlpha" type="matrix" values="0 0 0 0 0 0 0 0 0 0 0 0 0 0 0 0 0 0 127 0" result="hardAlpha"/>
<feOffset/>
<feGaussianBlur stdDeviation="10"/>
<feComposite in2="hardAlpha" operator="arithmetic" k2="-1" k3="1"/>
<feColorMatrix type="matrix" values="0 0 0 0 0.129412 0 0 0 0 0.870588 0 0 0 0 0.658824 0 0 0 1 0"/>
<feBlend mode="normal" in2="shape" result="effect2_innerShadow"/>
</filter>
<filter id="filter8_d" x="582.369" y="495.016" width="1184.21" height="176.044" filterUnits="userSpaceOnUse" color-interpolation-filters="sRGB">
<feFlood flood-opacity="0" result="BackgroundImageFix"/>
<feColorMatrix in="SourceAlpha" type="matrix" values="0 0 0 0 0 0 0 0 0 0 0 0 0 0 0 0 0 0 127 0" result="hardAlpha"/>
<feOffset dy="4"/>
<feGaussianBlur stdDeviation="10"/>
<feComposite in2="hardAlpha" operator="out"/>
<feColorMatrix type="matrix" values="0 0 0 0 0.129412 0 0 0 0 0.870588 0 0 0 0 0.658824 0 0 0 1 0"/>
<feBlend mode="normal" in2="BackgroundImageFix" result="effect1_dropShadow"/>
<feBlend mode="normal" in="SourceGraphic" in2="effect1_dropShadow" result="shape"/>
</filter>
<filter id="filter9_di" x="526" y="559" width="141" height="141" filterUnits="userSpaceOnUse" color-interpolation-filters="sRGB">
<feFlood flood-opacity="0" result="BackgroundImageFix"/>
<feColorMatrix in="SourceAlpha" type="matrix" values="0 0 0 0 0 0 0 0 0 0 0 0 0 0 0 0 0 0 127 0" result="hardAlpha"/>
<feMorphology radius="5" operator="dilate" in="SourceAlpha" result="effect1_dropShadow"/>
<feOffset/>
<feGaussianBlur stdDeviation="25"/>
<feComposite in2="hardAlpha" operator="out"/>
<feColorMatrix type="matrix" values="0 0 0 0 0.129412 0 0 0 0 0.870588 0 0 0 0 0.658824 0 0 0 1 0"/>
<feBlend mode="normal" in2="BackgroundImageFix" result="effect1_dropShadow"/>
<feBlend mode="normal" in="SourceGraphic" in2="effect1_dropShadow" result="shape"/>
<feColorMatrix in="SourceAlpha" type="matrix" values="0 0 0 0 0 0 0 0 0 0 0 0 0 0 0 0 0 0 127 0" result="hardAlpha"/>
<feOffset/>
<feGaussianBlur stdDeviation="10"/>
<feComposite in2="hardAlpha" operator="arithmetic" k2="-1" k3="1"/>
<feColorMatrix type="matrix" values="0 0 0 0 0.129412 0 0 0 0 0.870588 0 0 0 0 0.658824 0 0 0 1 0"/>
<feBlend mode="normal" in2="shape" result="effect2_innerShadow"/>
</filter>
<filter id="filter10_di" x="622" y="555" width="141" height="141" filterUnits="userSpaceOnUse" color-interpolation-filters="sRGB">
<feFlood flood-opacity="0" result="BackgroundImageFix"/>
<feColorMatrix in="SourceAlpha" type="matrix" values="0 0 0 0 0 0 0 0 0 0 0 0 0 0 0 0 0 0 127 0" result="hardAlpha"/>
<feMorphology radius="5" operator="dilate" in="SourceAlpha" result="effect1_dropShadow"/>
<feOffset/>
<feGaussianBlur stdDeviation="25"/>
<feComposite in2="hardAlpha" operator="out"/>
<feColorMatrix type="matrix" values="0 0 0 0 0.129412 0 0 0 0 0.870588 0 0 0 0 0.658824 0 0 0 1 0"/>
<feBlend mode="normal" in2="BackgroundImageFix" result="effect1_dropShadow"/>
<feBlend mode="normal" in="SourceGraphic" in2="effect1_dropShadow" result="shape"/>
<feColorMatrix in="SourceAlpha" type="matrix" values="0 0 0 0 0 0 0 0 0 0 0 0 0 0 0 0 0 0 127 0" result="hardAlpha"/>
<feOffset/>
<feGaussianBlur stdDeviation="10"/>
<feComposite in2="hardAlpha" operator="arithmetic" k2="-1" k3="1"/>
<feColorMatrix type="matrix" values="0 0 0 0 0.129412 0 0 0 0 0.870588 0 0 0 0 0.658824 0 0 0 1 0"/>
<feBlend mode="normal" in2="shape" result="effect2_innerShadow"/>
</filter>
<filter id="filter11_d" x="681.226" y="487.467" width="1085.39" height="174.52" filterUnits="userSpaceOnUse" color-interpolation-filters="sRGB">
<feFlood flood-opacity="0" result="BackgroundImageFix"/>
<feColorMatrix in="SourceAlpha" type="matrix" values="0 0 0 0 0 0 0 0 0 0 0 0 0 0 0 0 0 0 127 0" result="hardAlpha"/>
<feOffset/>
<feGaussianBlur stdDeviation="10"/>
<feComposite in2="hardAlpha" operator="out"/>
<feColorMatrix type="matrix" values="0 0 0 0 0.129412 0 0 0 0 0.870588 0 0 0 0 0.658824 0 0 0 1 0"/>
<feBlend mode="normal" in2="BackgroundImageFix" result="effect1_dropShadow"/>
<feBlend mode="normal" in="SourceGraphic" in2="effect1_dropShadow" result="shape"/>
</filter>
</defs>
</svg>
