<svg width="1526" height="3592" viewBox="0 0 1526 3592" fill="none" xmlns="http://www.w3.org/2000/svg">
<g filter="url(#filter0_d)">
<path d="M-13.5 670.001L44.9999 670.001L66.0001 734.5L244.5 734.5L292.5 700L531 701.001L642.5 758.5L1421 758.5L1479 801.5L1479 1452L1424.5 1517.5L818 1517.5L737.5 1602L737.5 2049L1437 2049L1497.5 2120L1497.5 2265L1437 2309.5L95.5 2309.5L45 2378.5L45 3571.5" stroke="#21DEA8" stroke-width="3"/>
</g>
<g filter="url(#filter1_di)">
<path d="M-0.00215764 171.5L459.5 171.5L499.5 213L630 213L712 129.5L1019 129.5L1057 166.569L1137 166.569" stroke="#21DEA8" stroke-width="3"/>
</g>
<g filter="url(#filter2_dd)">
<path d="M1526.06 120.496L1506.5 120.496L1440.5 198.5L1295.5 198.5L1250.5 150.5L605.5 150.5" stroke="#21DEA8" stroke-width="3"/>
</g>
<g filter="url(#filter3_d)">
<path d="M1526 183.5L1506 183.5L1467 138.5L1291 138.5L1240.5 183.5L998.5 183.5" stroke="#21DEA8" stroke-width="3"/>
</g>
<path d="M0 187.5H249L278.5 216H400.5L428 187.5" stroke="#9158FD"/>
<path d="M0.055633 154.503L235.5 154.503L261.5 127.5L464 127.5L524 189L750 189L782.5 159L884.5 159L953 218.5L1063.5 218.5L1147.5 127.5" stroke="#9158FD"/>
<path d="M-0.0015867 112.5L131 111.51L155.5 139.5L209 139.5L236 112.5L306.998 111.51" stroke="#9158FD"/>
<path d="M1541.7 180.587L1385.7 180.587L1299.7 270.087L1179.2 270.087L1119.74 209.586" stroke="#9158FD"/>
<g filter="url(#filter4_di)">
<circle cx="590.5" cy="149.5" r="14" stroke="#21DEA8" stroke-width="3" shape-rendering="crispEdges"/>
</g>
<circle cx="313.5" cy="111.5" r="11.5" fill="#875FF4"/>
<path d="M5.73669 654H41.2367L102.237 716H242.737L287.237 674.5" stroke="#9158FD"/>
<path d="M5.19426 750.002L37.2367 750.002L106.237 680L248.737 680L282.237 720.002L357.194 720.002" stroke="#9158FD"/>
<path d="M5.23669 767H85.2367L106.237 746H175.237L193.237 767H556.238" stroke="#9158FD"/>
<circle cx="563.737" cy="768" r="11.5" fill="#875FF4"/>
<circle cx="292.737" cy="666" r="11.5" fill="#875FF4"/>
<circle cx="357.737" cy="717" r="11.5" fill="#875FF4"/>
<circle cx="428.5" cy="187.5" r="11.5" fill="#875FF4"/>
<circle cx="1150.5" cy="123.5" r="11.5" fill="#875FF4"/>
<circle cx="1114.5" cy="200.5" r="11.5" fill="#875FF4"/>
<g filter="url(#filter5_di)">
<circle cx="977.5" cy="227.5" r="14" stroke="#21DEA8" stroke-width="3" shape-rendering="crispEdges"/>
</g>
<g filter="url(#filter6_di)">
<circle cx="1152.5" cy="165.5" r="14" stroke="#21DEA8" stroke-width="3" shape-rendering="crispEdges"/>
</g>
<g filter="url(#filter7_di)">
<circle cx="983.5" cy="183.5" r="14" stroke="#21DEA8" stroke-width="3" shape-rendering="crispEdges"/>
</g>
<path d="M1527.19 84.1974L1332.66 84.1974L1252.16 138.197L840.194 138.197" stroke="#9158FD"/>
<path d="M1526.06 161.496L1282.5 161.496L1221 227.496L993.061 227.496" stroke="#21DEA8"/>
<g filter="url(#filter8_d)">
<path d="M1746.01 596.5L1511.5 596.5L1476.5 629.5L1284 629.5L1222 562L992 562L953 596.5L858 596.5L802 532L686.5 532L605.009 617.5" stroke="#21DEA8" stroke-width="3"/>
</g>
<path d="M1754.46 574.94L1654.46 574.94L1617.96 534.315L1489.46 534.315L1467.46 504.314L1226.96 504.314L1199.96 522.315L969.957 522.315L912.457 574.94" stroke="#9158FD"/>
<path d="M1746.04 498.498L1601 498.498L1520.5 588L1396 588L1333.04 530.498" stroke="#9158FD"/>
<g filter="url(#filter9_di)">
<circle cx="596.5" cy="629.5" r="14" stroke="#21DEA8" stroke-width="3" shape-rendering="crispEdges"/>
</g>
<g filter="url(#filter10_di)">
<circle cx="692.5" cy="625.5" r="14" stroke="#21DEA8" stroke-width="3" shape-rendering="crispEdges"/>
</g>
<circle cx="909.5" cy="575.5" r="11.5" fill="#875FF4"/>
<circle cx="1331.5" cy="530.5" r="11.5" fill="#875FF4"/>
<g filter="url(#filter11_d)">
<path d="M1745.68 572.935L1291.66 572.935L1256.66 539.935L1120.16 539.935L1044.66 623.588L704.5 623.588" stroke="#21DEA8" stroke-width="3"/>
</g>
<rect x="31.7493" y="2099.75" width="84.143" height="112.398" stroke="#9158FD" stroke-width="1.49864"/>
<path d="M57.0039 2158.35V2135.02H51.6887V2162.99H70.1919V2158.35H57.0039ZM90.7795 2158.12V2150.48C90.7795 2144.49 88.2219 2142.01 81.9475 2142.01C76.6323 2142.01 73.6351 2144.17 73.2754 2148.32H78.071C78.3908 2146.45 79.8295 2145.77 81.9076 2145.77C83.8258 2145.77 85.6642 2146.33 85.6642 2149.28V2149.36C84.4253 2150.08 81.9875 2150.36 79.6296 2150.76C75.5533 2151.48 72.0765 2152.52 72.0765 2156.92C72.0765 2161.39 75.3535 2163.27 79.0302 2163.27C83.9857 2163.27 85.824 2160.07 86.1837 2159.43V2159.95C86.1837 2162.15 87.9821 2163.15 90.3799 2163.15C91.1392 2163.15 91.6587 2163.11 92.2582 2162.83V2159.87C91.2991 2159.83 90.7795 2159.27 90.7795 2158.12ZM85.6642 2156.44C85.1846 2157.24 83.5861 2159.59 80.3889 2159.59C78.1909 2159.59 77.1918 2158.27 77.1918 2156.76C77.1918 2155.16 78.0311 2154.32 80.3889 2153.8C82.507 2153.36 84.2654 2153.12 85.6642 2152.44V2156.44Z" fill="#9158FD"/>
<path d="M42.234 2109.66C41.2598 2109.66 40.4481 2110.06 40.011 2110.64L40.498 2107.41H44.3321V2106.81H39.9985L39.3241 2111.27H40.0359C40.573 2110.61 41.2099 2110.26 42.1216 2110.26C43.3579 2110.26 44.3445 2111.13 44.3445 2112.66C44.3445 2114.21 43.3954 2115.06 42.0591 2115.06C40.6604 2115.06 39.7862 2114.18 39.7487 2112.96H39.0743C39.1118 2114.51 40.1858 2115.68 42.0591 2115.68C43.8825 2115.68 45.0689 2114.52 45.0689 2112.66C45.0689 2110.77 43.7826 2109.66 42.234 2109.66ZM50.8502 2106.81H45.6924V2107.44H50.1383C48.4648 2110.02 47.3783 2112.73 46.9287 2115.56H47.6781C48.0902 2112.76 49.1892 2110.02 50.8502 2107.44V2106.81Z" fill="#9158FD"/>
<path d="M51.2403 2184.89V2178.44H50.6208V2185.44H54.9269V2184.89H51.2403ZM59.8088 2184.69V2182.11C59.8088 2180.7 59.1394 2180.19 57.8306 2180.19C56.7016 2180.19 55.9722 2180.62 55.8623 2181.5H56.4218C56.5118 2180.99 56.9114 2180.66 57.8206 2180.66C58.7897 2180.66 59.2193 2181 59.2193 2181.97V2182.06C58.8396 2182.25 57.9604 2182.37 57.321 2182.46C56.0422 2182.65 55.5226 2183.14 55.5226 2183.98C55.5226 2184.97 56.222 2185.51 57.2011 2185.51C58.49 2185.51 59.1094 2184.62 59.2693 2184.29V2184.77C59.2693 2185.31 59.4891 2185.48 59.9387 2185.48C60.0486 2185.48 60.1085 2185.47 60.1984 2185.44V2185.05C59.9087 2185.07 59.8088 2184.96 59.8088 2184.69ZM59.2193 2183.77C59.0894 2184.07 58.5099 2185.05 57.311 2185.05C56.5717 2185.05 56.1121 2184.63 56.1121 2183.97C56.1121 2183.36 56.4218 2183.01 57.391 2182.87C58.1503 2182.75 58.9495 2182.62 59.2193 2182.46V2183.77ZM63.5779 2180.19C62.4089 2180.19 61.7695 2181.13 61.6696 2181.51V2180.24H61.0801V2185.44H61.6696V2182.17C61.7995 2181.63 62.339 2180.7 63.408 2180.7C64.2772 2180.7 64.8367 2181.09 64.8367 2182.3V2185.44H65.4262V2182.29C65.4262 2180.7 64.6069 2180.19 63.5779 2180.19ZM67.9935 2185C67.6039 2185 67.484 2184.87 67.484 2184.59V2180.73H68.4831V2180.24H67.484V2178.94H66.8945V2180.24H66.1053V2180.73H66.8945V2184.65C66.8945 2185.32 67.2942 2185.5 67.7937 2185.5C68.0735 2185.5 68.3432 2185.47 68.563 2185.4V2184.93C68.3432 2184.98 68.1734 2185 67.9935 2185ZM71.9882 2180.19C70.8193 2180.19 70.1798 2181.13 70.0799 2181.51V2178.38H69.4905V2185.44H70.0799V2182.17C70.2098 2181.63 70.7493 2180.7 71.8184 2180.7C72.6876 2180.7 73.2471 2181.09 73.2471 2182.3V2185.44H73.8365V2182.29C73.8365 2180.7 73.0173 2180.19 71.9882 2180.19ZM79.0492 2184.69V2182.11C79.0492 2180.7 78.3798 2180.19 77.0709 2180.19C75.942 2180.19 75.2126 2180.62 75.1027 2181.5H75.6622C75.7521 2180.99 76.1518 2180.66 77.061 2180.66C78.0301 2180.66 78.4597 2181 78.4597 2181.97V2182.06C78.08 2182.25 77.2008 2182.37 76.5614 2182.46C75.2826 2182.65 74.763 2183.14 74.763 2183.98C74.763 2184.97 75.4624 2185.51 76.4415 2185.51C77.7304 2185.51 78.3498 2184.62 78.5096 2184.29V2184.77C78.5096 2185.31 78.7294 2185.48 79.179 2185.48C79.2889 2185.48 79.3489 2185.47 79.4388 2185.44V2185.05C79.1491 2185.07 79.0492 2184.96 79.0492 2184.69ZM78.4597 2183.77C78.3298 2184.07 77.7503 2185.05 76.5514 2185.05C75.8121 2185.05 75.3525 2184.63 75.3525 2183.97C75.3525 2183.36 75.6622 2183.01 76.6313 2182.87C77.3907 2182.75 78.1899 2182.62 78.4597 2182.46V2183.77ZM82.8182 2180.19C81.6493 2180.19 81.0099 2181.13 80.91 2181.51V2180.24H80.3205V2185.44H80.91V2182.17C81.0399 2181.63 81.5794 2180.7 82.6484 2180.7C83.5176 2180.7 84.0771 2181.09 84.0771 2182.3V2185.44H84.6666V2182.29C84.6666 2180.7 83.8473 2180.19 82.8182 2180.19ZM89.5007 2180.24V2183.52C89.3808 2184.06 88.8313 2185 87.7623 2185C86.8931 2185 86.3336 2184.6 86.3336 2183.39V2180.24H85.7441V2183.4C85.7441 2184.99 86.5634 2185.51 87.5924 2185.51C88.7614 2185.51 89.4008 2184.56 89.5007 2184.18V2185.44H90.0902V2180.24H89.5007ZM97.2722 2180.19C96.2531 2180.19 95.5837 2180.93 95.3739 2181.5C95.1441 2180.53 94.4647 2180.19 93.6854 2180.19C92.5764 2180.19 91.957 2181.13 91.8571 2181.51V2180.24H91.2676V2185.44H91.8571V2182.19C91.967 2181.65 92.5065 2180.7 93.5456 2180.7C94.3249 2180.7 94.8644 2181.11 94.8644 2182.31V2185.44H95.4538V2182.27C95.4538 2181.65 96.0833 2180.7 97.1323 2180.7C97.9316 2180.7 98.4511 2181.11 98.4511 2182.31V2185.44H99.0406V2182.28C99.0406 2180.72 98.2513 2180.19 97.2722 2180.19Z" fill="#9158FD"/>
<path d="M54.2228 2192.62H53.6333C53.5135 2193.07 53.0339 2193.5 52.4244 2193.55V2194.05C53.0039 2194.03 53.4335 2193.72 53.6333 2193.48V2199.61H54.2228V2192.62ZM58.6285 2195.81C59.4278 2195.57 59.8274 2195 59.8274 2194.3C59.8274 2193.33 59.0381 2192.53 57.7093 2192.53C56.4105 2192.53 55.5713 2193.3 55.5713 2194.79H56.1308C56.1308 2193.58 56.8102 2193.05 57.7093 2193.05C58.6385 2193.05 59.2579 2193.57 59.2579 2194.32C59.2579 2194.97 58.8383 2195.63 57.6094 2195.63H57.3896V2196.07H57.6094C58.8683 2196.07 59.6376 2196.64 59.6376 2197.63C59.6376 2198.61 58.8383 2199.2 57.7393 2199.2C56.6203 2199.2 55.901 2198.5 55.871 2197.4H55.3115C55.3215 2198.78 56.2207 2199.73 57.7493 2199.73C59.2579 2199.73 60.2271 2198.88 60.2271 2197.64C60.2271 2196.54 59.4378 2195.96 58.6285 2195.81ZM64.4371 2195.7C65.0265 2195.44 65.4661 2194.92 65.4661 2194.22C65.4661 2193.31 64.7468 2192.55 63.448 2192.55C62.1491 2192.55 61.4298 2193.31 61.4298 2194.22C61.4298 2194.92 61.8694 2195.44 62.4589 2195.7C61.6196 2196 61.0202 2196.63 61.0202 2197.6C61.0202 2198.92 62.0692 2199.71 63.448 2199.71C64.8167 2199.71 65.8658 2198.92 65.8658 2197.6C65.8658 2196.63 65.2763 2196 64.4371 2195.7ZM63.448 2193C64.4071 2193 64.9366 2193.52 64.9366 2194.25C64.9366 2195.02 64.3571 2195.52 63.448 2195.52C62.5388 2195.52 61.9593 2195.02 61.9593 2194.25C61.9593 2193.52 62.4888 2193 63.448 2193ZM63.448 2199.21C62.349 2199.21 61.6096 2198.59 61.6096 2197.58C61.6096 2196.6 62.329 2195.96 63.448 2195.96C64.567 2195.96 65.2863 2196.6 65.2863 2197.58C65.2863 2198.59 64.537 2199.21 63.448 2199.21ZM66.6719 2198.79V2199.61H67.4312V2198.79H66.6719ZM73.2101 2197.28C74.2192 2197.28 74.9385 2196.82 75.2182 2195.99C75.2382 2197.69 74.8386 2199.23 73.26 2199.23C72.3009 2199.23 71.8013 2198.62 71.7114 2197.99H71.1919C71.2618 2198.84 71.9312 2199.7 73.26 2199.7C75.2682 2199.7 75.7777 2197.86 75.7777 2195.96C75.7777 2193.72 74.9085 2192.53 73.33 2192.53C71.9212 2192.53 70.9721 2193.49 70.9721 2194.95C70.9721 2196.37 71.9312 2197.28 73.2101 2197.28ZM73.33 2193.03C74.4589 2193.03 75.1083 2193.94 75.1083 2195.13C75.1083 2196.09 74.3291 2196.84 73.32 2196.84C72.221 2196.84 71.5416 2196.09 71.5416 2194.95C71.5416 2193.79 72.231 2193.03 73.33 2193.03ZM79.3978 2192.53C77.8492 2192.53 76.7103 2193.81 76.7103 2196.11C76.7103 2198.43 77.8492 2199.7 79.3978 2199.7C80.9464 2199.7 82.0754 2198.43 82.0754 2196.11C82.0754 2193.81 80.9464 2192.53 79.3978 2192.53ZM81.4859 2196.11C81.4859 2198.05 80.6667 2199.17 79.3978 2199.17C78.129 2199.17 77.2997 2198.05 77.2997 2196.11C77.2997 2194.18 78.129 2193.05 79.3978 2193.05C80.6667 2193.05 81.4859 2194.18 81.4859 2196.11ZM85.5021 2194.9C84.7228 2194.9 84.0734 2195.22 83.7237 2195.67L84.1133 2193.1H87.1805V2192.62H83.7137L83.1742 2196.18H83.7437C84.1733 2195.65 84.6828 2195.38 85.4121 2195.38C86.4012 2195.38 87.1905 2196.07 87.1905 2197.29C87.1905 2198.53 86.4312 2199.21 85.3622 2199.21C84.2432 2199.21 83.5438 2198.51 83.5139 2197.53H82.9744C83.0043 2198.77 83.8635 2199.71 85.3622 2199.71C86.8209 2199.71 87.77 2198.78 87.77 2197.29C87.77 2195.78 86.7409 2194.9 85.5021 2194.9ZM93.1996 2197.68V2197.18H92.4003V2192.62H91.8109L88.5139 2197.18V2197.68H91.8109V2199.61H92.4003V2197.68H93.1996ZM91.8109 2197.18H89.0734L91.8109 2193.39V2197.18ZM97.9759 2192.62H93.8497V2193.12H97.4064C96.0677 2195.19 95.1984 2197.35 94.8388 2199.61H95.4382C95.7679 2197.37 96.6471 2195.19 97.9759 2193.12V2192.62Z" fill="#9158FD"/>
<defs>
<filter id="filter0_d" x="-33.5056" y="645.679" width="1555.21" height="2945.92" filterUnits="userSpaceOnUse" color-interpolation-filters="sRGB">
<feFlood flood-opacity="0" result="BackgroundImageFix"/>
<feColorMatrix in="SourceAlpha" type="matrix" values="0 0 0 0 0 0 0 0 0 0 0 0 0 0 0 0 0 0 127 0" result="hardAlpha"/>
<feOffset/>
<feGaussianBlur stdDeviation="10"/>
<feComposite in2="hardAlpha" operator="out"/>
<feColorMatrix type="matrix" values="0 0 0 0 0.129412 0 0 0 0 0.870588 0 0 0 0 0.658824 0 0 0 1 0"/>
<feBlend mode="normal" in2="BackgroundImageFix" result="effect1_dropShadow"/>
<feBlend mode="normal" in="SourceGraphic" in2="effect1_dropShadow" result="shape"/>
</filter>
<filter id="filter1_di" x="-20.184" y="106.155" width="1177.39" height="131.079" filterUnits="userSpaceOnUse" color-interpolation-filters="sRGB">
<feFlood flood-opacity="0" result="BackgroundImageFix"/>
<feColorMatrix in="SourceAlpha" type="matrix" values="0 0 0 0 0 0 0 0 0 0 0 0 0 0 0 0 0 0 127 0" result="hardAlpha"/>
<feOffset/>
<feGaussianBlur stdDeviation="10"/>
<feComposite in2="hardAlpha" operator="out"/>
<feColorMatrix type="matrix" values="0 0 0 0 0.129412 0 0 0 0 0.870588 0 0 0 0 0.658824 0 0 0 1 0"/>
<feBlend mode="normal" in2="BackgroundImageFix" result="effect1_dropShadow"/>
<feBlend mode="normal" in="SourceGraphic" in2="effect1_dropShadow" result="shape"/>
<feColorMatrix in="SourceAlpha" type="matrix" values="0 0 0 0 0 0 0 0 0 0 0 0 0 0 0 0 0 0 127 0" result="hardAlpha"/>
<feOffset/>
<feGaussianBlur stdDeviation="10"/>
<feComposite in2="hardAlpha" operator="arithmetic" k2="-1" k3="1"/>
<feColorMatrix type="matrix" values="0 0 0 0 0.129412 0 0 0 0 0.870588 0 0 0 0 0.658824 0 0 0 1 0"/>
<feBlend mode="normal" in2="shape" result="effect2_innerShadow"/>
</filter>
<filter id="filter2_dd" x="585.123" y="12.7432" width="969.764" height="311.586" filterUnits="userSpaceOnUse" color-interpolation-filters="sRGB">
<feFlood flood-opacity="0" result="BackgroundImageFix"/>
<feColorMatrix in="SourceAlpha" type="matrix" values="0 0 0 0 0 0 0 0 0 0 0 0 0 0 0 0 0 0 127 0" result="hardAlpha"/>
<feOffset/>
<feGaussianBlur stdDeviation="10"/>
<feComposite in2="hardAlpha" operator="out"/>
<feColorMatrix type="matrix" values="0 0 0 0 0.129412 0 0 0 0 0.870588 0 0 0 0 0.658824 0 0 0 1 0"/>
<feBlend mode="normal" in2="BackgroundImageFix" result="effect1_dropShadow"/>
<feColorMatrix in="SourceAlpha" type="matrix" values="0 0 0 0 0 0 0 0 0 0 0 0 0 0 0 0 0 0 127 0" result="hardAlpha"/>
<feOffset/>
<feGaussianBlur stdDeviation="10"/>
<feComposite in2="hardAlpha" operator="out"/>
<feColorMatrix type="matrix" values="0 0 0 0 0.129412 0 0 0 0 0.870588 0 0 0 0 0.658824 0 0 0 1 0"/>
<feBlend mode="normal" in2="effect1_dropShadow" result="effect2_dropShadow"/>
<feBlend mode="normal" in="SourceGraphic" in2="effect2_dropShadow" result="shape"/>
</filter>
<filter id="filter3_d" x="978.494" y="116.11" width="567.595" height="89.8911" filterUnits="userSpaceOnUse" color-interpolation-filters="sRGB">
<feFlood flood-opacity="0" result="BackgroundImageFix"/>
<feColorMatrix in="SourceAlpha" type="matrix" values="0 0 0 0 0 0 0 0 0 0 0 0 0 0 0 0 0 0 127 0" result="hardAlpha"/>
<feOffset/>
<feGaussianBlur stdDeviation="10"/>
<feComposite in2="hardAlpha" operator="out"/>
<feColorMatrix type="matrix" values="0 0 0 0 0.129412 0 0 0 0 0.870588 0 0 0 0 0.658824 0 0 0 1 0"/>
<feBlend mode="normal" in2="BackgroundImageFix" result="effect1_dropShadow"/>
<feBlend mode="normal" in="SourceGraphic" in2="effect1_dropShadow" result="shape"/>
</filter>
<filter id="filter4_di" x="520" y="79" width="141" height="141" filterUnits="userSpaceOnUse" color-interpolation-filters="sRGB">
<feFlood flood-opacity="0" result="BackgroundImageFix"/>
<feColorMatrix in="SourceAlpha" type="matrix" values="0 0 0 0 0 0 0 0 0 0 0 0 0 0 0 0 0 0 127 0" result="hardAlpha"/>
<feMorphology radius="5" operator="dilate" in="SourceAlpha" result="effect1_dropShadow"/>
<feOffset/>
<feGaussianBlur stdDeviation="25"/>
<feComposite in2="hardAlpha" operator="out"/>
<feColorMatrix type="matrix" values="0 0 0 0 0.129412 0 0 0 0 0.870588 0 0 0 0 0.658824 0 0 0 1 0"/>
<feBlend mode="normal" in2="BackgroundImageFix" result="effect1_dropShadow"/>
<feBlend mode="normal" in="SourceGraphic" in2="effect1_dropShadow" result="shape"/>
<feColorMatrix in="SourceAlpha" type="matrix" values="0 0 0 0 0 0 0 0 0 0 0 0 0 0 0 0 0 0 127 0" result="hardAlpha"/>
<feOffset/>
<feGaussianBlur stdDeviation="10"/>
<feComposite in2="hardAlpha" operator="arithmetic" k2="-1" k3="1"/>
<feColorMatrix type="matrix" values="0 0 0 0 0.129412 0 0 0 0 0.870588 0 0 0 0 0.658824 0 0 0 1 0"/>
<feBlend mode="normal" in2="shape" result="effect2_innerShadow"/>
</filter>
<filter id="filter5_di" x="907" y="157" width="141" height="141" filterUnits="userSpaceOnUse" color-interpolation-filters="sRGB">
<feFlood flood-opacity="0" result="BackgroundImageFix"/>
<feColorMatrix in="SourceAlpha" type="matrix" values="0 0 0 0 0 0 0 0 0 0 0 0 0 0 0 0 0 0 127 0" result="hardAlpha"/>
<feMorphology radius="5" operator="dilate" in="SourceAlpha" result="effect1_dropShadow"/>
<feOffset/>
<feGaussianBlur stdDeviation="25"/>
<feComposite in2="hardAlpha" operator="out"/>
<feColorMatrix type="matrix" values="0 0 0 0 0.129412 0 0 0 0 0.870588 0 0 0 0 0.658824 0 0 0 1 0"/>
<feBlend mode="normal" in2="BackgroundImageFix" result="effect1_dropShadow"/>
<feBlend mode="normal" in="SourceGraphic" in2="effect1_dropShadow" result="shape"/>
<feColorMatrix in="SourceAlpha" type="matrix" values="0 0 0 0 0 0 0 0 0 0 0 0 0 0 0 0 0 0 127 0" result="hardAlpha"/>
<feOffset/>
<feGaussianBlur stdDeviation="10"/>
<feComposite in2="hardAlpha" operator="arithmetic" k2="-1" k3="1"/>
<feColorMatrix type="matrix" values="0 0 0 0 0.129412 0 0 0 0 0.870588 0 0 0 0 0.658824 0 0 0 1 0"/>
<feBlend mode="normal" in2="shape" result="effect2_innerShadow"/>
</filter>
<filter id="filter6_di" x="1082" y="95" width="141" height="141" filterUnits="userSpaceOnUse" color-interpolation-filters="sRGB">
<feFlood flood-opacity="0" result="BackgroundImageFix"/>
<feColorMatrix in="SourceAlpha" type="matrix" values="0 0 0 0 0 0 0 0 0 0 0 0 0 0 0 0 0 0 127 0" result="hardAlpha"/>
<feMorphology radius="5" operator="dilate" in="SourceAlpha" result="effect1_dropShadow"/>
<feOffset/>
<feGaussianBlur stdDeviation="25"/>
<feComposite in2="hardAlpha" operator="out"/>
<feColorMatrix type="matrix" values="0 0 0 0 0.129412 0 0 0 0 0.870588 0 0 0 0 0.658824 0 0 0 1 0"/>
<feBlend mode="normal" in2="BackgroundImageFix" result="effect1_dropShadow"/>
<feBlend mode="normal" in="SourceGraphic" in2="effect1_dropShadow" result="shape"/>
<feColorMatrix in="SourceAlpha" type="matrix" values="0 0 0 0 0 0 0 0 0 0 0 0 0 0 0 0 0 0 127 0" result="hardAlpha"/>
<feOffset/>
<feGaussianBlur stdDeviation="10"/>
<feComposite in2="hardAlpha" operator="arithmetic" k2="-1" k3="1"/>
<feColorMatrix type="matrix" values="0 0 0 0 0.129412 0 0 0 0 0.870588 0 0 0 0 0.658824 0 0 0 1 0"/>
<feBlend mode="normal" in2="shape" result="effect2_innerShadow"/>
</filter>
<filter id="filter7_di" x="913" y="113" width="141" height="141" filterUnits="userSpaceOnUse" color-interpolation-filters="sRGB">
<feFlood flood-opacity="0" result="BackgroundImageFix"/>
<feColorMatrix in="SourceAlpha" type="matrix" values="0 0 0 0 0 0 0 0 0 0 0 0 0 0 0 0 0 0 127 0" result="hardAlpha"/>
<feMorphology radius="5" operator="dilate" in="SourceAlpha" result="effect1_dropShadow"/>
<feOffset/>
<feGaussianBlur stdDeviation="25"/>
<feComposite in2="hardAlpha" operator="out"/>
<feColorMatrix type="matrix" values="0 0 0 0 0.129412 0 0 0 0 0.870588 0 0 0 0 0.658824 0 0 0 1 0"/>
<feBlend mode="normal" in2="BackgroundImageFix" result="effect1_dropShadow"/>
<feBlend mode="normal" in="SourceGraphic" in2="effect1_dropShadow" result="shape"/>
<feColorMatrix in="SourceAlpha" type="matrix" values="0 0 0 0 0 0 0 0 0 0 0 0 0 0 0 0 0 0 127 0" result="hardAlpha"/>
<feOffset/>
<feGaussianBlur stdDeviation="10"/>
<feComposite in2="hardAlpha" operator="arithmetic" k2="-1" k3="1"/>
<feColorMatrix type="matrix" values="0 0 0 0 0.129412 0 0 0 0 0.870588 0 0 0 0 0.658824 0 0 0 1 0"/>
<feBlend mode="normal" in2="shape" result="effect2_innerShadow"/>
</filter>
<filter id="filter8_d" x="582.369" y="495.016" width="1184.21" height="176.044" filterUnits="userSpaceOnUse" color-interpolation-filters="sRGB">
<feFlood flood-opacity="0" result="BackgroundImageFix"/>
<feColorMatrix in="SourceAlpha" type="matrix" values="0 0 0 0 0 0 0 0 0 0 0 0 0 0 0 0 0 0 127 0" result="hardAlpha"/>
<feOffset dy="4"/>
<feGaussianBlur stdDeviation="10"/>
<feComposite in2="hardAlpha" operator="out"/>
<feColorMatrix type="matrix" values="0 0 0 0 0.129412 0 0 0 0 0.870588 0 0 0 0 0.658824 0 0 0 1 0"/>
<feBlend mode="normal" in2="BackgroundImageFix" result="effect1_dropShadow"/>
<feBlend mode="normal" in="SourceGraphic" in2="effect1_dropShadow" result="shape"/>
</filter>
<filter id="filter9_di" x="526" y="559" width="141" height="141" filterUnits="userSpaceOnUse" color-interpolation-filters="sRGB">
<feFlood flood-opacity="0" result="BackgroundImageFix"/>
<feColorMatrix in="SourceAlpha" type="matrix" values="0 0 0 0 0 0 0 0 0 0 0 0 0 0 0 0 0 0 127 0" result="hardAlpha"/>
<feMorphology radius="5" operator="dilate" in="SourceAlpha" result="effect1_dropShadow"/>
<feOffset/>
<feGaussianBlur stdDeviation="25"/>
<feComposite in2="hardAlpha" operator="out"/>
<feColorMatrix type="matrix" values="0 0 0 0 0.129412 0 0 0 0 0.870588 0 0 0 0 0.658824 0 0 0 1 0"/>
<feBlend mode="normal" in2="BackgroundImageFix" result="effect1_dropShadow"/>
<feBlend mode="normal" in="SourceGraphic" in2="effect1_dropShadow" result="shape"/>
<feColorMatrix in="SourceAlpha" type="matrix" values="0 0 0 0 0 0 0 0 0 0 0 0 0 0 0 0 0 0 127 0" result="hardAlpha"/>
<feOffset/>
<feGaussianBlur stdDeviation="10"/>
<feComposite in2="hardAlpha" operator="arithmetic" k2="-1" k3="1"/>
<feColorMatrix type="matrix" values="0 0 0 0 0.129412 0 0 0 0 0.870588 0 0 0 0 0.658824 0 0 0 1 0"/>
<feBlend mode="normal" in2="shape" result="effect2_innerShadow"/>
</filter>
<filter id="filter10_di" x="622" y="555" width="141" height="141" filterUnits="userSpaceOnUse" color-interpolation-filters="sRGB">
<feFlood flood-opacity="0" result="BackgroundImageFix"/>
<feColorMatrix in="SourceAlpha" type="matrix" values="0 0 0 0 0 0 0 0 0 0 0 0 0 0 0 0 0 0 127 0" result="hardAlpha"/>
<feMorphology radius="5" operator="dilate" in="SourceAlpha" result="effect1_dropShadow"/>
<feOffset/>
<feGaussianBlur stdDeviation="25"/>
<feComposite in2="hardAlpha" operator="out"/>
<feColorMatrix type="matrix" values="0 0 0 0 0.129412 0 0 0 0 0.870588 0 0 0 0 0.658824 0 0 0 1 0"/>
<feBlend mode="normal" in2="BackgroundImageFix" result="effect1_dropShadow"/>
<feBlend mode="normal" in="SourceGraphic" in2="effect1_dropShadow" result="shape"/>
<feColorMatrix in="SourceAlpha" type="matrix" values="0 0 0 0 0 0 0 0 0 0 0 0 0 0 0 0 0 0 127 0" result="hardAlpha"/>
<feOffset/>
<feGaussianBlur stdDeviation="10"/>
<feComposite in2="hardAlpha" operator="arithmetic" k2="-1" k3="1"/>
<feColorMatrix type="matrix" values="0 0 0 0 0.129412 0 0 0 0 0.870588 0 0 0 0 0.658824 0 0 0 1 0"/>
<feBlend mode="normal" in2="shape" result="effect2_innerShadow"/>
</filter>
<filter id="filter11_d" x="681.226" y="487.467" width="1085.39" height="174.52" filterUnits="userSpaceOnUse" color-interpolation-filters="sRGB">
<feFlood flood-opacity="0" result="BackgroundImageFix"/>
<feColorMatrix in="SourceAlpha" type="matrix" values="0 0 0 0 0 0 0 0 0 0 0 0 0 0 0 0 0 0 127 0" result="hardAlpha"/>
<feOffset/>
<feGaussianBlur stdDeviation="10"/>
<feComposite in2="hardAlpha" operator="out"/>
<feColorMatrix type="matrix" values="0 0 0 0 0.129412 0 0 0 0 0.870588 0 0 0 0 0.658824 0 0 0 1 0"/>
<feBlend mode="normal" in2="BackgroundImageFix" result="effect1_dropShadow"/>
<feBlend mode="normal" in="SourceGraphic" in2="effect1_dropShadow" result="shape"/>
</filter>
</defs>
</svg>
