<svg width="1564" height="279" viewBox="0 0 1564 279" fill="none" xmlns="http://www.w3.org/2000/svg">
<rect x="-3" width="1589" height="83" fill="url(#paint0_linear)"/>
<path d="M686.832 181H694.368L682.224 147.4H672.96L660.816 181H668.352L670.512 174.712H684.672L686.832 181ZM672.336 169.384L677.376 154.744H677.808L682.848 169.384H672.336ZM697.699 181H704.899V169.816H711.283C720.211 169.816 724.099 165.16 724.099 158.632C724.099 152.056 720.211 147.4 711.283 147.4H697.699V181ZM704.899 163.576V153.64H711.043C714.979 153.64 716.707 155.608 716.707 158.632C716.707 161.608 714.979 163.576 711.043 163.576H704.899ZM727.887 181H735.087V169.816H741.471C750.399 169.816 754.287 165.16 754.287 158.632C754.287 152.056 750.399 147.4 741.471 147.4H727.887V181ZM735.087 163.576V153.64H741.231C745.167 153.64 746.895 155.608 746.895 158.632C746.895 161.608 745.167 163.576 741.231 163.576H735.087ZM758.074 181H781.498V174.76H765.274V166.792H779.578V161.176H765.274V153.64H781.018V147.4H758.074V181ZM785.309 181H792.509V159.352H792.653L805.901 181H813.677V147.4H806.477V169.48H806.333L792.797 147.4H785.309V181ZM818.918 181H831.638C842.102 181 847.526 175 847.526 164.2C847.526 153.4 842.102 147.4 831.638 147.4H818.918V181ZM826.118 174.76V153.64H830.918C837.782 153.64 840.182 156.808 840.182 164.2C840.182 171.592 837.782 174.76 830.918 174.76H826.118ZM851.777 181H858.977V147.4H851.777V181ZM893.197 181L881.773 163.672L892.525 147.4H884.461L877.741 157.576L871.021 147.4H862.957L873.709 163.672L862.285 181H870.349L877.741 169.816L885.133 181H893.197Z" fill="#E0DCDC"/>
<line x1="579.5" y1="83" x2="579.5" y2="278" stroke="white"/>
<line x1="987.5" y1="83" x2="987.5" y2="278" stroke="white"/>
<line x1="987" y1="278.5" x2="579" y2="278.5" stroke="white"/>
<path d="M605.5 84.2C606.48 84.2 607.28 83.44 607.28 82.46C607.28 81.5 606.48 80.72 605.5 80.72C604.54 80.72 603.74 81.5 603.74 82.46C603.74 83.44 604.54 84.2 605.5 84.2ZM615.246 84.2C616.226 84.2 617.026 83.44 617.026 82.46C617.026 81.5 616.226 80.72 615.246 80.72C614.286 80.72 613.486 81.5 613.486 82.46C613.486 83.44 614.286 84.2 615.246 84.2ZM624.992 84.2C625.972 84.2 626.772 83.44 626.772 82.46C626.772 81.5 625.972 80.72 624.992 80.72C624.032 80.72 623.232 81.5 623.232 82.46C623.232 83.44 624.032 84.2 624.992 84.2Z" fill="#BBCBFD"/>
<line x1="988" y1="82.5" x2="635" y2="82.5" stroke="white"/>
<line x1="597" y1="82.5" x2="580" y2="82.5" stroke="white"/>
<defs>
<linearGradient id="paint0_linear" x1="791.5" y1="0" x2="791.5" y2="83" gradientUnits="userSpaceOnUse">
<stop stop-color="#9158FD"/>
<stop offset="0.109375" stop-color="#9158FD" stop-opacity="0.418661"/>
<stop offset="0.223958" stop-color="#7C58FD" stop-opacity="0.327608"/>
<stop offset="0.317708" stop-color="#9158FD" stop-opacity="0.213542"/>
<stop offset="0.338542" stop-color="#9158FD" stop-opacity="0.213542"/>
<stop offset="0.526042" stop-color="#9158FD" stop-opacity="0.109501"/>
<stop offset="0.901042" stop-color="#9158FD" stop-opacity="0.0421811"/>
<stop offset="1" stop-color="#9158FD" stop-opacity="0"/>
<stop offset="1" stop-color="#9158FD" stop-opacity="0"/>
</linearGradient>
</defs>
</svg>
