<?xml version="1.0" encoding="UTF-8" standalone="no"?>
<!DOCTYPE svg PUBLIC "-//W3C//DTD SVG 1.1//EN" "http://www.w3.org/Graphics/SVG/1.1/DTD/svg11.dtd">
<svg version="1.1" xmlns="http://www.w3.org/2000/svg" xmlns:xlink="http://www.w3.org/1999/xlink" preserveAspectRatio="xMidYMid meet" viewBox="0 0 1526 740" width="1526" height="740"><defs><path d="M1526 0C1526 0 1526 0 1526 0C1526 444 1526 690.67 1526 740C1526 740 1526 740 1526 740C610.4 740 101.73 740 0 740C0 740 0 740 0 740C0 296 0 49.33 0 0C0 0 0 0 0 0C915.6 0 1424.27 0 1526 0Z" id="aDW8xBFqo"></path><path d="M54.38 541.98C53.26 541.82 52.06 541.66 52.06 541.66C50.13 541.66 40.51 541.66 23.18 541.66L23.18 543.74L23.18 552.86L49.18 552.86L49.18 552.94L51.02 552.94C51.07 552.89 51.09 552.87 51.1 552.86C51.18 552.86 51.26 552.86 51.34 552.86C53.5 552.86 55.18 554.62 55.18 556.7C55.18 558.86 53.5 560.54 51.34 560.54C50.21 560.54 44.55 560.54 34.38 560.54L23.18 560.54L23.18 594.46L34.38 594.46L34.38 571.82C45.23 571.82 51.25 571.82 52.46 571.82C52.46 571.82 52.78 571.82 54.78 571.34C56.78 570.86 56.86 570.78 56.86 570.78C58.94 569.9 60.86 568.62 62.38 566.94C65.02 564.22 66.38 560.54 66.38 556.7C66.38 550.14 62.22 544.54 56.22 542.46C55.85 542.36 55.5 542.22 54.38 541.98ZM108.43 566.46C108.51 566.46 108.59 566.38 108.67 566.3C108.68 566.29 108.74 566.23 108.75 566.22C108.83 566.22 108.91 566.14 108.91 566.06C109.07 565.98 109.15 565.9 109.31 565.82C109.39 565.74 109.55 565.58 109.71 565.5C109.71 565.42 109.79 565.42 109.79 565.42C109.87 565.34 110.03 565.18 110.11 565.1C110.43 564.78 110.75 564.54 111.15 564.14C114.75 560.54 117.31 556.06 118.35 551.1C118.83 549.18 118.99 547.26 118.99 545.34C118.99 544.7 118.99 544.06 118.91 543.5C118.9 543.37 118.88 542.7 118.83 541.5L74.43 541.5L74.43 552.7L98.43 552.7C102.89 552.7 105.37 552.7 105.87 552.7C105.15 553.98 104.27 555.18 103.23 556.14C101.87 557.5 100.35 558.54 98.59 559.34C98.51 559.34 98.51 559.34 98.43 559.42C96.59 560.14 94.59 560.54 92.59 560.54C91.38 560.54 85.32 560.54 74.43 560.54L74.43 594.46L85.63 594.46L85.63 571.82C89.8 571.82 92.12 571.82 92.59 571.82C92.75 571.82 92.91 571.74 93.07 571.74C93.07 571.74 93.1 571.74 93.15 571.74L93.23 571.74C93.32 571.74 93.38 571.74 93.39 571.74C93.55 571.74 93.63 571.74 93.79 571.74C93.87 571.74 93.95 571.74 93.95 571.74C94.11 571.74 94.27 571.74 94.43 571.74C94.44 571.74 94.49 571.74 94.59 571.74C94.64 571.69 94.66 571.67 94.67 571.66C94.83 571.66 94.99 571.66 95.23 571.66C95.39 571.66 95.55 571.58 95.79 571.58C95.87 571.58 95.95 571.58 96.03 571.58C96.19 571.5 96.35 571.5 96.51 571.5C96.59 571.5 96.67 571.5 96.75 571.42C96.83 571.42 96.99 571.42 97.15 571.42C97.47 571.34 97.79 571.26 98.11 571.18C99.01 572.67 103.55 580.11 111.71 593.5L112.35 594.46L125.47 594.46L123.55 591.26C114.48 576.38 109.44 568.11 108.43 566.46ZM123.88 568.14C123.88 582.7 135.64 594.46 150.2 594.46C164.68 594.46 176.52 582.7 176.52 568.14C176.52 553.66 164.68 541.82 150.2 541.82C135.64 541.82 123.88 553.66 123.88 568.14ZM150.2 583.5C141.72 583.5 134.84 576.62 134.84 568.14C134.84 559.74 141.72 552.86 150.2 552.86C158.6 552.86 165.48 559.74 165.48 568.14C165.48 576.62 158.6 583.5 150.2 583.5ZM214.5 577.74C211.54 581.26 207.3 583.26 202.66 583.26C200.26 583.26 197.94 582.7 195.78 581.58C195.78 580.8 195.78 576.88 195.78 569.82L184.58 569.82L184.58 587.34C185.02 587.72 185.26 587.94 185.3 587.98C187.54 589.98 190.1 591.5 192.9 592.62C196.02 593.9 199.3 594.46 202.66 594.46C208.1 594.46 213.3 592.86 217.78 589.82C220.82 587.66 223.46 584.86 225.38 581.66C225.41 581.63 225.51 581.47 225.7 581.18L225.7 541.5L214.5 541.5C214.5 563.24 214.5 575.32 214.5 577.74ZM233.8 543.74L233.8 552.86L281 552.86L281 541.66L233.8 541.66L233.8 543.74ZM276.28 571.9L276.28 560.7L245 560.7L233.8 560.62L233.8 583.26L233.8 585.34L233.8 594.46L281 594.46L281 583.26L245 583.26L245 571.9L276.28 571.9ZM327.48 574.62C324.92 579.9 319.56 583.26 313.72 583.26C306.52 583.26 300.2 578.14 298.76 571.1C298.52 570.14 298.44 569.02 298.44 567.98C298.44 566.94 298.52 565.98 298.76 564.94C300.12 557.82 306.44 552.7 313.72 552.7C319.88 552.7 325.4 556.38 327.8 561.98C327.84 562.07 328.02 562.49 328.36 563.26L339.96 563.26C339.48 561.68 339.21 560.8 339.16 560.62C337.64 555.18 334.28 550.3 329.8 546.86C325.16 543.34 319.56 541.5 313.72 541.5C307.32 541.5 301.08 543.82 296.28 548.06C291.48 552.22 288.36 557.98 287.48 564.22C287.32 565.5 287.24 566.7 287.24 567.98C287.24 569.26 287.32 570.62 287.48 571.9C288.36 578.14 291.56 583.82 296.28 587.98C301.16 592.22 307.32 594.46 313.72 594.46C319.4 594.46 324.84 592.7 329.48 589.34C333.96 585.98 337.24 581.5 338.92 576.22C338.98 576.03 339.27 575.1 339.8 573.42L328.04 573.42C327.7 574.14 327.52 574.54 327.48 574.62ZM369.95 560.7L358.75 560.7L358.75 594.46L369.95 594.46L369.95 560.7ZM340.99 552.86L358.75 552.86L369.95 552.86L388.59 552.86L388.59 541.66L340.99 541.66L340.99 552.86ZM62.22 627.3C57.9 623.46 52.38 621.14 46.7 620.74C45.13 620.73 37.29 620.71 23.18 620.66L23.18 631.86C36.47 631.86 43.86 631.86 45.34 631.86C46.14 631.94 46.94 632.02 47.66 632.18C49.9 632.66 51.98 633.62 53.82 634.98C56.86 637.22 58.86 640.5 59.66 644.18C59.82 645.14 59.9 646.18 59.9 647.14C59.9 648.26 59.82 649.3 59.58 650.34C58.3 656.5 53.26 661.3 47.02 662.26C46.18 662.26 41.96 662.26 34.38 662.26L34.38 639.7L23.18 639.7L23.18 673.46L47.74 673.46C47.83 673.46 47.89 673.46 47.9 673.46C59.66 672.02 69.18 662.82 70.86 651.06C71.02 649.78 71.18 648.5 71.18 647.14C71.18 645.94 71.1 644.66 70.86 643.46C69.98 637.22 66.94 631.46 62.22 627.3ZM79.19 622.74L79.19 631.86L126.39 631.86L126.39 620.66L79.19 620.66L79.19 622.74ZM121.67 650.9L121.67 639.7L90.39 639.7L79.19 639.62L79.19 662.26L79.19 664.34L79.19 673.46L126.39 673.46L126.39 662.26L90.39 662.26L90.39 650.9L121.67 650.9ZM146.91 641.46C144.27 641.46 142.11 639.3 142.11 636.66C142.11 634.02 144.27 631.86 146.91 631.86C148.66 631.86 162.68 631.86 164.43 631.86C166.19 632.42 167.39 634.02 167.39 635.94C168.49 635.94 177.26 635.94 178.35 635.94C178.35 634.5 178.19 633.14 177.79 631.86C176.03 625.38 170.11 620.66 163.07 620.66C161.46 620.66 148.53 620.66 146.91 620.66C141.15 620.66 135.79 623.7 132.99 628.74C131.63 631.14 130.91 633.86 130.91 636.66C130.91 639.46 131.63 642.18 132.99 644.58C133.63 645.7 134.35 646.66 135.15 647.54C138.19 650.74 142.43 652.66 146.91 652.66C148.43 652.66 160.59 652.66 162.11 652.66C164.75 652.66 166.83 654.82 166.83 657.46C166.83 660.1 164.75 662.26 162.11 662.26C160.38 662.26 146.49 662.26 144.75 662.26C143.07 661.7 141.87 660.1 141.87 658.18C140.78 658.18 132.01 658.18 130.91 658.18C130.91 659.62 131.07 660.98 131.39 662.26C133.23 668.74 139.15 673.46 146.19 673.46C147.78 673.46 160.52 673.46 162.11 673.46C167.79 673.46 173.15 670.42 175.95 665.46C177.39 662.98 178.11 660.26 178.11 657.46C178.11 654.66 177.39 651.94 175.95 649.54C173.15 644.58 167.79 641.46 162.11 641.46C159.07 641.46 148.43 641.46 146.91 641.46ZM222.32 653.62C219.76 658.9 214.4 662.26 208.56 662.26C201.36 662.26 195.04 657.14 193.6 650.1C193.36 649.14 193.28 648.02 193.28 646.98C193.28 645.94 193.36 644.98 193.6 643.94C194.96 636.82 201.28 631.7 208.56 631.7C214.72 631.7 220.24 635.38 222.64 640.98C222.68 641.07 222.87 641.49 223.2 642.26L234.8 642.26C234.32 640.68 234.06 639.8 234 639.62C232.48 634.18 229.12 629.3 224.64 625.86C220 622.34 214.4 620.5 208.56 620.5C202.16 620.5 195.92 622.82 191.12 627.06C186.32 631.22 183.2 636.98 182.32 643.22C182.16 644.5 182.08 645.7 182.08 646.98C182.08 648.26 182.16 649.62 182.32 650.9C183.2 657.14 186.4 662.82 191.12 666.98C196 671.22 202.16 673.46 208.56 673.46C214.24 673.46 219.68 671.7 224.32 668.34C228.8 664.98 232.08 660.5 233.76 655.22C233.82 655.03 234.12 654.1 234.64 652.42L222.88 652.42C222.55 653.14 222.36 653.54 222.32 653.62ZM276.87 645.46C276.95 645.46 277.03 645.38 277.11 645.3C277.11 645.29 277.18 645.23 277.19 645.22C277.27 645.22 277.35 645.14 277.35 645.06C277.51 644.98 277.59 644.9 277.75 644.82C277.83 644.74 277.99 644.58 278.15 644.5C278.15 644.42 278.23 644.42 278.23 644.42C278.31 644.34 278.47 644.18 278.55 644.1C278.87 643.78 279.19 643.54 279.59 643.14C283.19 639.54 285.75 635.06 286.79 630.1C287.27 628.18 287.43 626.26 287.43 624.34C287.43 623.7 287.43 623.06 287.35 622.5C287.34 622.37 287.31 621.7 287.27 620.5L242.87 620.5L242.87 631.7L266.87 631.7C271.33 631.7 273.81 631.7 274.31 631.7C273.59 632.98 272.71 634.18 271.67 635.14C270.31 636.5 268.79 637.54 267.03 638.34C266.95 638.34 266.95 638.34 266.87 638.42C265.03 639.14 263.03 639.54 261.03 639.54C259.82 639.54 253.76 639.54 242.87 639.54L242.87 673.46L254.07 673.46L254.07 650.82C258.24 650.82 260.56 650.82 261.03 650.82C261.19 650.82 261.35 650.74 261.51 650.74C261.51 650.74 261.54 650.74 261.59 650.74L261.67 650.74C261.76 650.74 261.82 650.74 261.83 650.74C261.99 650.74 262.07 650.74 262.23 650.74C262.31 650.74 262.38 650.74 262.38 650.74C262.55 650.74 262.71 650.74 262.87 650.74C262.88 650.74 262.93 650.74 263.03 650.74C263.07 650.69 263.1 650.67 263.11 650.66C263.27 650.66 263.43 650.66 263.67 650.66C263.83 650.66 263.99 650.58 264.23 650.58C264.31 650.58 264.39 650.58 264.47 650.58C264.63 650.5 264.79 650.5 264.95 650.5C265.03 650.5 265.11 650.5 265.19 650.42C265.27 650.42 265.43 650.42 265.59 650.42C265.91 650.34 266.23 650.26 266.55 650.18C267.45 651.67 271.99 659.11 280.15 672.5L280.79 673.46L293.91 673.46L291.99 670.26C282.91 655.38 277.87 647.11 276.87 645.46ZM302.01 673.46L313.21 673.46L313.21 620.58L302.01 620.58L302.01 673.46ZM354.22 620.98C353.1 620.82 351.9 620.66 351.9 620.66C349.98 620.66 340.35 620.66 323.02 620.66L323.02 622.74L323.02 631.86L349.02 631.86L349.02 631.94L350.86 631.94C350.91 631.89 350.94 631.87 350.94 631.86C351.02 631.86 351.1 631.86 351.18 631.86C353.34 631.86 355.02 633.62 355.02 635.7C355.02 637.86 353.34 639.54 351.18 639.54C350.05 639.54 344.4 639.54 334.22 639.54L323.02 639.54L323.02 673.46L334.22 673.46L334.22 650.82C345.07 650.82 351.1 650.82 352.3 650.82C352.3 650.82 352.62 650.82 354.62 650.34C356.62 649.86 356.7 649.78 356.7 649.78C358.78 648.9 360.7 647.62 362.22 645.94C364.86 643.22 366.22 639.54 366.22 635.7C366.22 629.14 362.06 623.54 356.06 621.46C355.69 621.36 355.34 621.22 354.22 620.98ZM401.43 639.7L390.23 639.7L390.23 673.46L401.43 673.46L401.43 639.7ZM372.47 631.86L390.23 631.86L401.43 631.86L420.07 631.86L420.07 620.66L372.47 620.66L372.47 631.86ZM428.1 673.46L439.3 673.46L439.3 620.58L428.1 620.58L428.1 673.46ZM447.32 647.14C447.32 661.7 459.08 673.46 473.64 673.46C488.12 673.46 499.96 661.7 499.96 647.14C499.96 632.66 488.12 620.82 473.64 620.82C459.08 620.82 447.32 632.66 447.32 647.14ZM473.64 662.5C465.16 662.5 458.28 655.62 458.28 647.14C458.28 638.74 465.16 631.86 473.64 631.86C482.04 631.86 488.92 638.74 488.92 647.14C488.92 655.62 482.04 662.5 473.64 662.5ZM519.22 673.46L519.22 655.62L508.02 644.42L508.02 673.46L519.22 673.46ZM539.62 649.06L510.74 620.26L508.02 620.26L508.02 621.62L508.02 626.66L508.02 633.38L519.22 644.58L526.9 652.26L540.18 665.54L548.1 673.46L550.82 673.46L550.82 620.58L539.62 620.58L539.62 649.06Z" id="aK0NAxqhL"></path><path d="M919 71C916.24 71 914 73.24 914 76C914 78.76 916.24 81 919 81C921.76 81 924 78.76 924 76C924 73.24 921.76 71 919 71Z" id="e7iDnJs7cd"></path><path d="M825 87.75C822.65 87.75 820.75 89.65 820.75 92C820.75 94.35 822.65 96.25 825 96.25C827.35 96.25 829.25 94.35 829.25 92C829.25 89.65 827.35 87.75 825 87.75Z" id="a6p2llNDS7"></path><path d="M1097 196C1094.79 196 1093 197.79 1093 200C1093 202.21 1094.79 204 1097 204C1099.21 204 1101 202.21 1101 200C1101 197.79 1099.21 196 1097 196Z" id="aJbSSDnHO"></path><path d="M1189 251C1186.79 251 1185 252.79 1185 255C1185 257.21 1186.79 259 1189 259C1191.21 259 1193 257.21 1193 255C1193 252.79 1191.21 251 1189 251Z" id="a1WZGukQ0b"></path><path d="M1134 231C1131.79 231 1130 232.79 1130 235C1130 237.21 1131.79 239 1134 239C1136.21 239 1138 237.21 1138 235C1138 232.79 1136.21 231 1134 231Z" id="c29yvcc8mw"></path><path d="M1003 96C1000.79 96 999 97.79 999 100C999 102.21 1000.79 104 1003 104C1005.21 104 1007 102.21 1007 100C1007 97.79 1005.21 96 1003 96Z" id="a646DrjCv"></path><path d="M1116 157C1113.79 157 1112 158.79 1112 161C1112 163.21 1113.79 165 1116 165C1118.21 165 1120 163.21 1120 161C1120 158.79 1118.21 157 1116 157Z" id="brbLrxADy"></path><path d="M928 157C925.79 157 924 158.79 924 161C924 163.21 925.79 165 928 165C930.21 165 932 163.21 932 161C932 158.79 930.21 157 928 157Z" id="g3tjOY84Fw"></path><path d="M901 114C898.79 114 897 115.79 897 118C897 120.21 898.79 122 901 122C903.21 122 905 120.21 905 118C905 115.79 903.21 114 901 114Z" id="a53wyoxoMd"></path><path d="M850 162C847.79 162 846 163.79 846 166C846 168.21 847.79 170 850 170C852.21 170 854 168.21 854 166C854 163.79 852.21 162 850 162Z" id="fzDa57cjF"></path><path d="M1469 299.5C1466.51 299.5 1464.5 301.51 1464.5 304C1464.5 306.49 1466.51 308.5 1469 308.5C1471.49 308.5 1473.5 306.49 1473.5 304C1473.5 301.51 1471.49 299.5 1469 299.5Z" id="n1b8VfdB3"></path><path d="M1417 287.5C1414.51 287.5 1412.5 289.51 1412.5 292C1412.5 294.49 1414.51 296.5 1417 296.5C1419.49 296.5 1421.5 294.49 1421.5 292C1421.5 289.51 1419.49 287.5 1417 287.5Z" id="bHieIRdif"></path><path d="M1342 318.5C1339.51 318.5 1337.5 320.51 1337.5 323C1337.5 325.49 1339.51 327.5 1342 327.5C1344.49 327.5 1346.5 325.49 1346.5 323C1346.5 320.51 1344.49 318.5 1342 318.5Z" id="a9wsROVwc"></path><path d="M1225 417.5C1222.51 417.5 1220.5 419.51 1220.5 422C1220.5 424.49 1222.51 426.5 1225 426.5C1227.49 426.5 1229.5 424.49 1229.5 422C1229.5 419.51 1227.49 417.5 1225 417.5Z" id="avmjrS3DJ"></path><path d="M1417 166.5C1414.51 166.5 1412.5 168.51 1412.5 171C1412.5 173.49 1414.51 175.5 1417 175.5C1419.49 175.5 1421.5 173.49 1421.5 171C1421.5 168.51 1419.49 166.5 1417 166.5Z" id="e7diQcftv"></path><path d="M1411 188.5C1408.51 188.5 1406.5 190.51 1406.5 193C1406.5 195.49 1408.51 197.5 1411 197.5C1413.49 197.5 1415.5 195.49 1415.5 193C1415.5 190.51 1413.49 188.5 1411 188.5Z" id="afAJovHyB"></path><path d="M1441 187.5C1438.51 187.5 1436.5 189.51 1436.5 192C1436.5 194.49 1438.51 196.5 1441 196.5C1443.49 196.5 1445.5 194.49 1445.5 192C1445.5 189.51 1443.49 187.5 1441 187.5Z" id="kyDNIbNaL"></path><path d="M1435 166.5C1432.51 166.5 1430.5 168.51 1430.5 171C1430.5 173.49 1432.51 175.5 1435 175.5C1437.49 175.5 1439.5 173.49 1439.5 171C1439.5 168.51 1437.49 166.5 1435 166.5Z" id="c50OEm7fM"></path><path d="M1451 167.5C1448.51 167.5 1446.5 169.51 1446.5 172C1446.5 174.49 1448.51 176.5 1451 176.5C1453.49 176.5 1455.5 174.49 1455.5 172C1455.5 169.51 1453.49 167.5 1451 167.5Z" id="b5wXKbQerw"></path><path d="M1153 66C1150.79 66 1149 67.79 1149 70C1149 72.21 1150.79 74 1153 74C1155.21 74 1157 72.21 1157 70C1157 67.79 1155.21 66 1153 66Z" id="asV0fC0PW"></path><path d="M1170 66C1167.79 66 1166 67.79 1166 70C1166 72.21 1167.79 74 1170 74C1172.21 74 1174 72.21 1174 70C1174 67.79 1172.21 66 1170 66Z" id="gmtH9DAl8"></path><path d="M1153 46C1150.79 46 1149 47.79 1149 50C1149 52.21 1150.79 54 1153 54C1155.21 54 1157 52.21 1157 50C1157 47.79 1155.21 46 1153 46Z" id="a2U9JZInqb"></path><path d="M1153 85C1150.79 85 1149 86.79 1149 89C1149 91.21 1150.79 93 1153 93C1155.21 93 1157 91.21 1157 89C1157 86.79 1155.21 85 1153 85Z" id="cp3yiHPFe"></path><path d="M1170 85C1167.79 85 1166 86.79 1166 89C1166 91.21 1167.79 93 1170 93C1172.21 93 1174 91.21 1174 89C1174 86.79 1172.21 85 1170 85Z" id="aOPXnwLZ"></path><path d="M1170 102C1167.79 102 1166 103.79 1166 106C1166 108.21 1167.79 110 1170 110C1172.21 110 1174 108.21 1174 106C1174 103.79 1172.21 102 1170 102Z" id="c1Lu3AlZSO"></path><path d="M1318 244.5C1315.51 244.5 1313.5 246.51 1313.5 249C1313.5 251.49 1315.51 253.5 1318 253.5C1320.49 253.5 1322.5 251.49 1322.5 249C1322.5 246.51 1320.49 244.5 1318 244.5Z" id="h5lxPZYGF0"></path><path d="M1360 208.5C1357.51 208.5 1355.5 210.51 1355.5 213C1355.5 215.49 1357.51 217.5 1360 217.5C1362.49 217.5 1364.5 215.49 1364.5 213C1364.5 210.51 1362.49 208.5 1360 208.5Z" id="a2dDCRp6jC"></path><path d="M1152 288C1149.79 288 1148 289.79 1148 292C1148 294.21 1149.79 296 1152 296C1154.21 296 1156 294.21 1156 292C1156 289.79 1154.21 288 1152 288Z" id="e3AJ3z9jkH"></path><path d="M1077 141C1074.79 141 1073 142.79 1073 145C1073 147.21 1074.79 149 1077 149C1079.21 149 1081 147.21 1081 145C1081 142.79 1079.21 141 1077 141Z" id="e29WvR1aza"></path><path d="M1229 251.5C1226.51 251.5 1224.5 253.51 1224.5 256C1224.5 258.49 1226.51 260.5 1229 260.5C1231.49 260.5 1233.5 258.49 1233.5 256C1233.5 253.51 1231.49 251.5 1229 251.5Z" id="l4UGPMoRpx"></path><path d="M1115 101.5C1112.51 101.5 1110.5 103.51 1110.5 106C1110.5 108.49 1112.51 110.5 1115 110.5C1117.49 110.5 1119.5 108.49 1119.5 106C1119.5 103.51 1117.49 101.5 1115 101.5Z" id="bH8sFzDp4"></path><path d="M1099 63.5C1096.51 63.5 1094.5 65.51 1094.5 68C1094.5 70.49 1096.51 72.5 1099 72.5C1101.49 72.5 1103.5 70.49 1103.5 68C1103.5 65.51 1101.49 63.5 1099 63.5Z" id="a3SqHg3fjV"></path><path d="M1095 140.5C1092.51 140.5 1090.5 142.51 1090.5 145C1090.5 147.49 1092.51 149.5 1095 149.5C1097.49 149.5 1099.5 147.49 1099.5 145C1099.5 142.51 1097.49 140.5 1095 140.5Z" id="b8mWbsEpJ"></path><path d="M1001 226C998.79 226 997 227.79 997 230C997 232.21 998.79 234 1001 234C1003.21 234 1005 232.21 1005 230C1005 227.79 1003.21 226 1001 226Z" id="ftKnOY3uW"></path><path d="M1000 243C997.79 243 996 244.79 996 247C996 249.21 997.79 251 1000 251C1002.21 251 1004 249.21 1004 247C1004 244.79 1002.21 243 1000 243Z" id="c618hDhrl"></path><path d="M1080 288C1077.79 288 1076 289.79 1076 292C1076 294.21 1077.79 296 1080 296C1082.21 296 1084 294.21 1084 292C1084 289.79 1082.21 288 1080 288Z" id="ck2n0BZNU"></path><path d="M1116 326C1113.79 326 1112 327.79 1112 330C1112 332.21 1113.79 334 1116 334C1118.21 334 1120 332.21 1120 330C1120 327.79 1118.21 326 1116 326Z" id="bazY9idTy"></path><path d="M1134 326C1131.79 326 1130 327.79 1130 330C1130 332.21 1131.79 334 1134 334C1136.21 334 1138 332.21 1138 330C1138 327.79 1136.21 326 1134 326Z" id="bzebncFEl"></path><path d="M1228 212C1225.79 212 1224 213.79 1224 216C1224 218.21 1225.79 220 1228 220C1230.21 220 1232 218.21 1232 216C1232 213.79 1230.21 212 1228 212Z" id="crqkcCS9"></path><path d="M1287 71C1284.79 71 1283 72.79 1283 75C1283 77.21 1284.79 79 1287 79C1289.21 79 1291 77.21 1291 75C1291 72.79 1289.21 71 1287 71Z" id="i3oW88Qc2t"></path><path d="M1342 191C1339.79 191 1338 192.79 1338 195C1338 197.21 1339.79 199 1342 199C1344.21 199 1346 197.21 1346 195C1346 192.79 1344.21 191 1342 191Z" id="c49e1NxZHE"></path><path d="M1134 360C1131.79 360 1130 361.79 1130 364C1130 366.21 1131.79 368 1134 368C1136.21 368 1138 366.21 1138 364C1138 361.79 1136.21 360 1134 360Z" id="b3yqxehWTn"></path><path d="M1115 360C1112.79 360 1111 361.79 1111 364C1111 366.21 1112.79 368 1115 368C1117.21 368 1119 366.21 1119 364C1119 361.79 1117.21 360 1115 360Z" id="cov6FdKrS"></path><path d="M1115 378C1112.79 378 1111 379.79 1111 382C1111 384.21 1112.79 386 1115 386C1117.21 386 1119 384.21 1119 382C1119 379.79 1117.21 378 1115 378Z" id="a17xYjx19n"></path><path d="M1080 326C1077.79 326 1076 327.79 1076 330C1076 332.21 1077.79 334 1080 334C1082.21 334 1084 332.21 1084 330C1084 327.79 1082.21 326 1080 326Z" id="d1E93q9Mgp"></path><path d="M901.5 281C897.91 281 895 283.91 895 287.5C895 291.09 897.91 294 901.5 294C905.09 294 908 291.09 908 287.5C908 283.91 905.09 281 901.5 281Z" id="fjRTZZVFu"></path><path d="M925.5 426C921.91 426 919 428.91 919 432.5C919 436.09 921.91 439 925.5 439C929.09 439 932 436.09 932 432.5C932 428.91 929.09 426 925.5 426Z" id="b17s3ZZ2EU"></path><path d="M993 372C990.24 372 988 374.24 988 377C988 379.76 990.24 382 993 382C995.76 382 998 379.76 998 377C998 374.24 995.76 372 993 372Z" id="aO2Gm5P2C"></path><path d="M924 327C921.24 327 919 329.24 919 332C919 334.76 921.24 337 924 337C926.76 337 929 334.76 929 332C929 329.24 926.76 327 924 327Z" id="bhDgrTPsE"></path><path d="M933 475.5C930.51 475.5 928.5 477.51 928.5 480C928.5 482.49 930.51 484.5 933 484.5C935.49 484.5 937.5 482.49 937.5 480C937.5 477.51 935.49 475.5 933 475.5Z" id="d644lgu88"></path><path d="M910 271C907.79 271 906 272.79 906 275C906 277.21 907.79 279 910 279C912.21 279 914 277.21 914 275C914 272.79 912.21 271 910 271Z" id="aixka8QyE"></path><path d="M972 399.5C969.51 399.5 967.5 401.51 967.5 404C967.5 406.49 969.51 408.5 972 408.5C974.49 408.5 976.5 406.49 976.5 404C976.5 401.51 974.49 399.5 972 399.5Z" id="a2sxRyWx2S"></path><path d="M746 320.5C743.51 320.5 741.5 322.51 741.5 325C741.5 327.49 743.51 329.5 746 329.5C748.49 329.5 750.5 327.49 750.5 325C750.5 322.51 748.49 320.5 746 320.5Z" id="j8ovSRTHLm"></path><path d="M1098 473.5C1095.51 473.5 1093.5 475.51 1093.5 478C1093.5 480.49 1095.51 482.5 1098 482.5C1100.49 482.5 1102.5 480.49 1102.5 478C1102.5 475.51 1100.49 473.5 1098 473.5Z" id="c1e5prZ6PV"></path><path d="M1046 554.5C1043.51 554.5 1041.5 556.51 1041.5 559C1041.5 561.49 1043.51 563.5 1046 563.5C1048.49 563.5 1050.5 561.49 1050.5 559C1050.5 556.51 1048.49 554.5 1046 554.5Z" id="aL73H5aEb"></path><path d="M1076 454.5C1073.51 454.5 1071.5 456.51 1071.5 459C1071.5 461.49 1073.51 463.5 1076 463.5C1078.49 463.5 1080.5 461.49 1080.5 459C1080.5 456.51 1078.49 454.5 1076 454.5Z" id="ft8td1dIM"></path><path d="M1113 454.5C1110.51 454.5 1108.5 456.51 1108.5 459C1108.5 461.49 1110.51 463.5 1113 463.5C1115.49 463.5 1117.5 461.49 1117.5 459C1117.5 456.51 1115.49 454.5 1113 454.5Z" id="gxdMeR9dC"></path><path d="M1008 458.5C1005.51 458.5 1003.5 460.51 1003.5 463C1003.5 465.49 1005.51 467.5 1008 467.5C1010.49 467.5 1012.5 465.49 1012.5 463C1012.5 460.51 1010.49 458.5 1008 458.5Z" id="adE57VBM"></path><path d="M1095 416.5C1092.51 416.5 1090.5 418.51 1090.5 421C1090.5 423.49 1092.51 425.5 1095 425.5C1097.49 425.5 1099.5 423.49 1099.5 421C1099.5 418.51 1097.49 416.5 1095 416.5Z" id="b7Cg6hzNEN"></path><path d="M1188 475C1185.24 475 1183 477.24 1183 480C1183 482.76 1185.24 485 1188 485C1190.76 485 1193 482.76 1193 480C1193 477.24 1190.76 475 1188 475Z" id="b31QURGm3y"></path><path d="M1169 437.5C1166.51 437.5 1164.5 439.51 1164.5 442C1164.5 444.49 1166.51 446.5 1169 446.5C1171.49 446.5 1173.5 444.49 1173.5 442C1173.5 439.51 1171.49 437.5 1169 437.5Z" id="a3XKyYgOng"></path><path d="M1012 462.5L1036 462.5L1053 445.5L1101.5 445.5L1110.5 453" id="c3WhMp1ldA"></path><path d="M1149.5 89.5L1138.5 89.5L1133 84L1133 33.5L1143 25L1399 25L1484.5 110L1484.5 663.5" id="a2DjxFH8sw"></path><path d="M1150 69.5L1145.5 69.5L1142 65L1142 43L1150 34.5L1395.5 34.5L1475.5 114L1475.5 262L1469.5 268.5L1469.5 299" id="bI9JXTZCB"></path><path d="M1156.5 47.5L1160.5 46L1390 46L1451 106.5L1451 166.5" id="b1fVDqsOcc"></path><path d="M1174 69.5L1185.5 69.5L1191 65L1191 57.5L1195.5 54.5L1385 54.5L1435 105L1435 165.5" id="b1ZI7EpZNE"></path><path d="M1173 89.5L1189.5 89.5L1199 82.5L1199 72L1207.5 64.5L1380.5 64.5L1417 102L1417 167" id="c8KeMNIF36"></path><path d="M1174 108L1203.5 108L1211 100.5L1211 94.5L1219 86L1332.5 86L1360 115L1360 206.5" id="bI3kbNi5g"></path><path d="M1002.5 249.5L1013 260.5L1105 260.5L1116 272.5L1116 324.5" id="a1eQdT51xB"></path><path d="M1005.5 233L1020 248.5L1110.5 248.5L1128 267.5L1128 326L1130.5 328" id="a83jrKrboh"></path><path d="M929 165L934.5 171L954 171L994 211L1028 211L1038 219.5L1134 219.5L1146 231.5L1146 284L1151 290" id="bKUYu39us"></path><path d="M901.5 122L901.5 126.5L906 129.5L944.5 129.5L1013 200L1077 200L1082.5 197L1082.5 186L1087 182L1111 182" id="g9ygk150l"></path><path d="M1099.5 200L1162 200L1188 226L1188 249" id="caPmAksFm"></path><path d="M825 88.5L825 82.5L835 77.5L927.5 77.5L947.5 99L980.5 99L1057.5 176.5L1103 176.5L1106.5 171L1126.5 171L1131.5 176.5" id="aQd28ID6R"></path><path d="M1007.5 101.5L1014.5 101.5L1074 163L1112 163" id="b14VVK4zY0"></path><path d="M1077.5 140.5L1077.5 136L1087 126.5L1112.5 126.5L1201 215.5L1223.5 215.5" id="b18IvFhOGL"></path><path d="M1098.5 144.5L1117.5 144.5L1225 252" id="jAVhgpx3T"></path><path d="M1104 69.5L1112.5 69.5L1112.5 79L1182 146.5L1227.5 146.5L1238.5 136.5L1238.5 118L1260 95.5L1315 95.5L1342.5 123L1342.5 190" id="beMJH5lYX"></path><path d="M905.5 288L922 288L984 350L1103.5 350L1110.5 354.5L1113 360" id="cgYNYKdmu"></path><path d="M912.5 278.5L914.5 280.5L922.5 280.5L987.5 346L1116.5 346L1131 360.5" id="d1buGR8CPo"></path><path d="M717.5 217.5L873.5 217.5L902 246.5L916.5 246.5L991.5 321L1073 321L1077 326" id="aF8dg7byS"></path><path d="M854 165L873 165L900 192.5L910 192.5L935 218L949.5 218L967.5 236L967.5 253L1006.5 293.5L1075 293.5" id="j825ybiII"></path><path d="M916.5 162L946 192.5L963 192.5L985.5 217L1024 217L1035 227L1124.5 227L1129.5 231.5" id="bb3BgWqk4"></path><path d="M0 696L887.5 696L911 683L911 627.5L946.5 589.5L1005.5 589.5L1023 572L1023 514" id="aBIBGsTm1"></path><path d="M1048.5 655.5L1058.5 644.5L1058.5 513L1092.5 480" id="a1jWq6Zr1c"></path><path d="M1139 706.5L1136 701L1136 570L1171.5 535.5L1171.5 447.5" id="cUl0L2F4X"></path><path d="M1151.5 632.5L1157 626.5L1157 585L1184.5 558L1184.5 519.5L1198.5 504L1198.5 486L1191.5 480.5" id="ayd15gFa"></path><path d="M1203 531L1214 521L1214 466L1193 444.5M1188 436.5L1188 404L1233.5 360L1233.5 336.5L1258.07 311.93L1409.07 311.93L1417.5 305.5L1417.5 295" id="e14LnBELke"></path><path d="M1203 527C1200.24 527 1198 529.24 1198 532C1198 534.76 1200.24 537 1203 537C1205.76 537 1208 534.76 1208 532C1208 529.24 1205.76 527 1203 527Z" id="aJVDavAbz"></path><path d="M1189 437.5C1186.51 437.5 1184.5 439.51 1184.5 442C1184.5 444.49 1186.51 446.5 1189 446.5C1191.49 446.5 1193.5 444.49 1193.5 442C1193.5 439.51 1191.49 437.5 1189 437.5Z" id="aahbPl5SO"></path><path d="M1226 455.5C1223.51 455.5 1221.5 457.51 1221.5 460C1221.5 462.49 1223.51 464.5 1226 464.5C1228.49 464.5 1230.5 462.49 1230.5 460C1230.5 457.51 1228.49 455.5 1226 455.5Z" id="d17HBhGLfD"></path><path d="M1227.66 422L1242.16 422L1247.65 415.39L1247.65 360.39L1272.5 337L1401.5 337L1428.5 310L1428.5 229L1411.5 211.5L1411.5 198.5" id="cnnhlg5o"></path><path d="M937 483.5L961.97 507.5L1007.47 507.5L1055 459L1070.5 459" id="dE8f94GTP"></path><path d="M1020 619.5L1045.5 594.5L1045.5 562" id="b2xTE0YHOf"></path><path d="M927 435.5C927 435.5 933 442.33 936.5 444.5C943.3 444.5 977.3 444.5 1038.5 444.5L1046.5 433.5L1086 433.5L1092.5 427" id="aELyp8MT0"></path><path d="M751 325L873.5 325L958.5 404L966.5 404" id="e4TAfT095"></path><path d="M997 378.5L1002.75 381L1057.25 381L1059 378.5L1085 378.5L1091 373.5L1101.5 373.5L1106 378.5L1106 385.5L1113.5 392.5L1129 392.5L1136 403.5L1149 403.5L1203.5 347L1203.5 328L1256.5 275L1355 275L1376 253.5L1376 108.5L1343.5 75.5L1290.5 75.5" id="dTnQ2QPN0"></path><path d="M928 331L958 331L981 355L1101.5 355L1106.5 358.5L1106.5 371.5L1113.5 378.5" id="echie5Yxy"></path><path d="M1023.5 504C1019.91 504 1017 506.91 1017 510.5C1017 514.09 1019.91 517 1023.5 517C1027.09 517 1030 514.09 1030 510.5C1030 506.91 1027.09 504 1023.5 504Z" id="d2jGYG5QBv"></path><path d="M1016.5 618C1012.91 618 1010 620.91 1010 624.5C1010 628.09 1012.91 631 1016.5 631C1020.09 631 1023 628.09 1023 624.5C1023 620.91 1020.09 618 1016.5 618Z" id="fnMzZlC7X"></path><path d="M1044.5 652C1040.91 652 1038 654.91 1038 658.5C1038 662.09 1040.91 665 1044.5 665C1048.09 665 1051 662.09 1051 658.5C1051 654.91 1048.09 652 1044.5 652Z" id="k17IP0YEt"></path><path d="M1140.5 703C1136.91 703 1134 705.91 1134 709.5C1134 713.09 1136.91 716 1140.5 716C1144.09 716 1147 713.09 1147 709.5C1147 705.91 1144.09 703 1140.5 703Z" id="c1bQLg96LL"></path><path d="M1146.5 629C1142.91 629 1140 631.91 1140 635.5C1140 639.09 1142.91 642 1146.5 642C1150.09 642 1153 639.09 1153 635.5C1153 631.91 1150.09 629 1146.5 629Z" id="cyDsmGwB1"></path><path d="M1116 177C1113.79 177 1112 178.79 1112 181C1112 183.21 1113.79 185 1116 185C1118.21 185 1120 183.21 1120 181C1120 178.79 1118.21 177 1116 177Z" id="b6quMIdq0a"></path><path d="M1134 177C1131.79 177 1130 178.79 1130 181C1130 183.21 1131.79 185 1134 185C1136.21 185 1138 183.21 1138 181C1138 178.79 1136.21 177 1134 177Z" id="ac3ZUkv8r"></path><path d="M914 154C911.79 154 910 155.79 910 158C910 160.21 911.79 162 914 162C916.21 162 918 160.21 918 158C918 155.79 916.21 154 914 154Z" id="a16Czctogq"></path><path d="M1097.25 286.5C1094.76 286.5 1092.75 288.51 1092.75 291C1092.75 293.49 1094.76 295.5 1097.25 295.5C1099.74 295.5 1101.75 293.49 1101.75 291C1101.75 288.51 1099.74 286.5 1097.25 286.5Z" id="a4BLmzq9p"></path><path d="M1097.25 304.5C1094.76 304.5 1092.75 306.51 1092.75 309C1092.75 311.49 1094.76 313.5 1097.25 313.5C1099.74 313.5 1101.75 311.49 1101.75 309C1101.75 306.51 1099.74 304.5 1097.25 304.5Z" id="chGwqVPsa"></path><path d="M884.25 146C882.04 146 880.25 147.79 880.25 150C880.25 152.21 882.04 154 884.25 154C886.46 154 888.25 152.21 888.25 150C888.25 147.79 886.46 146 884.25 146Z" id="b3qYuA4nVr"></path><path d="M908.25 166C906.04 166 904.25 167.79 904.25 170C904.25 172.21 906.04 174 908.25 174C910.46 174 912.25 172.21 912.25 170C912.25 167.79 910.46 166 908.25 166Z" id="frmKqCkRJ"></path><path d="M971.25 383L979.25 391.5L1105.75 391.5L1111.75 397" id="aIsdQNCPu"></path><path d="M949.25 411L1063.75 411L1071.25 403.5" id="a1x4pRrww9"></path><path d="M845.25 450L877.75 417.5L929.25 417.5L949.75 439.5L1025.25 439.5L1029.75 437" id="a2HTxSOblS"></path><path d="M908.25 434.5L908.25 440.5L917.25 449L1040.25 449L1051.25 438L1097.25 438L1110.75 424.5" id="d20RN7z2U"></path><path d="M1120.25 421.5L1140.75 421.5L1212.75 350L1212.75 332L1260.25 284.5L1359.25 284.5L1385.25 257.5L1385.25 94.5" id="epbdnaa7T"></path><path d="M1012.25 556L1012.25 544" id="c16uTMT6em"></path><path d="M1011.75 532L1011.75 509L1056.75 464L1066.25 464L1075.25 472" id="b1EK6l441M"></path><path d="M1040.75 522L1040.75 496L1057.75 479.5" id="i3bUydCe9E"></path><path d="M1003.75 498L1011.25 498L1059.25 449L1088.75 449L1093.75 453" id="aLc5SMgRH"></path><path d="M884.25 153.5L884.25 161.5L905.25 183L913.75 183L940.75 210L952.75 210L975.75 233L976.75 250.5L1012.75 286L1070.75 286L1075.75 280L1083.75 280L1089.25 286L1089.25 300L1094.75 306" id="d2B1D3BEy"></path><path d="M896.75 318C893.16 318 890.25 320.91 890.25 324.5C890.25 328.09 893.16 331 896.75 331C900.34 331 903.25 328.09 903.25 324.5C903.25 320.91 900.34 318 896.75 318Z" id="a1KwApAPfH"></path><path d="M896.75 318C893.16 318 890.25 320.91 890.25 324.5C890.25 328.09 893.16 331 896.75 331C900.34 331 903.25 328.09 903.25 324.5C903.25 320.91 900.34 318 896.75 318Z" id="ceTuN3aty"></path><path d="M1012.75 555C1009.16 555 1006.25 557.91 1006.25 561.5C1006.25 565.09 1009.16 568 1012.75 568C1016.34 568 1019.25 565.09 1019.25 561.5C1019.25 557.91 1016.34 555 1012.75 555Z" id="bLmvsI4UM"></path><path d="M1012.75 555C1009.16 555 1006.25 557.91 1006.25 561.5C1006.25 565.09 1009.16 568 1012.75 568C1016.34 568 1019.25 565.09 1019.25 561.5C1019.25 557.91 1016.34 555 1012.75 555Z" id="ceDMYuU54"></path><path d="M1012.25 533C1009.49 533 1007.25 535.24 1007.25 538C1007.25 540.76 1009.49 543 1012.25 543C1015.01 543 1017.25 540.76 1017.25 538C1017.25 535.24 1015.01 533 1012.25 533Z" id="d1cB1FoeTR"></path><path d="M1040.25 522C1037.49 522 1035.25 524.24 1035.25 527C1035.25 529.76 1037.49 532 1040.25 532C1043.01 532 1045.25 529.76 1045.25 527C1045.25 524.24 1043.01 522 1040.25 522Z" id="aWDofUeQn"></path><path d="M998.25 493C995.49 493 993.25 495.24 993.25 498C993.25 500.76 995.49 503 998.25 503C1001.01 503 1003.25 500.76 1003.25 498C1003.25 495.24 1001.01 493 998.25 493Z" id="a2yeSVyyY"></path><path d="M908.25 424C905.49 424 903.25 426.24 903.25 429C903.25 431.76 905.49 434 908.25 434C911.01 434 913.25 431.76 913.25 429C913.25 426.24 911.01 424 908.25 424Z" id="b3lEfGZIb4"></path><path d="M945.25 402C942.49 402 940.25 404.24 940.25 407C940.25 409.76 942.49 412 945.25 412C948.01 412 950.25 409.76 950.25 407C950.25 404.24 948.01 402 945.25 402Z" id="a1emy76KxL"></path><path d="M843.25 448C840.49 448 838.25 450.24 838.25 453C838.25 455.76 840.49 458 843.25 458C846.01 458 848.25 455.76 848.25 453C848.25 450.24 846.01 448 843.25 448Z" id="a3kvL1EnZy"></path><path d="M1061.25 470C1058.49 470 1056.25 472.24 1056.25 475C1056.25 477.76 1058.49 480 1061.25 480C1064.01 480 1066.25 477.76 1066.25 475C1066.25 472.24 1064.01 470 1061.25 470Z" id="d29ywhvlPb"></path><path d="M1032.25 428C1029.49 428 1027.25 430.24 1027.25 433C1027.25 435.76 1029.49 438 1032.25 438C1035.01 438 1037.25 435.76 1037.25 433C1037.25 430.24 1035.01 428 1032.25 428Z" id="a34cvZjWG"></path><path d="M1076.25 397C1073.49 397 1071.25 399.24 1071.25 402C1071.25 404.76 1073.49 407 1076.25 407C1079.01 407 1081.25 404.76 1081.25 402C1081.25 399.24 1079.01 397 1076.25 397Z" id="dpPu8Ljqw"></path><path d="M967.25 374C964.49 374 962.25 376.24 962.25 379C962.25 381.76 964.49 384 967.25 384C970.01 384 972.25 381.76 972.25 379C972.25 376.24 970.01 374 967.25 374Z" id="bhhi8nYJp"></path><path d="M957.25 339C954.49 339 952.25 341.24 952.25 344C952.25 346.76 954.49 349 957.25 349C960.01 349 962.25 346.76 962.25 344C962.25 341.24 960.01 339 957.25 339Z" id="a2zoHI6Zoz"></path><path d="M1095.25 359C1092.49 359 1090.25 361.24 1090.25 364C1090.25 366.76 1092.49 369 1095.25 369C1098.01 369 1100.25 366.76 1100.25 364C1100.25 361.24 1098.01 359 1095.25 359Z" id="ai7mukCSe"></path><path d="M1079.25 470C1076.49 470 1074.25 472.24 1074.25 475C1074.25 477.76 1076.49 480 1079.25 480C1082.01 480 1084.25 477.76 1084.25 475C1084.25 472.24 1082.01 470 1079.25 470Z" id="c1clEOdAf9"></path><path d="M1097.25 452C1094.49 452 1092.25 454.24 1092.25 457C1092.25 459.76 1094.49 462 1097.25 462C1100.01 462 1102.25 459.76 1102.25 457C1102.25 454.24 1100.01 452 1097.25 452Z" id="a1LBxV6QWk"></path><path d="M1114.25 416C1111.49 416 1109.25 418.24 1109.25 421C1109.25 423.76 1111.49 426 1114.25 426C1117.01 426 1119.25 423.76 1119.25 421C1119.25 418.24 1117.01 416 1114.25 416Z" id="fhF6mZcc9"></path><path d="M1115.25 396C1112.49 396 1110.25 398.24 1110.25 401C1110.25 403.76 1112.49 406 1115.25 406C1118.01 406 1120.25 403.76 1120.25 401C1120.25 398.24 1118.01 396 1115.25 396Z" id="grMfBKc3d"></path><path d="M1097.25 379C1095.04 379 1093.25 380.79 1093.25 383C1093.25 385.21 1095.04 387 1097.25 387C1099.46 387 1101.25 385.21 1101.25 383C1101.25 380.79 1099.46 379 1097.25 379Z" id="b5Cp2dYDha"></path><path d="M910.25 173.5L919.25 173.5L943.75 199L957.25 199L984.75 227L984.75 248.5L1016.75 280.5L1066.25 280.5L1072.75 274.5L1085.25 274.5L1095.25 283.5L1097.25 286.5" id="ah3oPscTN"></path><path d="M899.25 328L941.75 369L970.75 369L979.75 376.5L979.75 383L983.75 386L1059.75 386L1062.25 383.5L1092.25 383.5" id="cqJ45rCw"></path><path d="M603.75 243.5L836.75 243.5L908.75 317L908.75 331L921.25 343.5L951.25 343.5" id="f3tOsYyxj9"></path><path d="M960.75 348L972.75 361.5L998.75 361.5L1011.75 376L1054.25 376L1057.25 373L1083.25 373L1090.75 366.5" id="a6qLnIbkQ8"></path><path d="M1385.25 84C1382.49 84 1380.25 86.24 1380.25 89C1380.25 91.76 1382.49 94 1385.25 94C1388.01 94 1390.25 91.76 1390.25 89C1390.25 86.24 1388.01 84 1385.25 84Z" id="a3IvJASdQ9"></path></defs><g><g><g><use xlink:href="#aDW8xBFqo" opacity="1" fill="#191919" fill-opacity="1"></use><g><use xlink:href="#aDW8xBFqo" opacity="1" fill-opacity="0" stroke="#000000" stroke-width="1" stroke-opacity="0"></use></g></g><g><use xlink:href="#aK0NAxqhL" opacity="1" fill="#1bb187" fill-opacity="0.9"></use><g><use xlink:href="#aK0NAxqhL" opacity="1" fill-opacity="0" stroke="#000000" stroke-width="1" stroke-opacity="0"></use></g></g><g><use xlink:href="#e7iDnJs7cd" opacity="1" fill="#35eab7" fill-opacity="1"></use><g><use xlink:href="#e7iDnJs7cd" opacity="1" fill-opacity="0" stroke="#000000" stroke-width="1" stroke-opacity="0"></use></g></g><g><use xlink:href="#a6p2llNDS7" opacity="1" fill="#000000" fill-opacity="0"></use><g><use xlink:href="#a6p2llNDS7" opacity="1" fill-opacity="0" stroke="#21dea8" stroke-width="1.5" stroke-opacity="1"></use></g></g><g><use xlink:href="#aJbSSDnHO" opacity="1" fill="#000000" fill-opacity="0"></use><g><use xlink:href="#aJbSSDnHO" opacity="1" fill-opacity="0" stroke="#21dea8" stroke-width="2" stroke-opacity="1"></use></g></g><g><use xlink:href="#a1WZGukQ0b" opacity="1" fill="#000000" fill-opacity="0"></use><g><use xlink:href="#a1WZGukQ0b" opacity="1" fill-opacity="0" stroke="#21dea8" stroke-width="2" stroke-opacity="1"></use></g></g><g><use xlink:href="#c29yvcc8mw" opacity="1" fill="#000000" fill-opacity="0"></use><g><use xlink:href="#c29yvcc8mw" opacity="1" fill-opacity="0" stroke="#21dea8" stroke-width="2" stroke-opacity="1"></use></g></g><g><use xlink:href="#a646DrjCv" opacity="1" fill="#000000" fill-opacity="0"></use><g><use xlink:href="#a646DrjCv" opacity="1" fill-opacity="0" stroke="#21dea8" stroke-width="2" stroke-opacity="1"></use></g></g><g><use xlink:href="#brbLrxADy" opacity="1" fill="#000000" fill-opacity="0"></use><g><use xlink:href="#brbLrxADy" opacity="1" fill-opacity="0" stroke="#21dea8" stroke-width="2" stroke-opacity="1"></use></g></g><g><use xlink:href="#g3tjOY84Fw" opacity="1" fill="#000000" fill-opacity="0"></use><g><use xlink:href="#g3tjOY84Fw" opacity="1" fill-opacity="0" stroke="#21dea8" stroke-width="2" stroke-opacity="1"></use></g></g><g><use xlink:href="#a53wyoxoMd" opacity="1" fill="#000000" fill-opacity="0"></use><g><use xlink:href="#a53wyoxoMd" opacity="1" fill-opacity="0" stroke="#21dea8" stroke-width="2" stroke-opacity="1"></use></g></g><g><use xlink:href="#fzDa57cjF" opacity="1" fill="#000000" fill-opacity="0"></use><g><use xlink:href="#fzDa57cjF" opacity="1" fill-opacity="0" stroke="#21dea8" stroke-width="2" stroke-opacity="1"></use></g></g><g><use xlink:href="#n1b8VfdB3" opacity="1" fill="#000000" fill-opacity="0"></use><g><use xlink:href="#n1b8VfdB3" opacity="1" fill-opacity="0" stroke="#21dea8" stroke-width="3" stroke-opacity="1"></use></g></g><g><use xlink:href="#bHieIRdif" opacity="1" fill="#000000" fill-opacity="0"></use><g><use xlink:href="#bHieIRdif" opacity="1" fill-opacity="0" stroke="#21dea8" stroke-width="3" stroke-opacity="1"></use></g></g><g><use xlink:href="#a9wsROVwc" opacity="1" fill="#000000" fill-opacity="0"></use><g><use xlink:href="#a9wsROVwc" opacity="1" fill-opacity="0" stroke="#21dea8" stroke-width="3" stroke-opacity="1"></use></g></g><g><use xlink:href="#avmjrS3DJ" opacity="1" fill="#000000" fill-opacity="0"></use><g><use xlink:href="#avmjrS3DJ" opacity="1" fill-opacity="0" stroke="#21dea8" stroke-width="3" stroke-opacity="1"></use></g></g><g><use xlink:href="#e7diQcftv" opacity="1" fill="#000000" fill-opacity="0"></use><g><use xlink:href="#e7diQcftv" opacity="1" fill-opacity="0" stroke="#21dea8" stroke-width="3" stroke-opacity="1"></use></g></g><g><use xlink:href="#afAJovHyB" opacity="1" fill="#000000" fill-opacity="0"></use><g><use xlink:href="#afAJovHyB" opacity="1" fill-opacity="0" stroke="#21dea8" stroke-width="3" stroke-opacity="1"></use></g></g><g><use xlink:href="#kyDNIbNaL" opacity="1" fill="#000000" fill-opacity="0"></use><g><use xlink:href="#kyDNIbNaL" opacity="1" fill-opacity="0" stroke="#21dea8" stroke-width="3" stroke-opacity="1"></use></g></g><g><use xlink:href="#c50OEm7fM" opacity="1" fill="#000000" fill-opacity="0"></use><g><use xlink:href="#c50OEm7fM" opacity="1" fill-opacity="0" stroke="#21dea8" stroke-width="3" stroke-opacity="1"></use></g></g><g><use xlink:href="#b5wXKbQerw" opacity="1" fill="#000000" fill-opacity="0"></use><g><use xlink:href="#b5wXKbQerw" opacity="1" fill-opacity="0" stroke="#21dea8" stroke-width="3" stroke-opacity="1"></use></g></g><g><use xlink:href="#asV0fC0PW" opacity="1" fill="#000000" fill-opacity="0"></use><g><use xlink:href="#asV0fC0PW" opacity="1" fill-opacity="0" stroke="#21dea8" stroke-width="2" stroke-opacity="1"></use></g></g><g><use xlink:href="#gmtH9DAl8" opacity="1" fill="#000000" fill-opacity="0"></use><g><use xlink:href="#gmtH9DAl8" opacity="1" fill-opacity="0" stroke="#21dea8" stroke-width="2" stroke-opacity="1"></use></g></g><g><use xlink:href="#a2U9JZInqb" opacity="1" fill="#000000" fill-opacity="0"></use><g><use xlink:href="#a2U9JZInqb" opacity="1" fill-opacity="0" stroke="#21dea8" stroke-width="2" stroke-opacity="1"></use></g></g><g><use xlink:href="#cp3yiHPFe" opacity="1" fill="#000000" fill-opacity="0"></use><g><use xlink:href="#cp3yiHPFe" opacity="1" fill-opacity="0" stroke="#21dea8" stroke-width="2" stroke-opacity="1"></use></g></g><g><use xlink:href="#aOPXnwLZ" opacity="1" fill="#000000" fill-opacity="0"></use><g><use xlink:href="#aOPXnwLZ" opacity="1" fill-opacity="0" stroke="#21dea8" stroke-width="2" stroke-opacity="1"></use></g></g><g><use xlink:href="#c1Lu3AlZSO" opacity="1" fill="#000000" fill-opacity="0"></use><g><use xlink:href="#c1Lu3AlZSO" opacity="1" fill-opacity="0" stroke="#21dea8" stroke-width="2" stroke-opacity="1"></use></g></g><g><use xlink:href="#h5lxPZYGF0" opacity="1" fill="#000000" fill-opacity="0"></use><g><use xlink:href="#h5lxPZYGF0" opacity="1" fill-opacity="0" stroke="#21dea8" stroke-width="3" stroke-opacity="1"></use></g></g><g><use xlink:href="#a2dDCRp6jC" opacity="1" fill="#000000" fill-opacity="0"></use><g><use xlink:href="#a2dDCRp6jC" opacity="1" fill-opacity="0" stroke="#21dea8" stroke-width="3" stroke-opacity="1"></use></g></g><g><use xlink:href="#e3AJ3z9jkH" opacity="1" fill="#000000" fill-opacity="0"></use><g><use xlink:href="#e3AJ3z9jkH" opacity="1" fill-opacity="0" stroke="#21dea8" stroke-width="2" stroke-opacity="1"></use></g></g><g><use xlink:href="#e29WvR1aza" opacity="1" fill="#000000" fill-opacity="0"></use><g><use xlink:href="#e29WvR1aza" opacity="1" fill-opacity="0" stroke="#21dea8" stroke-width="2" stroke-opacity="1"></use></g></g><g><use xlink:href="#l4UGPMoRpx" opacity="1" fill="#000000" fill-opacity="0"></use><g><use xlink:href="#l4UGPMoRpx" opacity="1" fill-opacity="0" stroke="#21dea8" stroke-width="3" stroke-opacity="1"></use></g></g><g><use xlink:href="#bH8sFzDp4" opacity="1" fill="#000000" fill-opacity="0"></use><g><use xlink:href="#bH8sFzDp4" opacity="1" fill-opacity="0" stroke="#21dea8" stroke-width="3" stroke-opacity="1"></use></g></g><g><use xlink:href="#a3SqHg3fjV" opacity="1" fill="#000000" fill-opacity="0"></use><g><use xlink:href="#a3SqHg3fjV" opacity="1" fill-opacity="0" stroke="#21dea8" stroke-width="3" stroke-opacity="1"></use></g></g><g><use xlink:href="#b8mWbsEpJ" opacity="1" fill="#000000" fill-opacity="0"></use><g><use xlink:href="#b8mWbsEpJ" opacity="1" fill-opacity="0" stroke="#21dea8" stroke-width="3" stroke-opacity="1"></use></g></g><g><use xlink:href="#ftKnOY3uW" opacity="1" fill="#000000" fill-opacity="0"></use><g><use xlink:href="#ftKnOY3uW" opacity="1" fill-opacity="0" stroke="#21dea8" stroke-width="2" stroke-opacity="1"></use></g></g><g><use xlink:href="#c618hDhrl" opacity="1" fill="#000000" fill-opacity="0"></use><g><use xlink:href="#c618hDhrl" opacity="1" fill-opacity="0" stroke="#21dea8" stroke-width="2" stroke-opacity="1"></use></g></g><g><use xlink:href="#ck2n0BZNU" opacity="1" fill="#000000" fill-opacity="0"></use><g><use xlink:href="#ck2n0BZNU" opacity="1" fill-opacity="0" stroke="#21dea8" stroke-width="2" stroke-opacity="1"></use></g></g><g><use xlink:href="#bazY9idTy" opacity="1" fill="#000000" fill-opacity="0"></use><g><use xlink:href="#bazY9idTy" opacity="1" fill-opacity="0" stroke="#21dea8" stroke-width="2" stroke-opacity="1"></use></g></g><g><use xlink:href="#bzebncFEl" opacity="1" fill="#000000" fill-opacity="0"></use><g><use xlink:href="#bzebncFEl" opacity="1" fill-opacity="0" stroke="#21dea8" stroke-width="2" stroke-opacity="1"></use></g></g><g><use xlink:href="#crqkcCS9" opacity="1" fill="#000000" fill-opacity="0"></use><g><use xlink:href="#crqkcCS9" opacity="1" fill-opacity="0" stroke="#21dea8" stroke-width="2" stroke-opacity="1"></use></g></g><g><use xlink:href="#i3oW88Qc2t" opacity="1" fill="#000000" fill-opacity="0"></use><g><use xlink:href="#i3oW88Qc2t" opacity="1" fill-opacity="0" stroke="#21dea8" stroke-width="2" stroke-opacity="1"></use></g></g><g><use xlink:href="#c49e1NxZHE" opacity="1" fill="#000000" fill-opacity="0"></use><g><use xlink:href="#c49e1NxZHE" opacity="1" fill-opacity="0" stroke="#21dea8" stroke-width="2" stroke-opacity="1"></use></g></g><g><use xlink:href="#b3yqxehWTn" opacity="1" fill="#000000" fill-opacity="0"></use><g><use xlink:href="#b3yqxehWTn" opacity="1" fill-opacity="0" stroke="#21dea8" stroke-width="2" stroke-opacity="1"></use></g></g><g><use xlink:href="#cov6FdKrS" opacity="1" fill="#000000" fill-opacity="0"></use><g><use xlink:href="#cov6FdKrS" opacity="1" fill-opacity="0" stroke="#21dea8" stroke-width="2" stroke-opacity="1"></use></g></g><g><use xlink:href="#a17xYjx19n" opacity="1" fill="#000000" fill-opacity="0"></use><g><use xlink:href="#a17xYjx19n" opacity="1" fill-opacity="0" stroke="#21dea8" stroke-width="2" stroke-opacity="1"></use></g></g><g><use xlink:href="#d1E93q9Mgp" opacity="1" fill="#000000" fill-opacity="0"></use><g><use xlink:href="#d1E93q9Mgp" opacity="1" fill-opacity="0" stroke="#21dea8" stroke-width="2" stroke-opacity="1"></use></g></g><g><use xlink:href="#fjRTZZVFu" opacity="1" fill="#35eab7" fill-opacity="1"></use><g><use xlink:href="#fjRTZZVFu" opacity="1" fill-opacity="0" stroke="#000000" stroke-width="1" stroke-opacity="0"></use></g></g><g><use xlink:href="#b17s3ZZ2EU" opacity="1" fill="#35eab7" fill-opacity="1"></use><g><use xlink:href="#b17s3ZZ2EU" opacity="1" fill-opacity="0" stroke="#000000" stroke-width="1" stroke-opacity="0"></use></g></g><g><use xlink:href="#aO2Gm5P2C" opacity="1" fill="#35eab7" fill-opacity="1"></use><g><use xlink:href="#aO2Gm5P2C" opacity="1" fill-opacity="0" stroke="#000000" stroke-width="1" stroke-opacity="0"></use></g></g><g><use xlink:href="#bhDgrTPsE" opacity="1" fill="#35eab7" fill-opacity="1"></use><g><use xlink:href="#bhDgrTPsE" opacity="1" fill-opacity="0" stroke="#000000" stroke-width="1" stroke-opacity="0"></use></g></g><g><use xlink:href="#d644lgu88" opacity="1" fill="#000000" fill-opacity="0"></use><g><use xlink:href="#d644lgu88" opacity="1" fill-opacity="0" stroke="#21dea8" stroke-width="3" stroke-opacity="1"></use></g></g><g><use xlink:href="#aixka8QyE" opacity="1" fill="#000000" fill-opacity="0"></use><g><use xlink:href="#aixka8QyE" opacity="1" fill-opacity="0" stroke="#21dea8" stroke-width="2" stroke-opacity="1"></use></g></g><g><use xlink:href="#a2sxRyWx2S" opacity="1" fill="#000000" fill-opacity="0"></use><g><use xlink:href="#a2sxRyWx2S" opacity="1" fill-opacity="0" stroke="#21dea8" stroke-width="3" stroke-opacity="1"></use></g></g><g><use xlink:href="#j8ovSRTHLm" opacity="1" fill="#000000" fill-opacity="0"></use><g><use xlink:href="#j8ovSRTHLm" opacity="1" fill-opacity="0" stroke="#21dea8" stroke-width="3" stroke-opacity="1"></use></g></g><g><use xlink:href="#c1e5prZ6PV" opacity="1" fill="#000000" fill-opacity="0"></use><g><use xlink:href="#c1e5prZ6PV" opacity="1" fill-opacity="0" stroke="#21dea8" stroke-width="3" stroke-opacity="1"></use></g></g><g><use xlink:href="#aL73H5aEb" opacity="1" fill="#000000" fill-opacity="0"></use><g><use xlink:href="#aL73H5aEb" opacity="1" fill-opacity="0" stroke="#21dea8" stroke-width="3" stroke-opacity="1"></use></g></g><g><use xlink:href="#ft8td1dIM" opacity="1" fill="#000000" fill-opacity="0"></use><g><use xlink:href="#ft8td1dIM" opacity="1" fill-opacity="0" stroke="#21dea8" stroke-width="3" stroke-opacity="1"></use></g></g><g><use xlink:href="#gxdMeR9dC" opacity="1" fill="#000000" fill-opacity="0"></use><g><use xlink:href="#gxdMeR9dC" opacity="1" fill-opacity="0" stroke="#21dea8" stroke-width="3" stroke-opacity="1"></use></g></g><g><use xlink:href="#adE57VBM" opacity="1" fill="#000000" fill-opacity="0"></use><g><use xlink:href="#adE57VBM" opacity="1" fill-opacity="0" stroke="#21dea8" stroke-width="3" stroke-opacity="1"></use></g></g><g><use xlink:href="#b7Cg6hzNEN" opacity="1" fill="#000000" fill-opacity="0"></use><g><use xlink:href="#b7Cg6hzNEN" opacity="1" fill-opacity="0" stroke="#21dea8" stroke-width="3" stroke-opacity="1"></use></g></g><g><use xlink:href="#b31QURGm3y" opacity="1" fill="#000000" fill-opacity="0"></use><g><use xlink:href="#b31QURGm3y" opacity="1" fill-opacity="0" stroke="#21dea8" stroke-width="2" stroke-opacity="1"></use></g></g><g><use xlink:href="#a3XKyYgOng" opacity="1" fill="#000000" fill-opacity="0"></use><g><use xlink:href="#a3XKyYgOng" opacity="1" fill-opacity="0" stroke="#21dea8" stroke-width="3" stroke-opacity="1"></use></g></g><g><use xlink:href="#c3WhMp1ldA" opacity="1" fill="#000000" fill-opacity="0"></use><g><use xlink:href="#c3WhMp1ldA" opacity="1" fill-opacity="0" stroke="#21dea8" stroke-width="1" stroke-opacity="1"></use></g></g><g><use xlink:href="#a2DjxFH8sw" opacity="1" fill="#000000" fill-opacity="0"></use><g><use xlink:href="#a2DjxFH8sw" opacity="1" fill-opacity="0" stroke="#21dea8" stroke-width="2" stroke-opacity="1"></use></g></g><g><use xlink:href="#bI9JXTZCB" opacity="1" fill="#000000" fill-opacity="0"></use><g><use xlink:href="#bI9JXTZCB" opacity="1" fill-opacity="0" stroke="#21dea8" stroke-width="1" stroke-opacity="1"></use></g></g><g><use xlink:href="#b1fVDqsOcc" opacity="1" fill="#000000" fill-opacity="0"></use><g><use xlink:href="#b1fVDqsOcc" opacity="1" fill-opacity="0" stroke="#21dea8" stroke-width="3" stroke-opacity="1"></use></g></g><g><use xlink:href="#b1ZI7EpZNE" opacity="1" fill="#000000" fill-opacity="0"></use><g><use xlink:href="#b1ZI7EpZNE" opacity="1" fill-opacity="0" stroke="#21dea8" stroke-width="1" stroke-opacity="1"></use></g></g><g><use xlink:href="#c8KeMNIF36" opacity="1" fill="#000000" fill-opacity="0"></use><g><use xlink:href="#c8KeMNIF36" opacity="1" fill-opacity="0" stroke="#21dea8" stroke-width="2" stroke-opacity="1"></use></g></g><g><use xlink:href="#bI3kbNi5g" opacity="1" fill="#000000" fill-opacity="0"></use><g><use xlink:href="#bI3kbNi5g" opacity="1" fill-opacity="0" stroke="#21dea8" stroke-width="1" stroke-opacity="1"></use></g></g><g><use xlink:href="#a1eQdT51xB" opacity="1" fill="#000000" fill-opacity="0"></use><g><use xlink:href="#a1eQdT51xB" opacity="1" fill-opacity="0" stroke="#21dea8" stroke-width="1.5" stroke-opacity="1"></use></g></g><g><use xlink:href="#a83jrKrboh" opacity="1" fill="#000000" fill-opacity="0"></use><g><use xlink:href="#a83jrKrboh" opacity="1" fill-opacity="0" stroke="#21dea8" stroke-width="2" stroke-opacity="1"></use></g></g><g><use xlink:href="#bKUYu39us" opacity="1" fill="#000000" fill-opacity="0"></use><g><use xlink:href="#bKUYu39us" opacity="1" fill-opacity="0" stroke="#21dea8" stroke-width="2" stroke-opacity="1"></use></g></g><g><use xlink:href="#g9ygk150l" opacity="1" fill="#000000" fill-opacity="0"></use><g><use xlink:href="#g9ygk150l" opacity="1" fill-opacity="0" stroke="#21dea8" stroke-width="1" stroke-opacity="1"></use></g></g><g><use xlink:href="#caPmAksFm" opacity="1" fill="#000000" fill-opacity="0"></use><g><use xlink:href="#caPmAksFm" opacity="1" fill-opacity="0" stroke="#21dea8" stroke-width="1" stroke-opacity="1"></use></g></g><g><use xlink:href="#aQd28ID6R" opacity="1" fill="#000000" fill-opacity="0"></use><g><use xlink:href="#aQd28ID6R" opacity="1" fill-opacity="0" stroke="#21dea8" stroke-width="1" stroke-opacity="1"></use></g></g><g><use xlink:href="#b14VVK4zY0" opacity="1" fill="#000000" fill-opacity="0"></use><g><use xlink:href="#b14VVK4zY0" opacity="1" fill-opacity="0" stroke="#21dea8" stroke-width="1" stroke-opacity="1"></use></g></g><g><use xlink:href="#b18IvFhOGL" opacity="1" fill="#000000" fill-opacity="0"></use><g><use xlink:href="#b18IvFhOGL" opacity="1" fill-opacity="0" stroke="#21dea8" stroke-width="1" stroke-opacity="1"></use></g></g><g><use xlink:href="#jAVhgpx3T" opacity="1" fill="#000000" fill-opacity="0"></use><g><use xlink:href="#jAVhgpx3T" opacity="1" fill-opacity="0" stroke="#21dea8" stroke-width="3" stroke-opacity="1"></use></g></g><g><use xlink:href="#beMJH5lYX" opacity="1" fill="#000000" fill-opacity="0"></use><g><use xlink:href="#beMJH5lYX" opacity="1" fill-opacity="0" stroke="#21dea8" stroke-width="3" stroke-opacity="1"></use></g></g><g><use xlink:href="#cgYNYKdmu" opacity="1" fill="#000000" fill-opacity="0"></use><g><use xlink:href="#cgYNYKdmu" opacity="1" fill-opacity="0" stroke="#21dea8" stroke-width="1" stroke-opacity="1"></use></g></g><g><use xlink:href="#d1buGR8CPo" opacity="1" fill="#000000" fill-opacity="0"></use><g><use xlink:href="#d1buGR8CPo" opacity="1" fill-opacity="0" stroke="#21dea8" stroke-width="2" stroke-opacity="1"></use></g></g><g><use xlink:href="#aF8dg7byS" opacity="1" fill="#000000" fill-opacity="0"></use><g><use xlink:href="#aF8dg7byS" opacity="1" fill-opacity="0" stroke="#21dea8" stroke-width="1" stroke-opacity="1"></use></g></g><g><use xlink:href="#j825ybiII" opacity="1" fill="#000000" fill-opacity="0"></use><g><use xlink:href="#j825ybiII" opacity="1" fill-opacity="0" stroke="#21dea8" stroke-width="1" stroke-opacity="1"></use></g></g><g><use xlink:href="#bb3BgWqk4" opacity="1" fill="#000000" fill-opacity="0"></use><g><use xlink:href="#bb3BgWqk4" opacity="1" fill-opacity="0" stroke="#21dea8" stroke-width="1" stroke-opacity="1"></use></g></g><g><use xlink:href="#aBIBGsTm1" opacity="1" fill="#000000" fill-opacity="0"></use><g><use xlink:href="#aBIBGsTm1" opacity="1" fill-opacity="0" stroke="#21dea8" stroke-width="2" stroke-opacity="1"></use></g></g><g><use xlink:href="#a1jWq6Zr1c" opacity="1" fill="#000000" fill-opacity="0"></use><g><use xlink:href="#a1jWq6Zr1c" opacity="1" fill-opacity="0" stroke="#21dea8" stroke-width="2" stroke-opacity="1"></use></g></g><g><use xlink:href="#cUl0L2F4X" opacity="1" fill="#000000" fill-opacity="0"></use><g><use xlink:href="#cUl0L2F4X" opacity="1" fill-opacity="0" stroke="#21dea8" stroke-width="3" stroke-opacity="1"></use></g></g><g><use xlink:href="#ayd15gFa" opacity="1" fill="#000000" fill-opacity="0"></use><g><use xlink:href="#ayd15gFa" opacity="1" fill-opacity="0" stroke="#21dea8" stroke-width="1" stroke-opacity="1"></use></g></g><g><use xlink:href="#e14LnBELke" opacity="1" fill="#000000" fill-opacity="0"></use><g><use xlink:href="#e14LnBELke" opacity="1" fill-opacity="0" stroke="#21dea8" stroke-width="3" stroke-opacity="1"></use></g></g><g><use xlink:href="#aJVDavAbz" opacity="1" fill="#35eab7" fill-opacity="1"></use><g><use xlink:href="#aJVDavAbz" opacity="1" fill-opacity="0" stroke="#000000" stroke-width="1" stroke-opacity="0"></use></g></g><g><use xlink:href="#aahbPl5SO" opacity="1" fill="#000000" fill-opacity="0"></use><g><use xlink:href="#aahbPl5SO" opacity="1" fill-opacity="0" stroke="#21dea8" stroke-width="3" stroke-opacity="1"></use></g></g><g><use xlink:href="#d17HBhGLfD" opacity="1" fill="#000000" fill-opacity="0"></use><g><use xlink:href="#d17HBhGLfD" opacity="1" fill-opacity="0" stroke="#21dea8" stroke-width="3" stroke-opacity="1"></use></g></g><g><use xlink:href="#cnnhlg5o" opacity="1" fill="#000000" fill-opacity="0"></use><g><use xlink:href="#cnnhlg5o" opacity="1" fill-opacity="0" stroke="#21dea8" stroke-width="1.5" stroke-opacity="1"></use></g></g><g><use xlink:href="#dE8f94GTP" opacity="1" fill="#000000" fill-opacity="0"></use><g><use xlink:href="#dE8f94GTP" opacity="1" fill-opacity="0" stroke="#21dea8" stroke-width="1" stroke-opacity="1"></use></g></g><g><use xlink:href="#b2xTE0YHOf" opacity="1" fill="#000000" fill-opacity="0"></use><g><use xlink:href="#b2xTE0YHOf" opacity="1" fill-opacity="0" stroke="#21dea8" stroke-width="2" stroke-opacity="1"></use></g></g><g><use xlink:href="#aELyp8MT0" opacity="1" fill="#000000" fill-opacity="0"></use><g><use xlink:href="#aELyp8MT0" opacity="1" fill-opacity="0" stroke="#21dea8" stroke-width="1" stroke-opacity="1"></use></g></g><g><use xlink:href="#e4TAfT095" opacity="1" fill="#000000" fill-opacity="0"></use><g><use xlink:href="#e4TAfT095" opacity="1" fill-opacity="0" stroke="#21dea8" stroke-width="1" stroke-opacity="1"></use></g></g><g><use xlink:href="#dTnQ2QPN0" opacity="1" fill="#000000" fill-opacity="0"></use><g><use xlink:href="#dTnQ2QPN0" opacity="1" fill-opacity="0" stroke="#21dea8" stroke-width="1" stroke-opacity="1"></use></g></g><g><use xlink:href="#echie5Yxy" opacity="1" fill="#000000" fill-opacity="0"></use><g><use xlink:href="#echie5Yxy" opacity="1" fill-opacity="0" stroke="#21dea8" stroke-width="1" stroke-opacity="1"></use></g></g><g><use xlink:href="#d2jGYG5QBv" opacity="1" fill="#35eab7" fill-opacity="1"></use><g><use xlink:href="#d2jGYG5QBv" opacity="1" fill-opacity="0" stroke="#000000" stroke-width="1" stroke-opacity="0"></use></g></g><g><use xlink:href="#fnMzZlC7X" opacity="1" fill="#35eab7" fill-opacity="1"></use><g><use xlink:href="#fnMzZlC7X" opacity="1" fill-opacity="0" stroke="#000000" stroke-width="1" stroke-opacity="0"></use></g></g><g><use xlink:href="#k17IP0YEt" opacity="1" fill="#35eab7" fill-opacity="1"></use><g><use xlink:href="#k17IP0YEt" opacity="1" fill-opacity="0" stroke="#000000" stroke-width="1" stroke-opacity="0"></use></g></g><g><use xlink:href="#c1bQLg96LL" opacity="1" fill="#35eab7" fill-opacity="1"></use><g><use xlink:href="#c1bQLg96LL" opacity="1" fill-opacity="0" stroke="#000000" stroke-width="1" stroke-opacity="0"></use></g></g><g><use xlink:href="#cyDsmGwB1" opacity="1" fill="#35eab7" fill-opacity="1"></use><g><use xlink:href="#cyDsmGwB1" opacity="1" fill-opacity="0" stroke="#000000" stroke-width="1" stroke-opacity="0"></use></g></g><g><use xlink:href="#b6quMIdq0a" opacity="1" fill="#000000" fill-opacity="0"></use><g><use xlink:href="#b6quMIdq0a" opacity="1" fill-opacity="0" stroke="#21dea8" stroke-width="2" stroke-opacity="1"></use></g></g><g><use xlink:href="#ac3ZUkv8r" opacity="1" fill="#000000" fill-opacity="0"></use><g><use xlink:href="#ac3ZUkv8r" opacity="1" fill-opacity="0" stroke="#21dea8" stroke-width="2" stroke-opacity="1"></use></g></g><g><use xlink:href="#a16Czctogq" opacity="1" fill="#000000" fill-opacity="0"></use><g><use xlink:href="#a16Czctogq" opacity="1" fill-opacity="0" stroke="#21dea8" stroke-width="2" stroke-opacity="1"></use></g></g><g><use xlink:href="#a4BLmzq9p" opacity="1" fill="#000000" fill-opacity="0"></use><g><use xlink:href="#a4BLmzq9p" opacity="1" fill-opacity="0" stroke="#884efa" stroke-width="1" stroke-opacity="0.58"></use></g></g><g><use xlink:href="#chGwqVPsa" opacity="1" fill="#000000" fill-opacity="0"></use><g><use xlink:href="#chGwqVPsa" opacity="1" fill-opacity="0" stroke="#884efa" stroke-width="1" stroke-opacity="0.58"></use></g></g><g><use xlink:href="#b3qYuA4nVr" opacity="1" fill="#000000" fill-opacity="0"></use><g><use xlink:href="#b3qYuA4nVr" opacity="1" fill-opacity="0" stroke="#884efa" stroke-width="2" stroke-opacity="0.58"></use></g></g><g><use xlink:href="#frmKqCkRJ" opacity="1" fill="#000000" fill-opacity="0"></use><g><use xlink:href="#frmKqCkRJ" opacity="1" fill-opacity="0" stroke="#884efa" stroke-width="2" stroke-opacity="0.58"></use></g></g><g><use xlink:href="#aIsdQNCPu" opacity="1" fill="#000000" fill-opacity="0"></use><g><use xlink:href="#aIsdQNCPu" opacity="1" fill-opacity="0" stroke="#884efa" stroke-width="2" stroke-opacity="0.58"></use></g></g><g><use xlink:href="#a1x4pRrww9" opacity="1" fill="#000000" fill-opacity="0"></use><g><use xlink:href="#a1x4pRrww9" opacity="1" fill-opacity="0" stroke="#884efa" stroke-width="2" stroke-opacity="0.58"></use></g></g><g><use xlink:href="#a2HTxSOblS" opacity="1" fill="#000000" fill-opacity="0"></use><g><use xlink:href="#a2HTxSOblS" opacity="1" fill-opacity="0" stroke="#884efa" stroke-width="2" stroke-opacity="0.58"></use></g></g><g><use xlink:href="#d20RN7z2U" opacity="1" fill="#000000" fill-opacity="0"></use><g><use xlink:href="#d20RN7z2U" opacity="1" fill-opacity="0" stroke="#884efa" stroke-width="2" stroke-opacity="0.58"></use></g></g><g><use xlink:href="#epbdnaa7T" opacity="1" fill="#000000" fill-opacity="0"></use><g><use xlink:href="#epbdnaa7T" opacity="1" fill-opacity="0" stroke="#884efa" stroke-width="1" stroke-opacity="0.58"></use></g></g><g><use xlink:href="#c16uTMT6em" opacity="1" fill="#000000" fill-opacity="0"></use><g><use xlink:href="#c16uTMT6em" opacity="1" fill-opacity="0" stroke="#884efa" stroke-width="1" stroke-opacity="0.58"></use></g></g><g><use xlink:href="#b1EK6l441M" opacity="1" fill="#000000" fill-opacity="0"></use><g><use xlink:href="#b1EK6l441M" opacity="1" fill-opacity="0" stroke="#884efa" stroke-width="1" stroke-opacity="0.58"></use></g></g><g><use xlink:href="#i3bUydCe9E" opacity="1" fill="#000000" fill-opacity="0"></use><g><use xlink:href="#i3bUydCe9E" opacity="1" fill-opacity="0" stroke="#884efa" stroke-width="1.5" stroke-opacity="0.58"></use></g></g><g><use xlink:href="#aLc5SMgRH" opacity="1" fill="#000000" fill-opacity="0"></use><g><use xlink:href="#aLc5SMgRH" opacity="1" fill-opacity="0" stroke="#884efa" stroke-width="1.5" stroke-opacity="0.58"></use></g></g><g><use xlink:href="#d2B1D3BEy" opacity="1" fill="#000000" fill-opacity="0"></use><g><use xlink:href="#d2B1D3BEy" opacity="1" fill-opacity="0" stroke="#884efa" stroke-width="1" stroke-opacity="0.58"></use></g></g><g><use xlink:href="#a1KwApAPfH" opacity="1" fill="#884efa" fill-opacity="0.44"></use><g><use xlink:href="#a1KwApAPfH" opacity="1" fill-opacity="0" stroke="#000000" stroke-width="1" stroke-opacity="0"></use></g></g><g><use xlink:href="#ceTuN3aty" opacity="1" fill="#884efa" fill-opacity="0.44"></use><g><use xlink:href="#ceTuN3aty" opacity="1" fill-opacity="0" stroke="#000000" stroke-width="1" stroke-opacity="0"></use></g></g><g><use xlink:href="#bLmvsI4UM" opacity="1" fill="#884efa" fill-opacity="0.44"></use><g><use xlink:href="#bLmvsI4UM" opacity="1" fill-opacity="0" stroke="#000000" stroke-width="1" stroke-opacity="0"></use></g></g><g><use xlink:href="#ceDMYuU54" opacity="1" fill="#884efa" fill-opacity="0.44"></use><g><use xlink:href="#ceDMYuU54" opacity="1" fill-opacity="0" stroke="#000000" stroke-width="1" stroke-opacity="0"></use></g></g><g><use xlink:href="#d1cB1FoeTR" opacity="1" fill="#000000" fill-opacity="0"></use><g><use xlink:href="#d1cB1FoeTR" opacity="1" fill-opacity="0" stroke="#884efa" stroke-width="2" stroke-opacity="0.58"></use></g></g><g><use xlink:href="#aWDofUeQn" opacity="1" fill="#000000" fill-opacity="0"></use><g><use xlink:href="#aWDofUeQn" opacity="1" fill-opacity="0" stroke="#884efa" stroke-width="2" stroke-opacity="0.58"></use></g></g><g><use xlink:href="#a2yeSVyyY" opacity="1" fill="#000000" fill-opacity="0"></use><g><use xlink:href="#a2yeSVyyY" opacity="1" fill-opacity="0" stroke="#884efa" stroke-width="2" stroke-opacity="0.58"></use></g></g><g><use xlink:href="#b3lEfGZIb4" opacity="1" fill="#000000" fill-opacity="0"></use><g><use xlink:href="#b3lEfGZIb4" opacity="1" fill-opacity="0" stroke="#884efa" stroke-width="2" stroke-opacity="0.58"></use></g></g><g><use xlink:href="#a1emy76KxL" opacity="1" fill="#000000" fill-opacity="0"></use><g><use xlink:href="#a1emy76KxL" opacity="1" fill-opacity="0" stroke="#884efa" stroke-width="2" stroke-opacity="0.58"></use></g></g><g><use xlink:href="#a3kvL1EnZy" opacity="1" fill="#000000" fill-opacity="0"></use><g><use xlink:href="#a3kvL1EnZy" opacity="1" fill-opacity="0" stroke="#884efa" stroke-width="2" stroke-opacity="0.58"></use></g></g><g><use xlink:href="#d29ywhvlPb" opacity="1" fill="#000000" fill-opacity="0"></use><g><use xlink:href="#d29ywhvlPb" opacity="1" fill-opacity="0" stroke="#884efa" stroke-width="2" stroke-opacity="0.58"></use></g></g><g><use xlink:href="#a34cvZjWG" opacity="1" fill="#000000" fill-opacity="0"></use><g><use xlink:href="#a34cvZjWG" opacity="1" fill-opacity="0" stroke="#884efa" stroke-width="2" stroke-opacity="0.58"></use></g></g><g><use xlink:href="#dpPu8Ljqw" opacity="1" fill="#000000" fill-opacity="0"></use><g><use xlink:href="#dpPu8Ljqw" opacity="1" fill-opacity="0" stroke="#884efa" stroke-width="2" stroke-opacity="0.58"></use></g></g><g><use xlink:href="#bhhi8nYJp" opacity="1" fill="#000000" fill-opacity="0"></use><g><use xlink:href="#bhhi8nYJp" opacity="1" fill-opacity="0" stroke="#884efa" stroke-width="2" stroke-opacity="0.58"></use></g></g><g><use xlink:href="#a2zoHI6Zoz" opacity="1" fill="#000000" fill-opacity="0"></use><g><use xlink:href="#a2zoHI6Zoz" opacity="1" fill-opacity="0" stroke="#884efa" stroke-width="2" stroke-opacity="0.58"></use></g></g><g><use xlink:href="#ai7mukCSe" opacity="1" fill="#000000" fill-opacity="0"></use><g><use xlink:href="#ai7mukCSe" opacity="1" fill-opacity="0" stroke="#884efa" stroke-width="2" stroke-opacity="0.58"></use></g></g><g><use xlink:href="#c1clEOdAf9" opacity="1" fill="#000000" fill-opacity="0"></use><g><use xlink:href="#c1clEOdAf9" opacity="1" fill-opacity="0" stroke="#884efa" stroke-width="2" stroke-opacity="0.58"></use></g></g><g><use xlink:href="#a1LBxV6QWk" opacity="1" fill="#000000" fill-opacity="0"></use><g><use xlink:href="#a1LBxV6QWk" opacity="1" fill-opacity="0" stroke="#884efa" stroke-width="2" stroke-opacity="0.58"></use></g></g><g><use xlink:href="#fhF6mZcc9" opacity="1" fill="#000000" fill-opacity="0"></use><g><use xlink:href="#fhF6mZcc9" opacity="1" fill-opacity="0" stroke="#884efa" stroke-width="2" stroke-opacity="0.58"></use></g></g><g><use xlink:href="#grMfBKc3d" opacity="1" fill="#000000" fill-opacity="0"></use><g><use xlink:href="#grMfBKc3d" opacity="1" fill-opacity="0" stroke="#884efa" stroke-width="2" stroke-opacity="0.58"></use></g></g><g><use xlink:href="#b5Cp2dYDha" opacity="1" fill="#000000" fill-opacity="0"></use><g><use xlink:href="#b5Cp2dYDha" opacity="1" fill-opacity="0" stroke="#884efa" stroke-width="2" stroke-opacity="0.58"></use></g></g><g><use xlink:href="#ah3oPscTN" opacity="1" fill="#000000" fill-opacity="0"></use><g><use xlink:href="#ah3oPscTN" opacity="1" fill-opacity="0" stroke="#884efa" stroke-width="1" stroke-opacity="0.58"></use></g></g><g><use xlink:href="#cqJ45rCw" opacity="1" fill="#000000" fill-opacity="0"></use><g><use xlink:href="#cqJ45rCw" opacity="1" fill-opacity="0" stroke="#884efa" stroke-width="1.5" stroke-opacity="0.58"></use></g></g><g><use xlink:href="#f3tOsYyxj9" opacity="1" fill="#000000" fill-opacity="0"></use><g><use xlink:href="#f3tOsYyxj9" opacity="1" fill-opacity="0" stroke="#884efa" stroke-width="1" stroke-opacity="1"></use></g></g><g><use xlink:href="#a6qLnIbkQ8" opacity="1" fill="#000000" fill-opacity="0"></use><g><use xlink:href="#a6qLnIbkQ8" opacity="1" fill-opacity="0" stroke="#884efa" stroke-width="1.5" stroke-opacity="0.58"></use></g></g><g><use xlink:href="#a3IvJASdQ9" opacity="1" fill="#000000" fill-opacity="0"></use><g><use xlink:href="#a3IvJASdQ9" opacity="1" fill-opacity="0" stroke="#884efa" stroke-width="2" stroke-opacity="0.58"></use></g></g></g></g></svg>