<svg width="1526" height="740" viewBox="0 0 1526 740" fill="none" xmlns="http://www.w3.org/2000/svg">
<defs>
    <style>
        .bigGreenBottom{
            stroke-dasharray: 1200;
            stroke-dashoffset: 0;
            -webkit-animation: dash 4s cubic-bezier(.45,.8,.69,1.06) forwards;
            -o-animation: dash 4s cubic-bezier(.45,.8,.69,1.06) forwards;
            -moz-animation: dash 4s cubic-bezier(.45,.8,.69,1.06) forwards;
            animation: dash 4s cubic-bezier(.45,.8,.69,1.06) forwards;
        }

        .otherLines{
            stroke-dasharray: 1200;
            stroke-dashoffset: 0;
            -webkit-animation: dash 8s cubic-bezier(.45,.8,.69,1.06) forwards;
            -o-animation: dash 8s cubic-bezier(.45,.8,.69,1.06) forwards;
            -moz-animation: dash 8s cubic-bezier(.45,.8,.69,1.06) forwards;
            animation: dash 8s cubic-bezier(.45,.8,.69,1.06) forwards;
        }

        @-webkit-keyframes dash{
            from{
                stroke-dashoffset: 1200;
            }
            to{
                stroke-dashoffset: 0;
            }
        }
    </style>
</defs>

<rect x="-37" width="1633" height="740" fill="#191919"/>
<circle cx="921" cy="77" r="5" fill="#35EAB7"/>
<circle cx="827" cy="93" r="4.25" stroke="#21DEA8" stroke-width="1.5"/>
<circle cx="1099" cy="201" r="4" stroke="#21DEA8" stroke-width="2"/>
<circle cx="1191" cy="256" r="4" stroke="#21DEA8" stroke-width="2"/>
<circle cx="1136" cy="236" r="4" stroke="#21DEA8" stroke-width="2"/>
<circle cx="1005" cy="101" r="4" stroke="#21DEA8" stroke-width="2"/>
<circle cx="1118" cy="162" r="4" stroke="#21DEA8" stroke-width="2"/>
<circle cx="930" cy="162" r="4" stroke="#21DEA8" stroke-width="2"/>
<circle cx="903" cy="119" r="4" stroke="#21DEA8" stroke-width="2"/>
<circle cx="852" cy="167" r="4" stroke="#21DEA8" stroke-width="2"/>
<circle cx="1471" cy="305" r="4.5" stroke="#21DEA8" stroke-width="3"/>
<circle cx="1419" cy="293" r="4.5" stroke="#21DEA8" stroke-width="3"/>
<circle cx="1344" cy="324" r="4.5" stroke="#21DEA8" stroke-width="3"/>
<circle cx="1227" cy="423" r="4.5" stroke="#21DEA8" stroke-width="3"/>
<circle cx="1419" cy="172" r="4.5" stroke="#21DEA8" stroke-width="3"/>
<circle cx="1413" cy="194" r="4.5" stroke="#21DEA8" stroke-width="3"/>
<circle cx="1443" cy="193" r="4.5" stroke="#21DEA8" stroke-width="3"/>
<circle cx="1437" cy="172" r="4.5" stroke="#21DEA8" stroke-width="3"/>
<circle cx="1453" cy="173" r="4.5" stroke="#21DEA8" stroke-width="3"/>
<circle cx="1155" cy="71" r="4" stroke="#21DEA8" stroke-width="2"/>
<circle cx="1172" cy="71" r="4" stroke="#21DEA8" stroke-width="2"/>
<circle cx="1155" cy="51" r="4" stroke="#21DEA8" stroke-width="2"/>
<circle cx="1155" cy="90" r="4" stroke="#21DEA8" stroke-width="2"/>
<circle cx="1172" cy="90" r="4" stroke="#21DEA8" stroke-width="2"/>
<circle cx="1172" cy="107" r="4" stroke="#21DEA8" stroke-width="2"/>
<circle cx="1320" cy="250" r="4.5" stroke="#21DEA8" stroke-width="3"/>
<circle cx="1362" cy="214" r="4.5" stroke="#21DEA8" stroke-width="3"/>
<circle cx="1154" cy="293" r="4" stroke="#21DEA8" stroke-width="2"/>
<circle cx="1079" cy="146" r="4" stroke="#21DEA8" stroke-width="2"/>
<circle cx="1231" cy="257" r="4.5" stroke="#21DEA8" stroke-width="3"/>
<circle cx="1117" cy="107" r="4.5" stroke="#21DEA8" stroke-width="3"/>
<circle cx="1101" cy="69" r="4.5" stroke="#21DEA8" stroke-width="3"/>
<circle cx="1097" cy="146" r="4.5" stroke="#21DEA8" stroke-width="3"/>
<circle cx="1003" cy="231" r="4" stroke="#21DEA8" stroke-width="2"/>
<circle cx="1002" cy="248" r="4" stroke="#21DEA8" stroke-width="2"/>
<circle cx="1082" cy="293" r="4" stroke="#21DEA8" stroke-width="2"/>
<circle cx="1118" cy="331" r="4" stroke="#21DEA8" stroke-width="2"/>
<circle cx="1136" cy="331" r="4" stroke="#21DEA8" stroke-width="2"/>
<circle cx="1230" cy="217" r="4" stroke="#21DEA8" stroke-width="2"/>
<circle cx="1289" cy="76" r="4" stroke="#21DEA8" stroke-width="2"/>
<circle cx="1344" cy="196" r="4" stroke="#21DEA8" stroke-width="2"/>
<circle cx="1136" cy="365" r="4" stroke="#21DEA8" stroke-width="2"/>
<circle cx="1117" cy="365" r="4" stroke="#21DEA8" stroke-width="2"/>
<circle cx="1117" cy="383" r="4" stroke="#21DEA8" stroke-width="2"/>
<circle cx="1082" cy="331" r="4" stroke="#21DEA8" stroke-width="2"/>
<circle cx="903.5" cy="288.5" r="6.5" fill="#35EAB7"/>
<circle cx="927.5" cy="433.5" r="6.5" fill="#35EAB7"/>
<circle cx="995" cy="378" r="5" fill="#35EAB7"/>
<circle cx="926" cy="333" r="5" fill="#35EAB7"/>
<circle cx="935" cy="481" r="4.5" stroke="#21DEA8" stroke-width="3"/>
<circle cx="912" cy="276" r="4" stroke="#21DEA8" stroke-width="2"/>
<circle cx="974" cy="405" r="4.5" stroke="#21DEA8" stroke-width="3"/>
<circle cx="748" cy="326" r="4.5" stroke="#21DEA8" stroke-width="3"/>
<circle cx="1100" cy="479" r="4.5" stroke="#21DEA8" stroke-width="3"/>
<circle cx="1048" cy="560" r="4.5" stroke="#21DEA8" stroke-width="3"/>
<circle cx="1078" cy="460" r="4.5" stroke="#21DEA8" stroke-width="3"/>
<circle cx="1115" cy="460" r="4.5" stroke="#21DEA8" stroke-width="3"/>
<circle cx="1010" cy="464" r="4.5" stroke="#21DEA8" stroke-width="3"/>
<circle cx="1097" cy="422" r="4.5" stroke="#21DEA8" stroke-width="3"/>
<circle cx="1190" cy="481" r="5" stroke="#21DEA8" stroke-width="2"/>
<circle cx="1171" cy="443" r="4.5" stroke="#21DEA8" stroke-width="3"/>
<path d="M1014 463.5H1038L1055 446.5H1103.5L1112.5 454" stroke="#21DEA8"/>
<!-- big green fade on right -->
<path class="otherLines" d="M1151.5 90.5H1140.5L1135 85V34.5L1145 26H1401L1486.5 111V664.5" stroke="url(#paint0_linear)" stroke-width="2"/>
<path d="M1152 70.5H1147.5L1144 66V44L1152 35.5H1397.5L1477.5 115V263L1471.5 269.5V300" stroke="#21DEA8"/>
<path d="M1158.5 48.5L1162.5 47H1392L1453 107.5V167.5" stroke="#21DEA8" stroke-width="3"/>
<path d="M1176 70.5H1187.5L1193 66V58.5L1197.5 55.5H1387L1437 106V166.5" stroke="#21DEA8"/>
<path d="M1175 90.5H1191.5L1201 83.5V73L1209.5 65.5H1382.5L1419 103V168" stroke="#21DEA8" stroke-width="2"/>
<path d="M1176 109H1205.5L1213 101.5V95.5L1221 87H1334.5L1362 116V207.5" stroke="#21DEA8"/>
<path d="M1004.5 250.5L1015 261.5H1107L1118 273.5V325.5" stroke="#21DEA8" stroke-width="1.5"/>
<path d="M1007.5 234L1022 249.5H1112.5L1130 268.5V327L1132.5 329" stroke="#21DEA8" stroke-width="2"/>
<path d="M931 166L936.5 172H956L996 212H1030L1040 220.5H1136L1148 232.5V285L1153 291" stroke="#21DEA8" stroke-width="2"/>
<path d="M903.5 123V127.5L908 130.5H946.5L1015 201H1079L1084.5 198V187L1089 183H1113" stroke="#21DEA8"/>
<path d="M1101.5 201H1164L1190 227V250" stroke="#21DEA8"/>
<path d="M827 89.5V83.5L837 78.5H929.5L949.5 100H982.5L1059.5 177.5H1105L1108.5 172H1128.5L1133.5 177.5" stroke="#21DEA8"/>
<path d="M1009.5 102.5H1016.5L1076 164H1114" stroke="#21DEA8"/>
<path d="M1079.5 141.5V137L1089 127.5H1114.5L1203 216.5H1225.5" stroke="#21DEA8"/>
<path d="M1100.5 145.5H1119.5L1227 253" stroke="#21DEA8" stroke-width="3"/>
<g filter="url(#filter0_d)">
<path d="M1121.5 110.5L1181 170H1236.5L1259.5 147V128L1270.5 117.5H1309L1320 128V244" stroke="#21DEA8"/>
</g>
<path d="M1106 70.5H1114.5V80L1184 147.5H1229.5L1240.5 137.5V119L1262 96.5H1317L1344.5 124V191" stroke="#21DEA8" stroke-width="3"/>
<path d="M907.5 289H924L986 351H1105.5L1112.5 355.5L1115 361" stroke="#21DEA8"/>
<path d="M914.5 279.5L916.5 281.5H924.5L989.5 347H1118.5L1133 361.5" stroke="#21DEA8" stroke-width="2"/>
<!-- small green on left with fade -->
<path class="otherLines" d="M719.5 218.5H875.5L904 247.5H918.5L993.5 322H1075L1079 327" stroke="url(#paint1_linear)"/>
<path d="M856 166H875L902 193.5H912L937 219H951.5L969.5 237V254L1008.5 294.5H1077" stroke="#21DEA8"/>
<path d="M918.5 163L948 193.5H965L987.5 218H1026L1037 228H1126.5L1131.5 232.5" stroke="#21DEA8"/>
<!-- Big green fade on bottom -->
<path class="bigGreenBottom" d="M2 697H889.5L913 684V628.5L948.5 590.5H1007.5L1025 573V515" stroke="url(#paint2_linear)" stroke-width="2"/>
<path d="M1050.5 656.5L1060.5 645.5V514L1094.5 481" stroke="#21DEA8" stroke-width="2"/>
<path d="M1141 707.5L1138 702V571L1173.5 536.5V448.5" stroke="#21DEA8" stroke-width="3"/>
<path d="M1153.5 633.5L1159 627.5V586L1186.5 559V520.5L1200.5 505V487L1193.5 481.5" stroke="#21DEA8"/>
<path d="M1205 532L1216 522V467L1195 445.5M1190 437.5V405L1235.5 361V337.5L1260.07 312.932H1411.07L1419.5 306.5V296" stroke="#21DEA8" stroke-width="3"/>
<circle cx="1205" cy="533" r="5" fill="#35EAB7"/>
<circle cx="1191" cy="443" r="4.5" stroke="#21DEA8" stroke-width="3"/>
<circle cx="1228" cy="461" r="4.5" stroke="#21DEA8" stroke-width="3"/>
<g filter="url(#filter1_d)">
<path d="M1338 324H1261L1242 343V376.5L1210 406.5V445L1223.5 457.5M1232.5 461.5H1255.5L1265.5 450V371.5L1284 352H1415.5L1450.5 318.5V218.5L1443.5 211.5V198.5" stroke="#21DEA8"/>
</g>
<path d="M1229.66 423H1244.16L1249.65 416.389V361.389L1274.5 338H1403.5L1430.5 311V230L1413.5 212.5V199.5" stroke="#21DEA8" stroke-width="1.5"/>
<path d="M939 484.5L963.97 508.5H1009.47L1057 460H1072.5" stroke="#21DEA8"/>
<path d="M1022 620.5L1047.5 595.5V563" stroke="#21DEA8" stroke-width="2"/>
<path d="M929 436.5C929 436.5 935 443.333 938.5 445.5H1040.5L1048.5 434.5H1088L1094.5 428" stroke="#21DEA8"/>
<path d="M753 326H875.5L960.5 405H968.5" stroke="#21DEA8"/>
<!-- Big green one in center -->
<path class="otherLines" d="M999 379.5L1004.75 382H1059.25L1061 379.5H1087L1093 374.5H1103.5L1108 379.5V386.5L1115.5 393.5H1131L1138 404.5H1151L1205.5 348V329L1258.5 276H1357L1378 254.5V109.5L1345.5 76.5H1292.5" stroke="#21DEA8"/>
<path d="M930 332H960L983 356H1103.5L1108.5 359.5V372.5L1115.5 379.5" stroke="#21DEA8"/>
<circle cx="1025.5" cy="511.5" r="6.5" fill="#35EAB7"/>
<circle cx="1018.5" cy="625.5" r="6.5" fill="#35EAB7"/>
<circle cx="1046.5" cy="659.5" r="6.5" fill="#35EAB7"/>
<circle cx="1142.5" cy="710.5" r="6.5" fill="#35EAB7"/>
<circle cx="1148.5" cy="636.5" r="6.5" fill="#35EAB7"/>
<circle cx="1118" cy="182" r="4" stroke="#21DEA8" stroke-width="2"/>
<circle cx="1136" cy="182" r="4" stroke="#21DEA8" stroke-width="2"/>
<circle cx="916" cy="159" r="4" stroke="#21DEA8" stroke-width="2"/>
<circle cx="1099" cy="292" r="4.5" stroke="#884EFA" stroke-opacity="0.58"/>
<circle cx="1099" cy="310" r="4.5" stroke="#884EFA" stroke-opacity="0.58"/>
<circle cx="886" cy="151" r="4" stroke="#884EFA" stroke-opacity="0.58" stroke-width="2"/>
<circle cx="910" cy="171" r="4" stroke="#884EFA" stroke-opacity="0.58" stroke-width="2"/>
<!-- A bunch of the purple ones in the center -->
<path class="otherLines" d="M973 384L981 392.5H1107.5L1113.5 398" stroke="#884EFA" stroke-opacity="0.58" stroke-width="2"/>
<path d="M951 412H1065.5L1073 404.5" stroke="#884EFA" stroke-opacity="0.58" stroke-width="2"/>
<path d="M847 451L879.5 418.5H931L951.5 440.5H1027L1031.5 438" stroke="#884EFA" stroke-opacity="0.58" stroke-width="2"/>
<path d="M910 435.5V441.5L919 450H1042L1053 439H1099L1112.5 425.5" stroke="#884EFA" stroke-opacity="0.58" stroke-width="2"/>
<path d="M1122 422.5H1142.5L1214.5 351V333L1262 285.5H1361L1387 258.5V95.5" stroke="#884EFA" stroke-opacity="0.58"/>
<path d="M1014 557V545" stroke="#884EFA" stroke-opacity="0.58"/>
<path d="M1013.5 533V510L1058.5 465H1068L1077 473" stroke="#884EFA" stroke-opacity="0.58"/>
<path d="M1042.5 523V497L1059.5 480.5" stroke="#884EFA" stroke-opacity="0.58" stroke-width="1.5"/>
<path d="M1005.5 499H1013L1061 450H1090.5L1095.5 454" stroke="#884EFA" stroke-opacity="0.58" stroke-width="1.5"/>
<path d="M886 154.5V162.5L907 184H915.5L942.5 211H954.5L977.5 234L978.5 251.5L1014.5 287H1072.5L1077.5 281H1085.5L1091 287V301L1096.5 307" stroke="#884EFA" stroke-opacity="0.58"/>
<circle cx="898.5" cy="325.5" r="6.5" fill="#884EFA" fill-opacity="0.44"/>
<circle cx="898.5" cy="325.5" r="6.5" fill="#884EFA" fill-opacity="0.44"/>
<circle cx="1014.5" cy="562.5" r="6.5" fill="#884EFA" fill-opacity="0.44"/>
<circle cx="1014.5" cy="562.5" r="6.5" fill="#884EFA" fill-opacity="0.44"/>
<circle cx="1014" cy="539" r="5" stroke="#884EFA" stroke-opacity="0.58" stroke-width="2"/>
<circle cx="1042" cy="528" r="5" stroke="#884EFA" stroke-opacity="0.58" stroke-width="2"/>
<circle cx="1000" cy="499" r="5" stroke="#884EFA" stroke-opacity="0.58" stroke-width="2"/>
<circle cx="910" cy="430" r="5" stroke="#884EFA" stroke-opacity="0.58" stroke-width="2"/>
<circle cx="947" cy="408" r="5" stroke="#884EFA" stroke-opacity="0.58" stroke-width="2"/>
<circle cx="845" cy="454" r="5" stroke="#884EFA" stroke-opacity="0.58" stroke-width="2"/>
<circle cx="1063" cy="476" r="5" stroke="#884EFA" stroke-opacity="0.58" stroke-width="2"/>
<circle cx="1034" cy="434" r="5" stroke="#884EFA" stroke-opacity="0.58" stroke-width="2"/>
<circle cx="1078" cy="403" r="5" stroke="#884EFA" stroke-opacity="0.58" stroke-width="2"/>
<circle cx="969" cy="380" r="5" stroke="#884EFA" stroke-opacity="0.58" stroke-width="2"/>
<circle cx="959" cy="345" r="5" stroke="#884EFA" stroke-opacity="0.58" stroke-width="2"/>
<circle cx="1097" cy="365" r="5" stroke="#884EFA" stroke-opacity="0.58" stroke-width="2"/>
<circle cx="1081" cy="476" r="5" stroke="#884EFA" stroke-opacity="0.58" stroke-width="2"/>
<circle cx="1099" cy="458" r="5" stroke="#884EFA" stroke-opacity="0.58" stroke-width="2"/>
<circle cx="1116" cy="422" r="5" stroke="#884EFA" stroke-opacity="0.58" stroke-width="2"/>
<circle cx="1117" cy="402" r="5" stroke="#884EFA" stroke-opacity="0.58" stroke-width="2"/>
<circle cx="1099" cy="384" r="4" stroke="#884EFA" stroke-opacity="0.58" stroke-width="2"/>
<path d="M912 174.5H921L945.5 200H959L986.5 228V249.5L1018.5 281.5H1068L1074.5 275.5H1087L1097 284.5L1099 287.5" stroke="#884EFA" stroke-opacity="0.58"/>
<path d="M901 329L943.5 370H972.5L981.5 377.5V384L985.5 387H1061.5L1064 384.5H1094" stroke="#884EFA" stroke-opacity="0.58" stroke-width="1.5"/>
<!-- purple on left with fade -->
<path class="bigGreenBottom" d="M605.5 244.5H838.5L910.5 318V332L923 344.5H953" stroke="url(#paint3_linear)" stroke-opacity="0.58"/>
<path d="M962.5 349L974.5 362.5H1000.5L1013.5 377H1056L1059 374H1085L1092.5 367.5" stroke="#884EFA" stroke-opacity="0.58" stroke-width="1.5"/>
<circle cx="1387" cy="90" r="5" stroke="#884EFA" stroke-opacity="0.58" stroke-width="2"/>
<path d="M177.04 473C177.04 473 176.32 472.76 175.2 472.52C174.08 472.36 172.88 472.2 172.88 472.2H144V474.28V483.4H170V483.48H171.84L171.92 483.4C172 483.4 172.08 483.4 172.16 483.4C174.32 483.4 176 485.16 176 487.24C176 489.4 174.32 491.08 172.16 491.08H155.2H144V525H155.2V502.36H173.28C173.28 502.36 173.6 502.36 175.6 501.88C177.6 501.4 177.68 501.32 177.68 501.32C179.76 500.44 181.68 499.16 183.2 497.48C185.84 494.76 187.2 491.08 187.2 487.24C187.2 480.68 183.04 475.08 177.04 473ZM244.37 521.8L229.25 497C229.33 497 229.41 496.92 229.49 496.84L229.57 496.76C229.65 496.76 229.73 496.68 229.73 496.6C229.89 496.52 229.97 496.44 230.13 496.36C230.21 496.28 230.37 496.12 230.53 496.04C230.53 495.96 230.61 495.96 230.61 495.96C230.69 495.88 230.85 495.72 230.93 495.64C231.25 495.32 231.57 495.08 231.97 494.68C235.57 491.08 238.13 486.6 239.17 481.64C239.65 479.72 239.81 477.8 239.81 475.88C239.81 475.24 239.81 474.6 239.73 474.04L239.65 472.04H195.25V483.24H219.25H226.69C225.97 484.52 225.09 485.72 224.05 486.68C222.69 488.04 221.17 489.08 219.41 489.88C219.33 489.88 219.33 489.88 219.25 489.96C217.41 490.68 215.41 491.08 213.41 491.08H195.25V525H206.45V502.36H213.41C213.57 502.36 213.73 502.28 213.89 502.28H213.97H214.05H214.21C214.37 502.28 214.45 502.28 214.61 502.28C214.69 502.28 214.77 502.28 214.77 502.28C214.93 502.28 215.09 502.28 215.25 502.28H215.41L215.49 502.2C215.65 502.2 215.81 502.2 216.05 502.2C216.21 502.2 216.37 502.12 216.61 502.12C216.69 502.12 216.77 502.12 216.85 502.12C217.01 502.04 217.17 502.04 217.33 502.04C217.41 502.04 217.49 502.04 217.57 501.96C217.65 501.96 217.81 501.96 217.97 501.96C218.29 501.88 218.61 501.8 218.93 501.72L232.53 524.04L233.17 525H246.29L244.37 521.8ZM271.023 472.36C256.463 472.36 244.703 484.2 244.703 498.68C244.703 513.24 256.463 525 271.023 525C285.503 525 297.343 513.24 297.343 498.68C297.343 484.2 285.503 472.36 271.023 472.36ZM286.303 498.68C286.303 507.16 279.423 514.04 271.023 514.04C262.543 514.04 255.663 507.16 255.663 498.68C255.663 490.28 262.543 483.4 271.023 483.4C279.423 483.4 286.303 490.28 286.303 498.68ZM335.326 472.04V508.28C332.366 511.8 328.126 513.8 323.486 513.8C321.086 513.8 318.766 513.24 316.606 512.12V500.36H305.406V517.88L306.126 518.52C308.366 520.52 310.926 522.04 313.726 523.16C316.846 524.44 320.126 525 323.486 525C328.926 525 334.126 523.4 338.606 520.36C341.646 518.2 344.286 515.4 346.206 512.2L346.526 511.72V472.04H335.326ZM354.625 472.2V474.28V483.4H401.825V472.2H354.625ZM365.825 502.44H397.105V491.24H365.825L354.625 491.16V513.8V515.88V525H401.825V513.8H365.825V502.44ZM448.863 503.96L448.303 505.16C445.743 510.44 440.383 513.8 434.543 513.8C427.343 513.8 421.023 508.68 419.583 501.64C419.343 500.68 419.263 499.56 419.263 498.52C419.263 497.48 419.343 496.52 419.583 495.48C420.943 488.36 427.263 483.24 434.543 483.24C440.703 483.24 446.223 486.92 448.623 492.52L449.183 493.8H460.783L459.983 491.16C458.463 485.72 455.103 480.84 450.623 477.4C445.983 473.88 440.383 472.04 434.543 472.04C428.143 472.04 421.903 474.36 417.103 478.6C412.303 482.76 409.183 488.52 408.303 494.76C408.143 496.04 408.063 497.24 408.063 498.52C408.063 499.8 408.143 501.16 408.303 502.44C409.183 508.68 412.383 514.36 417.103 518.52C421.983 522.76 428.143 525 434.543 525C440.223 525 445.663 523.24 450.303 519.88C454.783 516.52 458.063 512.04 459.743 506.76L460.623 503.96H448.863ZM490.773 525V491.24H479.573V525H490.773ZM461.813 472.2V483.4H479.573H490.773H509.413V472.2H461.813ZM191.68 574C190.8 567.76 187.76 562 183.04 557.84C178.72 554 173.2 551.68 167.52 551.28L144 551.2V562.4H166.16C166.96 562.48 167.76 562.56 168.48 562.72C170.72 563.2 172.8 564.16 174.64 565.52C177.68 567.76 179.68 571.04 180.48 574.72C180.64 575.68 180.72 576.72 180.72 577.68C180.72 578.8 180.64 579.84 180.4 580.88C179.12 587.04 174.08 591.84 167.84 592.8H155.2V570.24H144V604H168.56H168.72C180.48 602.56 190 593.36 191.68 581.6C191.84 580.32 192 579.04 192 577.68C192 576.48 191.92 575.2 191.68 574ZM200.016 551.2V553.28V562.4H247.216V551.2H200.016ZM211.216 581.44H242.496V570.24H211.216L200.016 570.16V592.8V594.88V604H247.216V592.8H211.216V581.44ZM282.934 572H267.734C265.094 572 262.934 569.84 262.934 567.2C262.934 564.56 265.094 562.4 267.734 562.4H285.254C287.014 562.96 288.214 564.56 288.214 566.48H299.174C299.174 565.04 299.014 563.68 298.614 562.4C296.854 555.92 290.934 551.2 283.894 551.2H267.734C261.974 551.2 256.614 554.24 253.814 559.28C252.454 561.68 251.734 564.4 251.734 567.2C251.734 570 252.454 572.72 253.814 575.12C254.454 576.24 255.174 577.2 255.974 578.08C259.014 581.28 263.254 583.2 267.734 583.2H282.934C285.574 583.2 287.654 585.36 287.654 588C287.654 590.64 285.574 592.8 282.934 592.8H265.574C263.894 592.24 262.694 590.64 262.694 588.72H251.734C251.734 590.16 251.894 591.52 252.214 592.8C254.054 599.28 259.974 604 267.014 604H282.934C288.614 604 293.974 600.96 296.774 596C298.214 593.52 298.934 590.8 298.934 588C298.934 585.2 298.214 582.48 296.774 580.08C293.974 575.12 288.614 572 282.934 572ZM343.706 582.96L343.146 584.16C340.586 589.44 335.226 592.8 329.386 592.8C322.186 592.8 315.866 587.68 314.426 580.64C314.186 579.68 314.106 578.56 314.106 577.52C314.106 576.48 314.186 575.52 314.426 574.48C315.786 567.36 322.106 562.24 329.386 562.24C335.546 562.24 341.066 565.92 343.466 571.52L344.026 572.8H355.626L354.826 570.16C353.306 564.72 349.946 559.84 345.466 556.4C340.826 552.88 335.226 551.04 329.386 551.04C322.986 551.04 316.746 553.36 311.946 557.6C307.146 561.76 304.026 567.52 303.146 573.76C302.986 575.04 302.906 576.24 302.906 577.52C302.906 578.8 302.986 580.16 303.146 581.44C304.026 587.68 307.226 593.36 311.946 597.52C316.826 601.76 322.986 604 329.386 604C335.066 604 340.506 602.24 345.146 598.88C349.626 595.52 352.906 591.04 354.586 585.76L355.466 582.96H343.706ZM412.808 600.8L397.688 576C397.768 576 397.848 575.92 397.928 575.84L398.008 575.76C398.088 575.76 398.168 575.68 398.168 575.6C398.328 575.52 398.408 575.44 398.568 575.36C398.648 575.28 398.808 575.12 398.968 575.04C398.968 574.96 399.048 574.96 399.048 574.96C399.128 574.88 399.288 574.72 399.368 574.64C399.688 574.32 400.008 574.08 400.408 573.68C404.008 570.08 406.568 565.6 407.608 560.64C408.088 558.72 408.248 556.8 408.248 554.88C408.248 554.24 408.248 553.6 408.168 553.04L408.088 551.04H363.688V562.24H387.688H395.128C394.408 563.52 393.528 564.72 392.488 565.68C391.128 567.04 389.608 568.08 387.848 568.88C387.768 568.88 387.768 568.88 387.688 568.96C385.848 569.68 383.848 570.08 381.848 570.08H363.688V604H374.888V581.36H381.848C382.008 581.36 382.168 581.28 382.328 581.28H382.408H382.488H382.648C382.808 581.28 382.888 581.28 383.048 581.28C383.128 581.28 383.207 581.28 383.207 581.28C383.368 581.28 383.528 581.28 383.688 581.28H383.848L383.928 581.2C384.088 581.2 384.248 581.2 384.488 581.2C384.648 581.2 384.808 581.12 385.048 581.12C385.128 581.12 385.208 581.12 385.288 581.12C385.448 581.04 385.608 581.04 385.768 581.04C385.848 581.04 385.928 581.04 386.008 580.96C386.088 580.96 386.248 580.96 386.408 580.96C386.728 580.88 387.048 580.8 387.368 580.72L400.968 603.04L401.608 604H414.728L412.808 600.8ZM422.828 551.12V604H434.028V551.12H422.828ZM476.884 552C476.884 552 476.164 551.76 475.044 551.52C473.924 551.36 472.724 551.2 472.724 551.2H443.844V553.28V562.4H469.844V562.48H471.684L471.764 562.4C471.844 562.4 471.924 562.4 472.004 562.4C474.164 562.4 475.844 564.16 475.844 566.24C475.844 568.4 474.164 570.08 472.004 570.08H455.044H443.844V604H455.044V581.36H473.124C473.124 581.36 473.444 581.36 475.444 580.88C477.444 580.4 477.524 580.32 477.524 580.32C479.604 579.44 481.524 578.16 483.044 576.48C485.684 573.76 487.044 570.08 487.044 566.24C487.044 559.68 482.884 554.08 476.884 552ZM522.257 604V570.24H511.057V604H522.257ZM493.297 551.2V562.4H511.057H522.257H540.897V551.2H493.297ZM548.922 551.12V604H560.122V551.12H548.922ZM594.461 551.36C579.901 551.36 568.141 563.2 568.141 577.68C568.141 592.24 579.901 604 594.461 604C608.941 604 620.781 592.24 620.781 577.68C620.781 563.2 608.941 551.36 594.461 551.36ZM609.741 577.68C609.741 586.16 602.861 593.04 594.461 593.04C585.981 593.04 579.101 586.16 579.101 577.68C579.101 569.28 585.981 562.4 594.461 562.4C602.861 562.4 609.741 569.28 609.741 577.68ZM628.844 604H640.044V586.16L628.844 574.96V604ZM660.444 551.12V579.6L631.564 550.8H628.844V552.16V557.2V563.92L640.044 575.12L647.724 582.8L661.004 596.08L668.924 604H671.644V551.12H660.444Z" fill="#1BB187" fill-opacity="0.9"/>
<defs>
<filter id="filter0_d" x="1096.15" y="85.1465" width="249.354" height="183.854" filterUnits="userSpaceOnUse" color-interpolation-filters="sRGB">
<feFlood flood-opacity="0" result="BackgroundImageFix"/>
<feColorMatrix in="SourceAlpha" type="matrix" values="0 0 0 0 0 0 0 0 0 0 0 0 0 0 0 0 0 0 127 0" result="hardAlpha"/>
<feOffset/>
<feGaussianBlur stdDeviation="12.5"/>
<feComposite in2="hardAlpha" operator="out"/>
<feColorMatrix type="matrix" values="0 0 0 0 0.129412 0 0 0 0 0.870588 0 0 0 0 0.658824 0 0 0 1 0"/>
<feBlend mode="normal" in2="BackgroundImageFix" result="effect1_dropShadow"/>
<feBlend mode="normal" in="SourceGraphic" in2="effect1_dropShadow" result="shape"/>
</filter>
<filter id="filter1_d" x="1189.5" y="178.5" width="281.5" height="303.5" filterUnits="userSpaceOnUse" color-interpolation-filters="sRGB">
<feFlood flood-opacity="0" result="BackgroundImageFix"/>
<feColorMatrix in="SourceAlpha" type="matrix" values="0 0 0 0 0 0 0 0 0 0 0 0 0 0 0 0 0 0 127 0" result="hardAlpha"/>
<feOffset/>
<feGaussianBlur stdDeviation="10"/>
<feComposite in2="hardAlpha" operator="out"/>
<feColorMatrix type="matrix" values="0 0 0 0 0.129412 0 0 0 0 0.870588 0 0 0 0 0.658824 0 0 0 1 0"/>
<feBlend mode="normal" in2="BackgroundImageFix" result="effect1_dropShadow"/>
<feBlend mode="normal" in="SourceGraphic" in2="effect1_dropShadow" result="shape"/>
</filter>
<linearGradient id="paint0_linear" x1="1310.75" y1="26" x2="1310.75" y2="664.5" gradientUnits="userSpaceOnUse">
<stop stop-color="#21DEA8"/>
<stop offset="1" stop-color="#21DEA8" stop-opacity="0"/>
</linearGradient>
<linearGradient id="paint1_linear" x1="899.25" y1="218.5" x2="706" y2="219" gradientUnits="userSpaceOnUse">
<stop stop-color="#21DEA8"/>
<stop offset="1" stop-color="#21DEA8" stop-opacity="0"/>
</linearGradient>
<linearGradient id="paint2_linear" x1="743.5" y1="804" x2="167.5" y2="804" gradientUnits="userSpaceOnUse">
<stop stop-color="#21DEA8"/>
<stop offset="1" stop-color="#21DEA8" stop-opacity="0"/>
</linearGradient>
<linearGradient id="paint3_linear" x1="779.25" y1="244.5" x2="605" y2="245" gradientUnits="userSpaceOnUse">
<stop stop-color="#884EFA"/>
<stop offset="1" stop-color="#884EFA" stop-opacity="0"/>
</linearGradient>
</defs>
</svg>
