<svg width="13" height="20" viewBox="0 0 13 20" fill="none" xmlns="http://www.w3.org/2000/svg">
<path d="M6.15052 11.7803H3.66367L0.869629 8.97587H3.35661L6.15052 11.7803" fill="#4E4D4D"/>
<path d="M9.13535 19.126H6.09415L3.30029 16.3211H6.3413L6.39728 8.98755H8.87266C8.89168 8.85584 8.90944 8.72366 8.92827 8.59149L6.39653 6.0505C6.39728 5.97815 6.41337 4.60216 6.43531 3.97885L6.43985 3.90372C6.44417 3.84667 6.45432 3.79659 6.46285 3.74511L6.47352 3.6709L6.47589 3.65699C6.48966 3.59577 6.50668 3.53873 6.52681 3.48586L6.54054 3.45572L6.56029 3.41351L6.59127 3.34673L6.644 3.26882L6.669 3.23172L6.67985 3.21641L6.71955 3.17977C6.7587 3.13757 6.79978 3.09815 6.84584 3.06476L6.91791 3.01931C6.96266 2.99241 7.00978 2.96875 7.05959 2.94835L7.14344 2.91635C7.19872 2.89873 7.25669 2.88482 7.31647 2.87276L7.39638 2.85652C7.48496 2.84307 7.57661 2.83381 7.67335 2.83056C7.8884 2.82314 8.10364 2.82128 8.31864 2.82128C8.60562 2.82128 8.89224 2.82499 9.17917 2.82499C9.24276 2.82499 9.30615 2.82499 9.38713 2.82499L9.40688 0.210736L12.2009 3.0156L12.181 5.6294C12.1002 5.6294 12.0368 5.6294 11.973 5.6294C11.6865 5.6294 11.3995 5.62568 11.1127 5.62568C10.8975 5.62568 10.6824 5.62801 10.4671 5.63543C10.3708 5.63821 10.2788 5.64748 10.1902 5.66093L10.1103 5.67716C10.0506 5.68922 9.9924 5.70313 9.93735 5.72122L9.85364 5.75277C9.80383 5.77317 9.75671 5.79681 9.71177 5.82371L9.63989 5.86916C9.59383 5.90302 9.55256 5.94198 9.5136 5.98418L9.46286 6.03659L9.43805 6.07322L9.38894 6.1581L12.0754 8.85491C11.9352 9.85896 11.8067 10.8227 11.6665 11.7919H9.19114L9.13535 19.126Z" fill="#4E4D4D"/>
<path d="M7.27299 0.0868381C7.70722 0.0868381 8.14418 0.110488 8.57698 0.129966C8.8596 0.14156 9.14199 0.181918 9.40722 0.210672L9.38747 2.82493C9.30649 2.82493 9.2431 2.82493 9.17951 2.82493C8.89258 2.82493 8.60596 2.82121 8.31898 2.82121C8.10398 2.82121 7.88874 2.82308 7.67332 2.8305C6.98095 2.85369 6.47117 3.1134 6.43565 3.97879C6.41371 4.60209 6.39762 5.97809 6.39687 6.05044C6.43291 6.05044 7.11735 6.05276 7.80651 6.05276C8.15105 6.05276 8.48747 6.05229 8.72228 6.05044C8.90125 6.05044 9.07989 6.05044 9.28187 6.05044C9.14148 7.05403 9.01302 8.01775 8.873 8.98748H6.39762L6.34164 16.321H3.30063L3.35661 8.97589H0.869629L0.891936 6.056H3.39051L3.39214 5.83664C3.39668 5.24811 3.38959 4.6596 3.41134 4.07108C3.42005 3.70192 3.44014 3.32116 3.50646 2.95154C3.67476 2.05739 4.09034 1.30748 4.83869 0.770432C5.49414 0.302954 6.24017 0.107247 7.03076 0.0900876C7.11155 0.0877687 7.19215 0.0868381 7.27299 0.0868381Z" fill="white"/>
</svg>
