<svg width="50" height="50" viewBox="0 0 50 50" fill="none" xmlns="http://www.w3.org/2000/svg">
<path d="M28.6042 39.3186C25.6882 39.3186 23.0602 38.1413 21.1628 36.2373L13.1294 28.1733C13.8414 28.8879 14.6561 29.4999 15.5494 29.9853C17.0388 30.7946 18.7494 31.2546 20.5721 31.2546C20.8708 31.2546 21.1628 31.2279 21.4548 31.2039L15.7841 25.5106L15.7827 25.5093C15.5454 25.2719 15.3267 25.0172 15.1267 24.7466L15.0161 24.5733L14.8614 24.3306C14.6801 24.0439 14.5187 23.7453 14.3814 23.4306L14.2961 23.2466L14.2587 23.1693C14.1267 22.8253 14.0307 22.4653 13.9534 22.0986L13.9067 21.8066C13.8814 21.6519 13.8454 21.5026 13.8307 21.3452C13.8081 21.0972 13.7974 20.8439 13.8014 20.5879C13.804 20.4466 13.8107 20.3079 13.8214 20.1693C13.8441 19.8719 13.8934 19.5826 13.9534 19.2959L13.9667 19.2013L13.9707 19.1799C14.0414 18.8652 14.1347 18.5599 14.2481 18.2626L14.336 18.0719L14.4907 17.7426C14.5534 17.6106 14.6041 17.4746 14.6734 17.3493L14.8787 17.0479C14.9774 16.8933 15.0774 16.7426 15.1881 16.5946L15.3521 16.3546L15.5841 16.1239C15.7774 15.9093 15.9801 15.7093 16.1974 15.5199C16.3401 15.3946 16.4841 15.2759 16.6374 15.1626C16.8747 14.9879 17.1241 14.8373 17.3828 14.6946C17.5428 14.6053 17.6961 14.5133 17.8654 14.4359C18.1574 14.3026 18.4654 14.2039 18.7788 14.1106C18.9321 14.0666 19.0761 14.0066 19.2335 13.9719C19.7108 13.8679 20.2028 13.8026 20.7095 13.8026H20.7708C22.6348 13.8186 24.3108 14.5773 25.5255 15.7959L31.2056 21.4973C31.2282 21.2239 31.2509 20.9493 31.2522 20.6706C31.2562 20.3066 31.2402 19.9466 31.2069 19.5919C31.1656 19.1479 31.0882 18.7159 30.9936 18.2893C30.9669 18.1693 30.9349 18.0519 30.9042 17.9333C30.8189 17.6053 30.7189 17.2826 30.6042 16.9679L30.4962 16.6706C30.3416 16.2826 30.1669 15.9039 29.9682 15.5399L29.8469 15.3413C29.6762 15.0426 29.4922 14.7559 29.2936 14.4773L29.0829 14.1946C28.8055 13.8319 28.5122 13.4799 28.1895 13.1559L36.223 21.2199L36.2243 21.2213C36.5456 21.5439 36.8376 21.8946 37.115 22.2573L37.2283 22.3893L37.327 22.5426C37.5243 22.8199 37.7083 23.1066 37.8803 23.4039L38.0003 23.6039C38.199 23.9679 38.3737 24.3453 38.5297 24.7333L38.5723 24.8253L38.6363 25.0319C38.7523 25.3466 38.851 25.6679 38.9363 25.9959C38.9683 26.1146 38.999 26.2333 39.0257 26.3533C39.1203 26.7786 39.1976 27.2106 39.239 27.6546L39.2403 27.6599C39.2736 28.0133 39.2883 28.3706 39.2857 28.7346C39.283 28.9839 39.2737 29.2319 39.2537 29.4759L39.235 29.6039C39.195 30.0613 39.1297 30.5106 39.0323 30.9493L39.0243 31.0026L38.9736 31.1706C38.8843 31.5346 38.7763 31.8893 38.651 32.2373L38.595 32.4226L38.5283 32.5666C38.3577 32.9946 38.1683 33.4133 37.9456 33.8133L37.935 33.8373L37.8963 33.8946C37.615 34.3879 37.295 34.8546 36.9416 35.2959L36.887 35.3759L36.851 35.4159C36.619 35.6973 36.3736 35.9679 36.115 36.2253L35.9963 36.3319C35.771 36.5479 35.5376 36.7573 35.2936 36.9546L34.9896 37.1799C34.7976 37.3239 34.603 37.4666 34.4003 37.5973C34.2803 37.6759 34.1549 37.7466 34.0309 37.8213C33.8376 37.9346 33.6416 38.0453 33.4402 38.1493C33.3069 38.2173 33.1696 38.2813 33.0323 38.3439C32.8296 38.4373 32.6242 38.5226 32.4149 38.6039C32.2736 38.6573 32.1322 38.7106 31.9882 38.7586C31.7696 38.8319 31.5469 38.8959 31.3216 38.9546C31.1816 38.9919 31.0416 39.0319 30.8989 39.0626C30.6496 39.1186 30.3949 39.1573 30.1389 39.1946C30.0162 39.2133 29.8935 39.2373 29.7695 39.2519C29.3869 39.2933 28.9989 39.3186 28.6042 39.3186V39.3186ZM28.7429 21.8666C28.2349 21.8666 27.7429 21.9306 27.2655 22.0346C27.1095 22.0706 26.9642 22.1306 26.8109 22.1746C26.4988 22.2666 26.1895 22.3666 25.8975 22.4999C25.7295 22.5759 25.5735 22.6693 25.4148 22.7586C25.1575 22.8999 24.9068 23.0519 24.6708 23.2253C24.5175 23.3373 24.3722 23.4586 24.2295 23.5839C24.0135 23.7719 23.8095 23.9733 23.6175 24.1866C23.4802 24.3399 23.3428 24.4933 23.2202 24.6586C23.1108 24.8053 23.0095 24.9559 22.9121 25.1106C22.7708 25.3346 22.6388 25.5653 22.5228 25.8053L22.3681 26.1346C22.2175 26.4986 22.0868 26.8733 22.0002 27.2653L21.9855 27.3559C21.8975 27.7759 21.8415 28.2066 21.8348 28.6519C21.8281 29.0679 21.8735 29.4733 21.9388 29.8706L21.9868 30.1613C22.0548 30.4866 22.1548 30.7973 22.2668 31.1039C22.4682 31.0719 22.6708 31.0426 22.8668 30.9999C23.0095 30.9679 23.1482 30.9279 23.2895 30.8919C23.5135 30.8319 23.7375 30.7693 23.9562 30.6959C24.0988 30.6466 24.2402 30.5946 24.3815 30.5399C24.5908 30.4613 24.7975 30.3733 25.0015 30.2813C25.1375 30.2186 25.2735 30.1546 25.4068 30.0853C25.6095 29.9826 25.8055 29.8719 25.9989 29.7559C26.1229 29.6826 26.2469 29.6119 26.3669 29.5346C26.5709 29.4013 26.7655 29.2586 26.9602 29.1146L27.2602 28.8906C27.5069 28.6933 27.7415 28.4826 27.9695 28.2639L28.0815 28.1626C28.3402 27.9053 28.5855 27.6333 28.8189 27.3519L28.9082 27.2333C29.2615 26.7919 29.5842 26.3239 29.8642 25.8293L29.9136 25.7506C30.1349 25.3519 30.3256 24.9319 30.4962 24.5039L30.6189 24.1746C30.7442 23.8266 30.8522 23.4706 30.9416 23.1079L31.0002 22.8853C31.0416 22.6959 31.0562 22.4986 31.0869 22.3053C30.3722 22.0426 29.6109 21.8733 28.8042 21.8666H28.7429V21.8666ZM13.1307 28.1746L13.1294 28.1733L13.1307 28.1746Z" fill="#4E4D4D"/>
<path d="M28.1336 49.3679C23.2162 49.3679 18.3042 49.1852 16.6548 48.7586C14.4668 48.1919 12.6921 47.2266 11.3441 45.8732L3.31201 37.8106C4.32269 38.8239 5.57338 39.6212 7.05873 40.1959C7.55474 40.3866 8.07474 40.5532 8.62141 40.6946C9.26942 40.8626 10.4321 40.9906 11.8881 41.0879L5.99873 35.1759C5.78672 34.9626 5.5907 34.7346 5.41337 34.4932L5.3787 34.4319C5.07603 34.0133 4.83071 33.5479 4.62537 33.0493L4.54936 32.9106L4.49736 32.7106C4.32002 32.2119 4.17069 31.6906 4.08269 31.1226C4.05469 30.9386 4.02803 30.7039 4.00269 30.4306L4.00136 30.4132C3.97869 30.1772 3.96003 29.9039 3.94136 29.6093L3.92668 29.3452C3.91335 29.1106 3.90003 28.8653 3.88803 28.6026C3.88269 28.4759 3.87736 28.3439 3.87203 28.2132C3.86136 27.9612 3.85201 27.7013 3.84268 27.4306C3.83868 27.2893 3.83469 27.1519 3.83069 27.0079C3.82135 26.6999 3.81336 26.3812 3.80669 26.0559C3.80403 25.9332 3.80135 25.8172 3.79869 25.6919C3.78935 25.2399 3.78268 24.7746 3.77735 24.2973L3.77601 24.0972C3.77201 23.6839 3.76802 23.2666 3.76669 22.8413C3.76535 22.6679 3.76535 22.4946 3.76535 22.3212C3.76402 21.9972 3.76535 21.6732 3.76535 21.3466C3.76669 21.1466 3.76669 20.9506 3.76802 20.7519C3.76936 20.4292 3.77201 20.1079 3.77601 19.7866C3.77735 19.6026 3.77868 19.4213 3.78002 19.2386C3.78535 18.8266 3.79202 18.4173 3.80002 18.0106L3.80403 17.7519C3.81336 17.2666 3.82536 16.7892 3.83736 16.3239C3.84136 16.1746 3.84669 16.0319 3.85202 15.8839C3.86136 15.5652 3.87202 15.2506 3.88402 14.9439C3.88936 14.7813 3.89602 14.6226 3.90269 14.4639C3.91469 14.1773 3.92803 13.8999 3.94136 13.6306C3.94936 13.4853 3.95602 13.3426 3.96402 13.2039C3.97869 12.9226 3.99735 12.6573 4.01469 12.3999L4.03603 12.0786L4.04137 11.9906C4.05737 11.7799 4.07602 11.5999 4.09335 11.4106L4.12403 11.0733C4.15603 10.7706 4.18937 10.4999 4.22537 10.2693C4.25737 10.0706 4.2947 9.87591 4.33736 9.68791C4.36803 9.55324 4.41736 9.43326 4.45203 9.30392C4.50003 9.13326 4.5467 8.96392 4.6027 8.80125L4.67204 8.56792C4.72937 8.41992 4.80537 8.2866 4.8707 8.14393C4.93337 8.00393 4.99203 7.86259 5.0627 7.73059L5.1307 7.58524C5.20403 7.45191 5.30137 7.33857 5.38404 7.2119C5.48937 7.04923 5.5907 6.88392 5.70803 6.73192L5.78671 6.61591L6.01071 6.39458C6.20137 6.18258 6.39871 5.97992 6.61472 5.79458C6.73738 5.68925 6.8654 5.59192 6.99607 5.49592C7.2174 5.33325 7.45074 5.18257 7.69607 5.04523C7.83741 4.96523 7.97874 4.88524 8.12808 4.81324C8.40141 4.68257 8.69208 4.57326 8.98941 4.47326C9.12942 4.4266 9.2614 4.37059 9.40674 4.33059C9.85741 4.20525 10.3281 4.10524 10.8254 4.0479C12.6268 3.85324 16.7215 3.7426 20.8349 3.7426C25.0989 3.7426 29.3843 3.86125 31.1643 4.13058C32.8857 4.40125 34.2924 5.08926 35.331 6.13326L41.1711 11.9959L41.1697 11.9719C41.1604 11.7373 41.1484 11.5239 41.1364 11.3212L41.1231 11.0719C41.1058 10.8013 41.0871 10.5599 41.0697 10.3679C41.0111 9.75459 40.9044 9.1586 40.7644 8.57727C40.7191 8.3906 40.6511 8.21325 40.5978 8.02925C40.4818 7.63325 40.3564 7.23991 40.1977 6.86125C40.1324 6.70391 40.0564 6.55192 39.9831 6.39859C39.8004 6.01592 39.5924 5.64524 39.3631 5.28524C39.2764 5.14924 39.1977 5.0119 39.1044 4.8799C38.7657 4.40124 38.3937 3.93726 37.9604 3.50259L45.9938 11.5666C46.3671 11.9413 46.7045 12.3346 47.0085 12.7439L47.1365 12.9439C47.2298 13.0759 47.3098 13.2132 47.3952 13.3492C47.6258 13.7092 47.8338 14.0799 48.0165 14.4613C48.0885 14.6159 48.1645 14.7679 48.2298 14.9252L48.3645 15.2159C48.4738 15.4999 48.5445 15.7999 48.6312 16.0946C48.6845 16.2772 48.7525 16.4546 48.7965 16.6399C48.9365 17.2213 49.0431 17.8159 49.1031 18.4333L49.1072 18.4773C49.1232 18.6626 49.1405 18.8893 49.1552 19.1413L49.1685 19.3559C49.1805 19.5706 49.1925 19.7972 49.2031 20.0479L49.2192 20.3879C49.2285 20.6332 49.2392 20.8919 49.2485 21.1639C49.2525 21.2879 49.2565 21.4079 49.2605 21.5373C49.2712 21.8639 49.2818 22.2066 49.2898 22.5626L49.2965 22.8226C49.3072 23.2772 49.3165 23.7493 49.3258 24.2386L49.3298 24.5586C49.3352 24.9452 49.3405 25.3373 49.3445 25.7399C49.3458 25.9106 49.3472 26.0812 49.3485 26.2546C49.3512 26.6079 49.3525 26.9639 49.3538 27.3266C49.3538 27.5106 49.3552 27.6946 49.3552 27.8812C49.3552 28.2732 49.3538 28.6679 49.3512 29.0639C49.3512 29.2093 49.3512 29.3533 49.3498 29.4999C49.3458 30.0373 49.3392 30.5746 49.3325 31.1079L49.3258 31.4306C49.3178 31.8519 49.3098 32.2693 49.2992 32.6826C49.2952 32.8639 49.2898 33.0399 49.2845 33.2186C49.2752 33.5639 49.2645 33.9026 49.2525 34.2372C49.2458 34.4172 49.2378 34.5972 49.2312 34.7732C49.2178 35.1186 49.2005 35.4519 49.1845 35.7799C49.1765 35.9212 49.1698 36.0666 49.1618 36.2052C49.1378 36.6466 49.1098 37.0732 49.0792 37.4746L49.0765 37.5079L49.0658 37.6239C49.0378 37.9826 49.0058 38.3159 48.9725 38.6333L48.9445 38.8919C48.9058 39.2252 48.8645 39.5399 48.8205 39.8159L48.8058 39.8959C48.7778 40.0612 48.7485 40.2239 48.7178 40.3653L48.6512 40.6452C48.5218 41.1212 48.3738 41.5786 48.2085 42.0159L48.1431 42.1532C48.0031 42.5132 47.8351 42.8452 47.6685 43.1772C47.5898 43.3359 47.5285 43.5132 47.4431 43.6639L47.3992 43.7292C47.1085 44.2399 46.7872 44.7186 46.4311 45.1586L46.4125 45.1879L46.2631 45.3372C45.9338 45.7239 45.5791 46.0826 45.1978 46.4106C45.0525 46.5372 44.8924 46.6466 44.7391 46.7639C44.4204 47.0066 44.0884 47.2332 43.7378 47.4372C43.5551 47.5439 43.3684 47.6466 43.1778 47.7426C42.8031 47.9319 42.4084 48.0972 41.9991 48.2466C41.8151 48.3132 41.6391 48.3893 41.4471 48.4493C40.8391 48.6386 40.2071 48.7986 39.5297 48.9066C37.7497 49.1946 32.939 49.3679 28.1336 49.3679ZM28.867 11.8053C24.7536 11.8053 20.6602 11.9159 18.8589 12.1106C18.3602 12.1693 17.8908 12.2679 17.4388 12.3946C17.2948 12.4332 17.1615 12.4893 17.0215 12.5373C16.7242 12.6373 16.4335 12.7466 16.1602 12.8759C16.0108 12.9479 15.8695 13.0279 15.7282 13.1079C15.4842 13.2466 15.2508 13.3959 15.0295 13.5586C14.8988 13.6546 14.7695 13.7532 14.6468 13.8586C14.4321 14.0426 14.2335 14.2452 14.0441 14.4559C13.9428 14.5706 13.8348 14.6759 13.7415 14.7959C13.6241 14.9466 13.5228 15.1119 13.4175 15.2746C13.3068 15.4439 13.1921 15.6106 13.0948 15.7932C13.0255 15.9252 12.9668 16.0679 12.9028 16.2066C12.8068 16.4199 12.7148 16.6359 12.6361 16.8639C12.5801 17.0266 12.5321 17.1973 12.4841 17.3679C12.3988 17.6813 12.3121 17.9946 12.2575 18.3333C12.2228 18.5626 12.1881 18.8346 12.1574 19.1359L12.1281 19.4586C12.1081 19.6799 12.0868 19.8986 12.0681 20.1466L12.0481 20.4426C12.0308 20.7066 12.0121 20.9799 11.9961 21.2679C11.9881 21.4039 11.9814 21.5466 11.9748 21.6879C11.9601 21.9652 11.9468 22.2506 11.9348 22.5452C11.9281 22.6919 11.9214 22.8386 11.9174 22.9892C11.9041 23.3159 11.8921 23.6519 11.8828 23.9932C11.8788 24.1212 11.8748 24.2439 11.8708 24.3733C11.8574 24.8439 11.8454 25.3252 11.8361 25.8146L11.8321 26.0612C11.8241 26.4772 11.8174 26.8972 11.8134 27.3212C11.8108 27.4812 11.8094 27.6413 11.8081 27.8013C11.8054 28.1493 11.8028 28.4972 11.8001 28.8452C11.8001 29.0252 11.7988 29.2039 11.7988 29.3839C11.7975 29.7226 11.7975 30.0599 11.7988 30.3946C11.7988 30.5652 11.7988 30.7346 11.7988 30.9039C11.8015 31.2986 11.8041 31.6879 11.8068 32.0732L11.8094 32.3759C11.8161 32.8426 11.8228 33.2972 11.8308 33.7386C11.8348 33.8852 11.8374 34.0239 11.8401 34.1666C11.8468 34.4706 11.8548 34.7692 11.8628 35.0572C11.8668 35.2092 11.8721 35.3546 11.8761 35.5013C11.8854 35.7666 11.8934 36.0213 11.9041 36.2679C11.9094 36.4053 11.9148 36.5426 11.9201 36.6732C11.9321 36.9306 11.9454 37.1706 11.9588 37.4026L11.9734 37.6732C11.9934 37.9759 12.0134 38.2519 12.0348 38.4946C12.0601 38.7666 12.0868 39.0013 12.1148 39.1853C12.2028 39.7546 12.3535 40.2759 12.5308 40.7746L12.6588 41.1132L12.6694 41.1319C14.8095 41.2493 17.4441 41.3039 20.1015 41.3039C24.9056 41.3039 29.7163 41.1306 31.4977 40.8439C32.1737 40.7346 32.807 40.5759 33.415 40.3853C33.6057 40.3266 33.783 40.2506 33.967 40.1826C34.375 40.0333 34.771 39.8679 35.1457 39.6799C35.3363 39.5839 35.5217 39.4812 35.7043 39.3746C36.0563 39.1692 36.3884 38.9426 36.707 38.6999C36.8604 38.5839 37.019 38.4733 37.1644 38.3493C37.5471 38.0199 37.9017 37.6612 38.2311 37.2732L38.3991 37.0946C38.7537 36.6559 39.0751 36.1773 39.3657 35.6666C39.4657 35.4906 39.5457 35.2946 39.639 35.1092C39.8044 34.7786 39.9711 34.4492 40.1111 34.0906C40.3004 33.6092 40.4751 33.1119 40.6177 32.5826C40.6737 32.3733 40.7257 32.1159 40.7724 31.8319L40.7871 31.7532C40.8324 31.4772 40.8724 31.1626 40.9111 30.8279L40.9404 30.5706C40.9737 30.2533 41.0044 29.9186 41.0338 29.5612L41.0431 29.4439C41.0751 29.0346 41.1044 28.5973 41.1298 28.1426C41.1378 28.0066 41.1431 27.8626 41.1511 27.7226C41.1684 27.3892 41.1844 27.0519 41.1991 26.7013C41.2058 26.5306 41.2124 26.3559 41.2191 26.1799C41.2311 25.8412 41.2431 25.4959 41.2524 25.1452C41.2564 24.9746 41.2618 24.8039 41.2671 24.6306C41.2778 24.2106 41.2858 23.7852 41.2938 23.3572L41.2991 23.0439C41.3071 22.5173 41.3124 21.9852 41.3164 21.4532C41.3177 21.2852 41.3177 21.1186 41.3191 20.9506C41.3204 20.5732 41.3217 20.1959 41.3217 19.8212V19.6666C41.1564 19.7973 40.9711 19.8999 40.7764 19.9866L40.6577 20.0279C40.3791 20.1346 40.0831 20.2066 39.7657 20.2066C39.0831 20.1999 38.4724 19.9226 38.0297 19.4786L30.391 11.8106C29.8856 11.8066 29.3763 11.8053 28.867 11.8053ZM37.6377 12.0373L41.2831 15.6959C41.2777 15.3866 41.2724 15.0719 41.2644 14.7773L41.2551 14.4346C41.2471 14.1093 41.2391 13.7919 41.2284 13.4919C41.2244 13.3492 41.2204 13.2119 41.2151 13.0746L41.2031 12.7759C40.5897 12.5146 39.9284 12.3093 39.1964 12.1946C38.7977 12.1346 38.2577 12.0826 37.6377 12.0373ZM30.5816 11.8106C30.9283 12.0013 31.307 12.1386 31.7337 12.1439C32.0497 12.1439 32.3457 12.0719 32.6243 11.9653L32.743 11.9226L32.863 11.8439C32.1203 11.8293 31.3603 11.8186 30.5816 11.8106Z" fill="#4E4D4D"/>
<path d="M31.7559 7.18402H31.7866C33.1479 7.18402 34.2506 8.2947 34.2399 9.67204C34.2292 11.0334 33.1093 12.144 31.7319 12.144C30.3559 12.128 29.2692 11.016 29.2799 9.65602C29.2905 8.28936 30.3932 7.18402 31.7559 7.18402" fill="white"/>
<path d="M37.0962 31.0066C37.6882 27.3733 37.6908 14.1186 37.3508 10.7173C36.9802 7.08395 34.7588 4.69597 31.1641 4.13197C29.3841 3.8613 25.0987 3.74265 20.8346 3.74265C16.7213 3.74265 12.6266 3.85328 10.8252 4.04795C7.22252 4.46395 4.79982 6.68664 4.22515 10.2693C3.63181 14.068 3.6398 28.2693 4.08247 31.1226C4.54115 34.092 6.2185 36.1333 9.18119 36.9613C10.7839 37.4106 15.5853 37.572 20.292 37.572C24.6254 37.572 28.8801 37.4346 30.4801 37.2613C34.1161 36.8626 36.5215 34.6226 37.0962 31.0066V31.0066ZM41.0695 10.3693C41.3762 13.6213 41.5749 28.9826 40.6175 32.5826C39.3375 37.2933 36.2642 40.0813 31.4974 40.844C29.7161 41.1306 24.9053 41.304 20.1013 41.304C15.1826 41.304 10.2719 41.1226 8.62119 40.6946C3.93581 39.4826 1.13977 36.4306 0.395767 31.6866C-0.158905 28.2026 -0.217564 12.0106 0.78778 8.49463C2.09979 3.91596 5.15716 1.22797 9.79054 0.465302C11.8906 0.121302 15.9973 -3.00902e-05 20.1426 -3.00902e-05C24 -3.00902e-05 27.8907 0.105303 30.2308 0.233303C33.0668 0.382637 35.6641 1.29462 37.7721 3.31862C39.7815 5.24262 40.8082 7.64931 41.0695 10.3693" fill="white"/>
<path d="M20.5945 27.5067C24.3492 27.5067 27.4412 24.4826 27.5025 20.7213C27.5652 16.9226 24.5532 13.836 20.7705 13.8027H20.7091C16.9544 13.8027 13.8637 16.8266 13.8011 20.588C13.7397 24.3706 16.7518 27.4733 20.5332 27.5067H20.5945ZM20.7505 10.0707C26.5892 10.0707 31.2973 14.816 31.2533 20.672C31.2079 26.5107 26.4279 31.2546 20.5718 31.2546C14.7157 31.2546 10.0237 26.5106 10.0677 20.6546C10.113 14.7986 14.8931 10.0533 20.7505 10.0707" fill="white"/>
</svg>
