<svg width="46" height="46" viewBox="0 0 46 46" fill="none" xmlns="http://www.w3.org/2000/svg">
<path d="M29.0142 45.8213H21.1677L16.2937 40.929L16.2568 45.8213H8.41028L0.37793 37.7572H8.22441L8.39881 14.8744L1.31541 7.76396C2.13155 8.58369 3.26183 9.09049 4.51131 9.09049C4.84984 9.09049 5.17798 9.04783 5.49572 8.97849L5.79932 8.88369C6.00666 8.82223 6.21186 8.75716 6.40506 8.66916L6.72746 8.49462C6.8968 8.39982 7.06293 8.3009 7.2176 8.18636L7.51187 7.9437C7.65307 7.8213 7.78734 7.69049 7.91241 7.55036L8.18268 7.22382L8.38588 6.9249C8.48215 6.77183 8.56975 6.61289 8.64735 6.44942L8.74575 6.2385C8.84468 5.9973 8.92695 5.74622 8.98375 5.48529L9.00362 5.35983C9.05362 5.09463 9.08949 4.82383 9.09162 4.54516C9.09309 4.33169 9.06029 4.1265 9.03269 3.9197C8.99162 3.60516 8.92068 3.3009 8.81868 3.0093L8.76402 2.83063C8.63121 2.49729 8.45508 2.18636 8.25094 1.89836C8.10614 1.69569 7.95401 1.49836 7.77907 1.32223L15.8109 9.38636C15.9672 9.54263 16.1109 9.71036 16.2417 9.88796L16.2833 9.96236C16.4885 10.2504 16.663 10.5598 16.7964 10.8921L16.8182 10.9317L16.8521 11.0744C16.9541 11.365 17.0245 11.6676 17.0656 11.9828L17.1046 12.1478C17.1188 12.2998 17.1256 12.453 17.124 12.6093L17.1104 12.929C17.0974 13.0957 17.0666 13.2582 17.036 13.4197L17.0166 13.5504L17.0114 13.5864C16.9641 13.7957 16.9021 14.0009 16.8265 14.1984L16.7792 14.3009L16.6797 14.5129L16.5428 14.8066L16.4188 14.988L16.2146 15.288L16.0932 15.4665L15.9458 15.6129C15.8193 15.753 15.6865 15.8837 15.5437 16.0077L15.251 16.2494C15.0953 16.364 14.9302 16.464 14.7598 16.5588L14.4379 16.7332C14.2437 16.8213 14.039 16.8864 13.8322 16.9478L13.5281 17.041C13.3521 17.0812 13.1677 17.0916 12.9838 17.1104L16.4494 20.588L16.3188 37.7572H20.9813L21.0765 25.2812C21.0797 24.8504 21.0959 24.4213 21.1265 24.0009L21.1292 23.9374L21.1527 23.7744C21.1885 23.3665 21.2459 22.9718 21.3219 22.5905L21.3532 22.3708L21.4516 22.041C21.4875 21.9104 21.5229 21.7796 21.5661 21.653L21.6224 21.464C21.7073 21.2385 21.8068 21.0265 21.9188 20.8222L21.9303 20.7984L21.9328 20.7932C22.0484 20.5853 22.1798 20.3905 22.3271 20.2093L22.45 20.0905L22.6943 19.8546C22.847 19.7145 23.0147 19.5853 23.197 19.4708L23.5147 19.288C23.648 19.2213 23.7891 19.1624 23.9371 19.1093L20.8161 15.976L20.8423 12.5249L27.3194 19.0265C27.8168 19.1946 28.2252 19.4437 28.5476 19.7665L36.5799 27.8306C36.281 27.529 35.9148 27.2864 35.4652 27.1197C35.0163 26.952 34.4835 26.8598 33.8539 26.8598C33.3815 26.8598 32.9652 26.9118 32.5804 26.9921C32.4564 27.0186 32.3507 27.0598 32.2351 27.0932C31.9903 27.165 31.7553 27.2462 31.5476 27.3504L31.2299 27.5342C31.0476 27.6494 30.8793 27.777 30.7262 27.9186L30.4834 28.153C30.2881 28.3708 30.1074 28.6009 29.9626 28.8624L29.9528 28.8828C29.8105 29.141 29.6985 29.4249 29.5985 29.717C29.5558 29.8426 29.52 29.9733 29.4834 30.1052C29.4345 30.2837 29.3918 30.4665 29.3542 30.653C29.2782 31.0332 29.222 31.428 29.1856 31.8332L29.1596 32.065C29.1288 32.4864 29.1132 32.9145 29.109 33.3452L29.0142 45.8213V45.8213ZM36.5799 27.8306L36.5794 27.829L36.5799 27.8306Z" fill="#4E4D4D"/>
<path d="M45.621 45.8213H37.7907L29.7583 37.7572H37.588L37.6937 23.9213C37.7021 22.8374 37.6688 21.7984 37.5818 20.8093L37.5505 20.529C37.4942 19.9718 37.4156 19.4358 37.3166 18.9186C37.2933 18.7946 37.2729 18.6665 37.2464 18.5452C37.1234 17.977 36.9688 17.4374 36.7802 16.9265C36.7052 16.7254 36.6209 16.5332 36.5338 16.341C36.4729 16.2041 36.4156 16.0613 36.348 15.9306C36.2344 15.7104 36.1052 15.5052 35.974 15.3009L35.777 14.9853C35.5661 14.6905 35.3354 14.4104 35.0786 14.153L43.1115 22.217C43.3552 22.4613 43.5771 22.7222 43.7798 23.0009L43.8095 23.0494L44.0068 23.365C44.1376 23.5692 44.2673 23.7744 44.3803 23.9932C44.4481 24.1249 44.5052 24.2665 44.5667 24.4041C44.6366 24.5588 44.7153 24.7066 44.7777 24.8676L44.8126 24.9905C45.0017 25.4998 45.1558 26.04 45.2787 26.6093C45.3058 26.729 45.3257 26.8572 45.349 26.9812C45.4481 27.4998 45.5271 28.0342 45.5829 28.5916L45.611 28.7889L45.6142 28.8718C45.7017 29.8613 45.7345 30.9009 45.7262 31.9853L45.621 45.8213" fill="#4E4D4D"/>
<path d="M4.57991 -8.99923e-05C7.10234 -8.99923e-05 9.11009 2.04005 9.09143 4.54525C9.07209 7.05045 7.03247 9.09058 4.51112 9.09058C2.00589 9.09058 -0.0190648 7.05045 0.000135419 4.54525C0.019469 2.04005 2.07576 -8.99923e-05 4.57991 -8.99923e-05" fill="white"/>
<path d="M8.41708 12.5251L8.22441 37.7573H0.37793L0.569663 12.5251H8.41708Z" fill="white"/>
<path d="M28.3791 11.912C36.3251 11.912 37.7454 17.1199 37.6938 23.9215L37.588 37.7573H29.7578L29.8516 25.4985C29.874 22.5615 29.836 18.7959 25.8218 18.7959C21.7405 18.7959 21.1025 21.9813 21.0769 25.2829L20.9817 37.7573H13.1353L13.3274 12.5251H20.8427L20.8165 15.9761H20.9321C21.9932 14.0011 24.5635 11.912 28.3791 11.912" fill="white"/>
</svg>
