<svg width="163" height="22" viewBox="0 0 163 22" fill="none" xmlns="http://www.w3.org/2000/svg">
<path d="M0.457 21.3636H3.433V10.0176L0.457 7.04165V21.3636ZM13.849 0.779646V14.1096L0.457 0.748647V4.93365L3.433 7.90965L13.849 18.3256L16.794 21.2706V0.779646H13.849ZM23.0885 11.8156H36.3255V8.83965H23.0885V5.24365H20.1125V21.3636H38.3405V18.4186H23.0885V11.8156ZM20.1125 0.779646V3.75565H38.3405V0.779646H20.1125ZM50.9529 3.72465C54.9829 3.72465 58.2689 7.04165 58.2689 11.0716C58.2689 15.1326 54.9829 18.4186 50.9529 18.4186C46.8919 18.4186 43.6059 15.1326 43.6059 11.0716C43.6059 7.04165 46.8919 3.72465 50.9529 3.72465ZM40.6299 11.0716C40.6299 16.7756 45.2489 21.3636 50.9529 21.3636C56.6259 21.3636 61.2449 16.7756 61.2449 11.0716C61.2449 5.36765 56.6259 0.779646 50.9529 0.779646C45.2489 0.779646 40.6299 5.36765 40.6299 11.0716ZM73.8093 18.4186C70.2753 18.4186 67.3303 15.9076 66.6173 12.5596C66.5243 12.0636 66.4623 11.5676 66.4623 11.0406C66.4623 10.5446 66.5243 10.0486 66.6173 9.58365C67.2683 6.23565 70.2753 3.69365 73.8093 3.69365C76.8783 3.69365 79.4823 5.52265 80.5983 8.15765H83.7603C82.5203 3.84865 78.5213 0.717647 73.8093 0.717647C68.6013 0.717647 64.2923 4.56165 63.5793 9.58365C63.5173 10.0796 63.4863 10.5446 63.4863 11.0406C63.4863 11.5676 63.5173 12.0636 63.6103 12.5596C64.3233 17.5506 68.6323 21.3636 73.8093 21.3636C78.4283 21.3636 82.3033 18.3876 83.6673 14.2336H80.4433C79.2653 16.7136 76.7543 18.4186 73.8093 18.4186ZM98.7764 0.717647L93.0414 8.52965V8.56065L87.3374 0.717647H83.6484L90.9954 10.7616L91.2124 11.0406V11.0716L91.4914 11.4436L91.5844 11.5676V21.3636H94.5294V11.5366L94.6224 11.4436L94.9014 11.0716V11.0406L95.1184 10.7616L102.465 0.717647H98.7764ZM111.651 18.4186C108.117 18.4186 105.172 15.9076 104.459 12.5596C104.366 12.0636 104.304 11.5676 104.304 11.0406C104.304 10.5446 104.366 10.0486 104.459 9.58365C105.11 6.23565 108.117 3.69365 111.651 3.69365C114.72 3.69365 117.324 5.52265 118.44 8.15765H121.602C120.362 3.84865 116.363 0.717647 111.651 0.717647C106.443 0.717647 102.134 4.56165 101.421 9.58365C101.359 10.0796 101.328 10.5446 101.328 11.0406C101.328 11.5676 101.359 12.0636 101.452 12.5596C102.165 17.5506 106.474 21.3636 111.651 21.3636C116.27 21.3636 120.145 18.3876 121.509 14.2336H118.285C117.107 16.7136 114.596 18.4186 111.651 18.4186ZM127.524 18.4186V0.624647H124.548V21.3636H140.575V18.4186H127.524ZM146.846 11.8156H160.083V8.83965H146.846V5.24365H143.87V21.3636H162.098V18.4186H146.846V11.8156ZM143.87 0.779646V3.75565H162.098V0.779646H143.87Z" fill="#35EAB7"/>
</svg>
