<svg width="52" height="44" viewBox="0 0 52 44" fill="none" xmlns="http://www.w3.org/2000/svg">
<path d="M21.6042 43.1826C16.7988 43.1826 12.3468 41.9026 8.24808 39.3559L8.03342 39.2226L0 31.1586L0.216002 31.2919C4.31471 33.8399 8.76676 35.1186 13.5708 35.1186C13.8361 35.1186 14.1028 35.1159 14.3695 35.1079C15.5255 35.0733 16.6602 34.9493 17.7895 34.7773C16.7295 34.3106 15.8202 33.6693 15.0855 32.9306L7.05341 24.868C8.47209 26.2933 10.5174 27.3919 13.1175 27.4773L19.9735 34.3586C24.4442 33.2546 28.3123 31.0613 31.563 27.7253C32.0803 27.1959 32.567 26.6466 33.0297 26.08C33.175 25.9026 33.3043 25.7119 33.4443 25.5293C33.7523 25.1306 34.0617 24.7319 34.3457 24.3159C34.5084 24.0786 34.655 23.8266 34.8097 23.5839C35.0484 23.2079 35.2897 22.8333 35.5097 22.4453C35.827 21.888 36.131 21.324 36.411 20.7413C36.7124 20.1026 36.9871 19.4533 37.2377 18.7959C37.4697 18.1879 37.6804 17.5706 37.8671 16.9466C37.9177 16.776 37.9564 16.6026 38.0044 16.4306C38.1284 15.9826 38.2484 15.532 38.3484 15.076C38.5111 14.34 38.6471 13.5973 38.7444 12.8453C38.8137 12.3226 38.8524 11.8 38.8857 11.2786C38.9377 10.4906 38.9644 9.7013 38.9404 8.9133L39.0911 8.63062C39.5524 8.29862 39.9751 7.92394 40.3978 7.54927L38.3844 5.52928C38.8337 5.24128 39.2471 4.92661 39.6284 4.58794C39.7551 4.47594 39.8577 4.34528 39.9764 4.22795C40.2177 3.99061 40.4604 3.75461 40.6684 3.49328C40.7884 3.34528 40.8817 3.17728 40.9898 3.02128C41.1671 2.76661 41.3498 2.51329 41.4991 2.23729C41.5618 2.12129 41.6111 1.99329 41.6698 1.87196C41.8511 1.49596 42.0244 1.11462 42.1551 0.701288L50.1872 8.76395C50.1339 8.93595 50.0752 9.10262 50.0125 9.26795C49.9245 9.50129 49.8072 9.71462 49.7019 9.93596C49.6432 10.0573 49.5952 10.184 49.5312 10.3L49.4952 10.3813L51.3712 12.2653C51.0979 12.6773 50.8259 13.0653 50.5205 13.44L50.3659 13.6253L50.3285 13.672C50.0192 14.0506 49.6712 14.3946 49.3312 14.7453C49.1632 14.9173 49.0138 15.1093 48.8378 15.2746C48.3005 15.784 47.7285 16.2573 47.1245 16.6946L46.9725 16.976C46.9965 17.7653 46.9712 18.5546 46.9192 19.3426L46.9125 19.6186C46.8792 20.0479 46.8338 20.4786 46.7765 20.908C46.6805 21.6613 46.5432 22.4026 46.3818 23.1386L46.3538 23.2946C46.2618 23.6986 46.1472 24.0973 46.0365 24.4959C45.9885 24.6666 45.9511 24.84 45.9005 25.0106C45.7178 25.62 45.5138 26.2239 45.2871 26.8213L45.2711 26.8599C45.0205 27.5159 44.7458 28.1653 44.4431 28.8053C44.1911 29.328 43.9245 29.8399 43.6445 30.3439L43.5431 30.5079C43.3218 30.8973 43.0804 31.2706 42.8418 31.6466C42.6871 31.8906 42.5418 32.1413 42.3791 32.3786C42.0938 32.7946 41.7858 33.1933 41.4764 33.5933C41.3484 33.7599 41.2338 33.936 41.1004 34.1L41.0618 34.1439C40.5991 34.7093 40.1124 35.2586 39.5964 35.7893C36.1857 39.2893 32.103 41.5453 27.351 42.5906C25.7216 42.9386 24.0789 43.1213 22.4029 43.1706C22.1362 43.1786 21.8682 43.1826 21.6042 43.1826" fill="#4E4D4D"/>
<path d="M43.3391 4.20265C43.0204 4.68265 42.7018 5.13065 42.3324 5.56265C41.3951 6.72398 40.3084 7.75198 39.0911 8.63065L38.9404 8.91333C38.9791 10.224 38.9191 11.5347 38.7444 12.8453C38.3911 15.5987 37.591 18.236 36.411 20.7413C35.1644 23.3293 33.5697 25.668 31.563 27.7253C28.1523 31.2266 24.0709 33.4826 19.3189 34.5266C17.6895 34.876 16.0455 35.0586 14.3695 35.108C14.1028 35.116 13.8361 35.1187 13.5708 35.1187C8.76676 35.1187 4.31471 33.84 0.214667 31.292L0 31.16C0.702674 31.2346 1.39735 31.272 2.08402 31.272C4.42805 31.272 6.68407 30.8333 8.88543 29.9493C10.4001 29.3187 11.7988 28.5213 13.1175 27.4773C8.52409 27.328 5.66273 24.0093 4.91872 21.3213C5.47073 21.4293 6.02006 21.4813 6.56673 21.4813C7.28541 21.4813 8.00142 21.392 8.72009 21.2226L8.85343 21.156C6.35207 20.576 4.43737 19.248 3.12669 17.092C2.24268 15.6653 1.83869 14.0893 1.85202 12.38C3.10803 13.044 4.3987 13.4093 5.79205 13.4427C3.92803 12.0987 2.68136 10.324 2.18402 8.06799C1.68668 5.81065 2.03468 3.67067 3.19469 1.64667C7.94674 7.304 13.9948 10.4066 21.4055 10.9213C21.3589 10.556 21.3109 10.2573 21.2642 9.94133C21.0309 7.85199 21.4776 5.91064 22.6189 4.15197C24.0456 1.9293 26.0643 0.55199 28.655 0.137323C29.2056 0.0453231 29.7443 -1.41828e-05 30.2683 -1.41828e-05C32.5883 -1.41828e-05 34.6404 0.890661 36.4004 2.60933C36.5097 2.70799 36.603 2.76131 36.7244 2.76131L36.863 2.74133C38.6911 2.35999 40.4218 1.69732 42.0378 0.767987L42.1551 0.70132C41.5084 2.75865 40.2191 4.35198 38.3857 5.52931C40.1111 5.34665 41.7418 4.88132 43.3391 4.20265" fill="white"/>
</svg>
