<svg width="51" height="38" viewBox="0 0 51 38" fill="none" xmlns="http://www.w3.org/2000/svg">
<path d="M24.0765 29.4609L16.0444 21.3984C16.0791 16.7692 16.1138 12.2061 16.1484 7.59427C20.5445 9.90094 24.9232 12.1905 29.3512 14.5129L37.3833 22.5755C32.9553 20.2547 28.5766 17.9651 24.1819 15.6583C24.1459 20.2703 24.1112 24.8333 24.0765 29.4609Z" fill="#4E4D4D"/>
<path d="M28.9712 37.9702C21.4391 37.9702 14.051 37.6727 12.323 37.1087C11.4977 36.8358 10.8097 36.4223 10.2577 35.8702L2.22559 27.8061C2.77626 28.3598 3.46428 28.7727 4.28962 29.0451C6.01897 29.6103 13.407 29.9077 20.9391 29.9077C29.1219 29.9077 37.474 29.5557 38.914 28.8129C39.2153 28.6503 39.4913 28.465 39.7526 28.2666L39.9767 28.0785C40.162 27.9238 40.3326 27.7546 40.4926 27.5728L40.71 27.3197L40.934 26.9915C41.0393 26.8238 41.1487 26.6598 41.238 26.4743C41.3353 26.2666 41.4273 26.0129 41.5153 25.7462L41.5913 25.5129C41.6793 25.2197 41.7647 24.9061 41.8433 24.5582L41.8553 24.4905C41.9327 24.1462 42.002 23.777 42.0673 23.388C42.09 23.2504 42.11 23.1036 42.1313 22.9624C42.1767 22.6728 42.2193 22.377 42.258 22.0691C42.2793 21.9009 42.2993 21.7276 42.3193 21.5546C42.3527 21.2514 42.3847 20.9421 42.4154 20.6249C42.4327 20.4437 42.4487 20.2609 42.4647 20.0754C42.4807 19.877 42.494 19.6728 42.5087 19.4702C42.5674 18.6514 42.6167 17.8103 42.646 16.9503L42.6487 16.8582C42.6767 16.0118 42.6873 15.153 42.686 14.2999C42.686 14.1462 42.6873 13.9905 42.686 13.8369C42.6807 12.9957 42.6607 12.1666 42.6287 11.3582C42.622 11.2009 42.614 11.0478 42.606 10.8932C42.5673 10.0702 42.518 9.26755 42.45 8.52235C42.422 8.21969 42.3887 7.94102 42.3567 7.65569C42.3367 7.47435 42.3193 7.28222 42.2967 7.10875C42.2593 6.82129 42.2167 6.56088 42.174 6.29568C42.1513 6.14515 42.13 5.97955 42.1047 5.83581C42.0593 5.58368 42.0087 5.36661 41.958 5.14101C41.93 5.01288 41.9047 4.86755 41.8753 4.74888C41.7927 4.42235 41.7033 4.12901 41.6087 3.87955L41.5193 3.69422C41.37 3.33689 41.19 3.01035 40.9833 2.71035C40.8207 2.47702 40.654 2.24782 40.4566 2.04888L48.4901 10.1129C48.6527 10.277 48.8034 10.453 48.9434 10.641L49.0168 10.7743C49.2234 11.0718 49.4021 11.4 49.5501 11.7572L49.6194 11.8837L49.6421 11.9421C49.7368 12.1932 49.8248 12.4847 49.9074 12.8129L49.9754 13.1276C50.0314 13.376 50.0874 13.6213 50.1381 13.9009C50.1608 14.029 50.1794 14.1785 50.2008 14.3129C50.2448 14.5915 50.2901 14.8675 50.3288 15.1718C50.3514 15.3451 50.3687 15.5385 50.3887 15.7181C50.4194 15.9942 50.4541 16.2623 50.4808 16.553L50.4821 16.5847C50.5501 17.3301 50.5994 18.129 50.6381 18.9503C50.6461 19.1103 50.6541 19.2634 50.6608 19.4265C50.6941 20.2342 50.7141 21.0609 50.7181 21.9009C50.7194 22.0546 50.7181 22.2061 50.7181 22.3598C50.7194 23.2197 50.7088 24.0822 50.6808 24.9358L50.6794 25.0088C50.6501 25.8718 50.6008 26.7129 50.5408 27.5342L50.5248 27.8224L50.4968 28.1385C50.4821 28.3249 50.4648 28.5077 50.4474 28.6905C50.4181 29.0051 50.3861 29.3129 50.3514 29.6145C50.3314 29.789 50.3127 29.9623 50.2914 30.1333C50.2514 30.441 50.2088 30.7358 50.1648 31.0249C50.1434 31.1675 50.1234 31.3145 50.1008 31.4503C50.0341 31.8394 49.9647 32.2093 49.8887 32.5546L49.8754 32.6223L49.8741 32.6301C49.7954 32.9743 49.7127 33.2837 49.6247 33.5743L49.5474 33.8118L49.4527 34.1009C49.3941 34.2598 49.3327 34.4035 49.2701 34.5369L49.1221 34.8238L48.9661 35.0546L48.7421 35.3837L48.6607 35.5035L48.5261 35.6358C48.3661 35.817 48.1941 35.9863 48.0101 36.1426L47.7861 36.3301C47.5234 36.529 47.2474 36.7129 46.9461 36.8759C45.5074 37.6197 37.1553 37.9702 28.9712 37.9702" fill="#4E4D4D"/>
<path d="M16.0446 21.3984C20.474 19.0916 24.8874 16.8181 29.3514 14.5129C24.9234 12.1905 20.5447 9.90092 16.1486 7.59572C16.114 12.2061 16.0793 16.7692 16.0446 21.3984ZM41.6089 3.87958C43.1383 7.91038 43.0756 22.5916 41.2382 26.4744C40.7316 27.5358 39.9302 28.265 38.9142 28.8129C37.4742 29.5557 29.1221 29.9077 20.9394 29.9077C13.4073 29.9077 6.0192 29.6104 4.28985 29.0452C2.6845 28.5145 1.59781 27.4531 1.0298 25.8599C-0.35021 21.9609 -0.658206 5.63852 2.10316 2.41972C3.04183 1.32492 4.25784 0.678523 5.68586 0.52759C8.96856 0.17439 15.3006 -1.52588e-05 21.546 -1.52588e-05C29.3234 -1.52588e-05 36.9649 0.26919 38.4142 0.79319C39.9529 1.34106 41.0409 2.35305 41.6089 3.87958Z" fill="white"/>
</svg>
